<svg xmlns="http://www.w3.org/2000/svg" viewBox="0 0 400 464">
  <path fill-rule="evenodd" clip-rule="evenodd" fill="#54585A" d="M400 23.7a855.732 855.732 0 0 0-400 0v166.2c.2 110.9 78.5 218 200 273.6 121.5-55.6 199.8-162.7 200-273.6V23.7z"/>
  <path fill-rule="evenodd" clip-rule="evenodd" fill="#FFF" d="M200 451.7C85 397.4 10.9 295.1 10.7 189.9V91.7c62-14.2 125.7-21.5 189.3-21.5s127.3 7.2 189.3 21.5v98.2C389.1 295.1 315 397.4 200 451.7z"/>
  <path fill="#C8102E" d="M172.1 363.9v-22.4h-3.7v-3.1c1.1-.1 2.1-.5 3-1.2 1-.7 1.6-1.5 2.1-2.5h3.1v29.1h-4.5zm25-6.6c0 1.9-.7 3.6-2 4.9-1.4 1.3-3 2-4.9 2h-.3c-1.9 0-3.6-.7-4.9-2-1.3-1.4-2-3-2-4.9v-2.6c0-1.8.6-3.3 1.8-4.7.5-.6 1.1-1 1.8-1.4-1.2-.6-2.1-1.6-2.7-3-.3-.7-.5-1.6-.5-2.7v-1.6c0-1.9.6-3.5 1.7-4.7 1.2-1.4 2.9-2.1 4.9-2.1h.3c2.1 0 3.7.7 4.9 2.1 1.1 1.3 1.7 2.8 1.7 4.7v1.6c0 1.8-.5 3.3-1.6 4.5-.5.5-1 .9-1.6 1.3 1.3.7 2.3 1.8 3 3.3.4.8.6 1.7.6 2.8v2.5zm-4.3-14.9c0-2-.7-3.2-1.9-3.8-.3-.1-.6-.2-1-.2-.8 0-1.4.2-1.9.6-.4.3-.7.8-.8 1.3-.2.5-.2 1.2-.2 2 0 1.3.2 2.2.6 2.7.5.7 1.2 1.1 2.3 1.1 1.1 0 1.8-.4 2.3-1.2.5-.5.7-1.4.6-2.5zm-.1 12.8c0-1.7-.4-2.9-1.2-3.5-.4-.3-.9-.4-1.6-.4-1.2 0-2 .5-2.4 1.5-.2.6-.4 1.4-.4 2.4v1.4c0 1 .3 1.7.9 2.3.5.5 1.1.8 1.9.8 1.2-.1 2-.7 2.5-1.8.2-.4.3-.8.3-1.3v-1.4zm19.9-20.4v4.4l-6.2 24.7h-4.3l6.2-24.7H201v-4.4h11.6zm9.8 24.9c2 0 3-.9 3-2.8v-1.7c0-3-1.6-4.5-4.7-4.5V347c1.7 0 2.9-.5 3.7-1.4.7-.9 1.1-2 1.1-3.6v-.7c0-1.9-.8-2.9-2.5-2.9-.9 0-1.6.4-2 1.1-.3.5-.5 1.2-.5 2.1v.8h-4.3v-.7c0-2.1.5-3.8 1.6-5.1 1.2-1.5 2.9-2.2 5-2.2s3.7.7 4.9 2.1c1.1 1.3 1.7 2.8 1.7 4.7v1.2c0 1.8-.5 3.4-1.6 4.7-.5.6-1 1-1.6 1.4 1.3.7 2.3 1.8 3 3.3.4.8.6 1.7.6 2.8v2.3c0 2.2-.7 3.9-2.2 5.3-1.4 1.3-3.1 2-5.1 2-1.9 0-3.6-.7-4.9-2-1.3-1.4-2-3-2-4.9v-.7l4.2-.3.1 1c.1.7.3 1.3.8 1.8.4.4 1 .6 1.7.6zm4.9-202.4s7.3 14.2 25 18.6c16 4.2 25.3.1 25.3.1l8.4 10.2s.6-3.2-.2-4.7c-.9-1.7-6.2-14.1-6.2-14.1l1-4.8s-8.8-4.6-18.2-7.1c-13.5-3.5-21.1-4.3-21.1-4.3l3.1 4.6c-.1-.1-7.8-.3-17.1 1.5z"/>
  <path fill="#C8102E" d="M59.8 232.9c-8.1-47 16.7-93.8 41.2-113.6-31 12.3-43 32.8-59.4 68.5 0 0-.7-75.8 76.2-100.1C61.4 93.2 24 102.4 24 102.4v87.5c.1 47.9 16.6 96.4 47.7 140.2 31 43.6 75 80.4 127.1 106.3l1.2.6 1.2-.6c17.3-8.6 33.6-18.4 49-29.2-161-61-186.2-141.6-190.4-174.3z"/>
  <path fill="#C8102E" d="M221 83.8c54.5 10.2 58.7 39.9 58.7 39.9s-.2-9-2.3-16.6c24.5 19.2 17.8 39.1 17.8 39.1s13.6 9 16.9 13.5c3.6 4.9 2.3 13.1 2.3 13.1s-4.3-2.9-8.3-4.8c-4-1.9-9.1-3.3-9.1-3.3s10.8 10.5 22 19.6c11.2 9.1 14.7 15.8 14.7 15.8-1.6.2-3.4 3.2-9 3.2-4.9 0-11.3-2.6-12.9-2.6-3.9 0-3.6 2.8-8.9 2.8-5.3 0-6.3-6-8.8-4.3-2.5 1.7.7 10.8 13.2 12.5 9.4 1.3 11 6.1 11 7.9 0 1.8-1.3 16.4-16.3 22-20.3 7.5-34.1 3.8-34.1 3.8-8.9 7.3-7 25.6-6.6 28.3 13.2-.5 22.7-4.8 30.9-8.4 1.9-3 4.5-7.9 5.7-13.5 0 0 3.9 2.9 3.3 9.7 5.2-1.8 10.2-2.5 15.8-.6 1.8-1.9 3.8-6.3 4.5-9.7 0 0 5.1 4.7 2.2 13.1 8.4 5.6 10 31.6-13.3 41.8-1 .5-1.7.7-1.7.7s3.4-5.7 3.8-10.6c.3-5-2.2-6.2-2.2-6.2s-.9 8.1-9.5 16.1c-7.8 7.3-19.3 8.9-19.3 8.9-10.3-16.1-28.4-26.7-55.2-32.3-7.9-38 24.7-73.9 24.7-73.9s-33 11-41 38.8c0 0-22.3-11-30.6-37.9-9.3-30 9.5-48.5 9.5-48.5s-33.7 16.4-27 59.9c6.3 41.4 62.3 74.7 62.3 74.7-43-16.7-93.8-45.5-108-80.8-24.8-61.7 9.5-100.3 9.5-100.3s-37.6 23.4-39 80.6C84.4 300.1 257 341.5 310.3 352.8c6.4-7.4 12.4-15 17.9-22.8 31.1-43.8 47.6-92.2 47.7-140.1v-87.5c.1 0-65.9-16.2-154.9-18.6zm109.3 161.9s-2-2.6-4.3-4.6c-2.2-2-5.9-4.1-5.9-4.1 4.3-7.2 5.8-12.2 6.1-16.7 0-5 2.8-4.9 6.5-7.6 5-3.6 4.8-8.3 4.8-8.3 9.2 14.3-1.9 33.2-7.2 41.3z"/>
  <path fill="#FFF" d="M47.7 64.8V27.6c-2.2.4-4.4.9-6.6 1.3v43.9c4.7-1 9.4-1.9 14.1-2.8l-1.8-6.3c-1.8.4-3.8.7-5.7 1.1zm106.5-44.2c.6-2.3 1.2-4.5 1.8-6.8-5.9.3-11.9.8-17.8 1.2v43.9c5.3-.4 10.7-.8 16.1-1.1.6-2.3 1.2-4.5 1.8-6.8-3.7.2-7.4.5-11.2.7v-12c2.9-.2 5.9-.4 8.8-.6v-6.6c-2.9.2-5.9.4-8.8.6v-12c3-.1 6.2-.3 9.3-.5zm-31.7-4.3c-2.9.3-5.4 1.6-7.5 3.8-2.1 2.3-3.1 4.9-3.1 7.8v24c0 2.9 1 5.3 3.1 7.1 2 1.8 4.5 2.6 7.5 2.3 2.9-.3 5.4-1.5 7.4-3.8 2.1-2.2 3.1-4.8 3.1-7.7v-4.3l-6.9.6v4.2c0 1.1-.4 2-1.1 2.8-.8.8-1.7 1.3-2.7 1.4-1.1.1-2-.2-2.7-.8-.7-.7-1.1-1.5-1.1-2.6v-24c0-1.1.4-2 1.1-2.8.7-.8 1.6-1.3 2.7-1.4 1.1-.1 2 .2 2.7.9.8.7 1.1 1.5 1.1 2.6v3.3l6.9-.6v-3.2c0-2.9-1-5.3-3.1-7.2-2-1.9-4.5-2.7-7.4-2.4zM98.9 53.4c0 1.1-.4 2-1.1 2.8-.7.8-1.6 1.3-2.7 1.5-1.1.1-2-.1-2.7-.7-.7-.6-1.1-1.5-1.1-2.5V20.6c-2.2.3-4.3.6-6.5.9v34c0 2.9 1 5.2 3 7 2 1.7 4.5 2.4 7.4 2 2.9-.4 5.4-1.7 7.4-4 2.1-2.3 3.1-4.9 3.1-7.8v-34l-6.9.9c.1 11.2.1 22.5.1 33.8zM32.3 33.6c-2-1.6-4.3-2.1-7.2-1.5-2.9.6-5.3 2.2-7.3 4.8-2 2.5-3 5.3-3 8.2v24c0 2.9 1 5.1 3 6.7 2 1.6 4.4 2.1 7.3 1.4 2.8-.6 5.1-2.2 7.2-4.6 2-2.5 3.1-5.2 3.1-8.1V48.9L27 50.7c-.6 2.3-1.2 4.7-1.7 7 1.2-.3 2.4-.5 3.7-.8v8.9c0 1-.4 2-1.1 2.9-.7.9-1.8 1.5-2.8 1.7-1 .2-1.9.1-2.6-.5-.7-.6-1.1-1.4-1.1-2.4v-24c0-1.1.4-2 1.1-3 .7-.9 1.6-1.5 2.6-1.7 1-.2 2-.1 2.7.5.7.6 1.1 1.4 1.1 2.5v3.3c2.2-.5 4.4-1 6.6-1.4v-3.2c-.2-3-1.2-5.3-3.2-6.9zm43.4-8.2c-2-1.7-4.5-2.4-7.4-1.9-2.9.5-5.3 1.9-7.4 4.3-2 2.4-3.1 5.1-3.1 8v24c0 2.9 1 5.2 3 6.9 2 1.7 4.5 2.3 7.4 1.8 2.9-.5 5.4-1.9 7.4-4.3 2.1-2.4 3.1-5 3.1-7.9v-24c0-2.9-1-5.2-3-6.9zm-3.8 31.9c0 1.1-.4 2-1.1 2.9-.7.9-1.6 1.4-2.7 1.6-1 .2-1.9 0-2.7-.6-.7-.6-1.1-1.4-1.1-2.5v-24c0-1.1.4-2 1.1-2.9.7-.9 1.6-1.4 2.7-1.6 1-.2 1.9 0 2.7.7.7.6 1.1 1.4 1.1 2.5v23.9zm101.3-23c-.3-.2-3-2.5-3.2-2.6-1.7-1.5-4.5-4.2-4.5-7 0-3.6 1.8-4.7 3.5-4.8 1.8-.1 3.6-.1 5.5-.2.6-2.2 1.2-4.5 1.8-6.7l-7.8.3c-7.6.3-10 6.5-10 11.2 0 6 3.9 9.5 6.4 11.6.3.2 3 2.5 3.2 2.6 1.7 1.4 4.5 4.2 4.5 7.1 0 3.6-1.8 4.6-3.5 4.7-2.5.1-5 .2-7.4.3-.6 2.3-1.2 4.5-1.8 6.8 3.3-.2 6.5-.3 9.8-.5 7.6-.3 10-6.3 10-11-.1-6-4-9.7-6.5-11.8zm190.4 18.8c-1-1.9-2.3-3.2-3.7-4.1.9-.2 1.7-.6 2.3-1.3 1.6-1.5 2.3-3.7 2.3-6.6 0-1.8-.2-3.4-.6-4.8-.8-2.6-2-4.7-3.8-6.2-2.1-1.8-4.4-3-7.1-3.4l-9.6-1.8V69c4 .7 8 1.4 12 2.2 1.7.3 3.3.1 5-.6 1.5-.6 2.6-1.6 3.5-3 1-1.7 1.6-4 1.6-6.8 0-1.1-.1-2.2-.2-3.1-.5-1.7-1-3.3-1.7-4.6zM350 32.9c1.1.2 2.1.4 3.2.6 1.3.2 2.4.9 3.2 1.9.9 1.1 1.3 2.6 1.3 4.4 0 1.1-.1 2-.4 2.7-.7 1.9-2.1 2.6-4.1 2.2-1.1-.2-2.1-.4-3.2-.6V32.9zm7.9 28.8c-.9 2.2-2.4 3-4.6 2.6-1.1-.2-2.1-.4-3.2-.6V50.5c1.1.2 2.1.4 3.2.6 1.6.3 2.6 1 3.4 2.2.9 1.3 1.7 3.2 1.7 5.7-.1 1-.2 1.9-.5 2.7zm25.7-28.6l-4.8 14.7c-1.6-5.6-3.2-11.3-4.9-16.9-2.4-.5-4.8-1-7.3-1.5 2.9 9.2 5.9 18.3 8.8 27.5v18.5l6.6 1.5V58.4c2.9-7.9 5.9-15.7 8.8-23.6-2.3-.6-4.8-1.2-7.2-1.7zm-80.5 19.8c0 1.1-.4 1.9-1.1 2.5-.7.6-1.6.9-2.7.8-1.1-.1-2-.6-2.7-1.4-.7-.8-1.1-1.8-1.1-2.8V18.1c-2.2-.3-4.3-.5-6.5-.7v34c0 2.9 1 5.5 3.1 7.7 2 2.3 4.5 3.6 7.4 3.9 2.9.4 5.4-.3 7.4-2.1 2.1-1.7 3.1-4.1 3.1-7v-34l-6.9-.9v33.9zm-53.7-24.4v-4.2c0-3.2-.8-5.7-2.3-7.6-1.7-2.1-4.5-3.3-8.2-3.5-3.5-.2-7-.3-10.5-.4v43.9c2.2.1 4.4.2 6.7.2V38.3c1.3.1 2.6.1 3.9.2 1.5 6.3 3 12.6 4.5 18.8 2.4.1 4.8.3 7.2.4-1.6-7.2-3.3-14.4-4.9-21.6 2.4-1.9 3.6-4.5 3.6-7.6zm-6.5-.2c0 1.1-.4 1.9-1.1 2.6-.7.7-1.6 1-2.7 1-1.3-.1-2.7-.1-4-.2V19.8c1.3.1 2.7.1 4 .2 2.5.1 3.8 1.5 3.8 4v4.3zm-63.8-8.8c2.6-.1 5.2-.1 7.8-.2v37.2c2.2 0 4.4-.1 6.7-.1V19.2c2.6 0 5.2-.1 7.8-.1v-6.7c-6.8 0-13.6.1-20.4.3-.7 2.3-1.3 4.6-1.9 6.8zm42.6-.1l1.8-6.6c-6-.2-11.9-.2-17.9-.3v43.9c5.4 0 10.7.1 16.1.2l1.8-6.6c-3.7-.1-7.5-.2-11.2-.2v-12c3 0 5.9.1 8.9.2v-6.6c-3-.1-5.9-.1-8.9-.2v-12c3.1 0 6.3.1 9.4.2zm61.4 11.7v-4.2c0-3.2-.8-5.7-2.3-7.7-1.7-2.2-4.5-3.5-8.2-3.8-3.5-.3-7-.6-10.5-.8v43.9c2.2.2 4.4.3 6.7.5V40.4l3.9.3c1.5 6.3 3 12.7 4.5 19 2.4.2 4.8.5 7.2.7-1.6-7.3-3.3-14.6-4.9-21.8 2.4-1.8 3.6-4.3 3.6-7.5zm-6.5-.4c0 1.1-.4 1.9-1.1 2.6-.7.7-1.6 1-2.7.9-1.3-.1-2.7-.2-4-.3V22c1.3.1 2.7.2 4 .3 2.5.2 3.8 1.6 3.8 4.2v4.2zm50.3-8.8c-2.9-.5-5.3.2-7.4 2-2.1 1.7-3.1 4.1-3.1 7v24c0 2.9 1 5.5 3.1 7.8 2 2.4 4.5 3.7 7.4 4.2 2.9.4 5.2-.2 7.2-1.9s3.1-4 3.1-6.9V42.5c-2.8-.5-5.6-.9-8.4-1.4-.6 2.1-1.2 4.2-1.8 6.4 1.2.2 2.5.4 3.7.6V57c0 1-.4 1.9-1.1 2.5-.7.6-1.8.8-2.9.7-1-.2-1.9-.7-2.7-1.5-.7-.8-1.1-1.8-1.1-2.8v-24c0-1.1.4-1.9 1.1-2.5.7-.6 1.6-.9 2.7-.7 1 .2 2 .7 2.7 1.6.7.9 1.1 1.8 1.1 2.9v3.3c2.2.4 4.4.7 6.6 1.1v-3.2c0-2.9-1-5.5-3-7.9-2-2.8-4.3-4.2-7.2-4.6z"/>
</svg>
