<svg viewBox="0 0 365.41 435.47">
  <path d="M353.69 45.37a405.05 405.05 0 0 0-76.34-30.8q-2.29-.66-4.64-1.3l3 3c.4.4 28.2 41-42.27 147.1.6.51 1.19 1 1.77 1.53 22.9 20.32 28.2 42.68 33.33 47.46 17.93 16.62 36 25.45 40.57 39.63 1.38 4.07-1.6 6.39-4.5 6.73a6.15 6.15 0 0 1-1.22 0 4.75 4.75 0 0 1-1.12-.22v2c0 4.36-.93 11.68-6.65 15v.43a4.88 4.88 0 0 0 0 .79 3.56 3.56 0 0 1 0 .73 24.75 24.75 0 0 1-.09 2.68c-1.07 6.4-8.65 12.21-18.59 10.31-3.38 5.09-12.85 13.1-26.56 14.49-.06-.16 3.63-7.81 3.63-7.81s1.25-2.81 4.61-11.39c-.11 0-4.49 5.41-20 9.59 0 0 5.28-10.32 5.41-18.89-.15 0-2 1-12 4.07a37.06 37.06 0 0 0 5.68-13.94c9.67 9.92 15.25 14.26 32.92 21.48-39.19-15.8-35.87-53.92-63.6-50.59-30 3.64-37.33 75 17.42 106.22a73 73 0 0 1-24.69-27.55c6.23-.85 11.12-4.86 11.37-4.81 1.15 1.15-.29 10.74-.57 14.9a28.11 28.11 0 0 0 12.2-9.14c.24 10 .17 10.43.82 18.29 6-6 11.33-12 11.33-12h.26c1.58 15.08 1.33 14.68 1 20.7a10.24 10.24 0 0 1-.18 1.6 10.4 10.4 0 0 1 2.28.62c6.63 2.58 7 18.59-26.75 16-27.41-2.08-52.14-17.56-75.06-35.07l-2.17-1.67a115.47 115.47 0 0 0-.45 40.48c5.46 31.56 23.82 52.22 36.09 62.87q6.23 3.34 12.73 6.57C432.23 312.3 353.69 45.37 353.69 45.37z" fill="#ac162c"/>
  <path d="M304.58 258.7a6.15 6.15 0 0 1-1.22 0 4.83 4.83 0 0 1-1.15-.23c-8.29-2.82-9.06-10.14-12-10.26a2 2 0 0 0-.62.08 5.88 5.88 0 0 0-2 .93 2.8 2.8 0 0 0-.38.36l-.06.06a2.4 2.4 0 0 0-.27.39v.08a2.77 2.77 0 0 0-.17.42v.08a2.71 2.71 0 0 0-.08.46v.09a3.71 3.71 0 0 0 0 .5v.09a1.27 1.27 0 0 0 .08.54v.08a2.4 2.4 0 0 0 .15.6v.08c.07.21.14.43.23.65v.06c.09.24.19.47.3.72.89 2 2.35 4.4 3.8 7.18l.09.17.44.86.16.32.39.79.2.42.34.75.22.48.31.73.23.54.27.71.23.6c.08.21.18.54.27.82s.24.76.35 1.14l.21.73c.07.25.11.47.17.71s.11.46.16.7.09.49.14.73.09.47.13.72.07.49.1.73.07.5.09.76a4.31 4.31 0 0 0 .06.73c.06.24 0 .53 0 .79a3.56 3.56 0 0 1 0 .73v.64l.39-.15c8.35-4.17 8.72-14.72 8.47-19.26zm-98.67-96.69l.12-.74c-79.67-31.11-117.59 59.23-67.71 129.16l.32-.29c-14.29-30.2-15.36-133.98 67.27-128.13z" fill="#044437"/>
  <path d="M235.24 204.56l.23.28 4.42 5.39c.66 2.51-2.71 3.25-2.71 3.25l-1.89-8.63c-9.4-.09-13 5.45-17.75 5.19a7.35 7.35 0 0 1-.11 1.43c9.72 1.86 13.39 15.4 22.45 15.4a1.42 1.42 0 0 0 .07-.34s-1.81-5-.42-7.35c2.39-1.33 3.69-4.27 4.28-6.14 4.19 3.17 11.4 3.91 14.74 2.27a2.79 2.79 0 0 0 .26-.29c-8.24-6.49-24.62-54.48-76.08-36.53l.18.66c29.54.88 42.75 15 52.34 25.41zM183.5 318.17l.32-.34c-7-11.55-20.11-67.69 16.86-99.06-.28-.42-.11-.18-.42-.61-53.23 15.29-33.1 89.68-16.76 100zm103.57-36.27c-23.79-2.14-36.87-36.92-54.47-42.36 3.41 2.56 29.7 49.98 54.47 42.36z" fill="#044437"/>
  <path d="M277.35 14.57A371.08 371.08 0 0 0 182.69 0C97.29 1.84 34.3 33.69 11.73 45.37c0 0-78.54 266.89 171 390 0 0-58.9-34.61-46.22-108.26-12.29-9.4-24.06-19.37-35.43-28.19l-.31-.24-1.63-1.25-.9-.68-1.46-1.11-1.06-.8-1.36-1-1.16-.85-1.29-.92-1.22-.87-1.28-.83-1.4-1-1-.73-2.36-1.58-.9-.58-1.54-1-1-.65-1.4-.86-1.06-.64-1.38-.81-1-.6-1.4-.78-1-.55-1.49-.77-.92-.47-1.9-.91-.49-.23q-1.19-.54-2.37-1l-.75-.3-1.63-.65-.91-.33-1.51-.56-1-.31-1.42-.44-1-.27-1.45-.37-.91-.22-1.58-.32-.78-.15c-.78-.14-1.56-.26-2.34-.35 51.46-9.34 104.91 89.53 175.55 80-98.3-17.49-80.56-146-22.84-154.53a5.45 5.45 0 0 1 0-.67c-50.89-12.01-86.32 53.83-37.83 127.63-.17.14-.39.36-.39.36s-43.1-27.03-53.62-66.2l-.33-.07s-1.57 6.86-.56 17.82a.73.73 0 0 1-.36 0s-33.31-78.87 15-125.76c0 0-61.26 21.65-44.33 99.15-1.89-2.18-4.78-8.31-6.37-15.18 0 0-3.83 10.91-1.32 28.51a2 2 0 0 0-.57 0c-30.8-73.2 24.34-113.91 48.49-125 12.82 9.63 25.3 8.16 25.3 8.16-16.68-.84-26.49-17.95-26.49-17.95-8.27-12.76-17.24-14.72-17.24-14.72l-.34-.19-.12-.07 10-.8c27.17 0 40.39 11.47 46.52 20 23.53 1.78 42.31 9.59 57.18 18.21 1.09.63 2.14 1.27 3.18 1.91l.94.6 2.18 1.41.95.63q1.38.94 2.7 1.89l.89.66c.59.44 1.18.88 1.75 1.32l1.2.94 1.33 1.07 1.21 1c.69.58 1.36 1.17 2 1.75 67.3-101.45 46.63-145.76 42.17-150.25z" fill="#044437"/>
  <path d="M291.5 279.11c-24.4-8.94-26.48-35.43-47-42.79a1 1 0 0 1-.11.29c4.7 2.92 23.36 44.83 47.11 42.5z" fill="#044437"/>
  <path d="M309.07 251.97c-4.54-14.18-22.65-23-40.57-39.63-6.3-5.86-12.82-38.11-51.68-60.65-14.88-8.62-33.65-16.43-57.18-18.21-6.13-8.51-19.35-20-46.52-20l-10 .8.12.07.34.19s9 2 17.24 14.72c0 0 9.81 17.1 26.49 17.95 0 0-12.47 1.48-25.3-8.16-24.19 11.08-79.32 51.78-48.46 125a2.4 2.4 0 0 0 .57 0c-2.5-17.68 1.32-28.58 1.32-28.58 1.58 6.88 4.47 13 6.37 15.18-16.93-77.51 44.33-99.15 44.33-99.15-48.33 46.88-15 125.76-15 125.76a.73.73 0 0 0 .36 0c-1-11 .56-17.82.56-17.82l.33.07c10.52 39.13 53.63 66.19 53.63 66.19s.22-.22.39-.36c-48.5-73.84-13.05-139.73 37.84-127.68a5.45 5.45 0 0 0 0 .67c-57.73 8.6-75.47 137 22.84 154.53-70.64 9.59-124.1-89.28-175.55-80 46.11 5.74 95.65 84.43 160 89.3 33.71 2.57 33.38-13.43 26.75-16a10.4 10.4 0 0 0-2.28-.62 10.24 10.24 0 0 0 .18-1.6c.35-6 .6-5.62-1-20.7h-.28s-5.32 6-11.33 12c-.64-7.86-.58-8.31-.82-18.29a28.11 28.11 0 0 1-12.2 9.14c.28-4.16 1.71-13.75.57-14.9-.24 0-5.14 4-11.37 4.81a73 73 0 0 0 24.69 27.55C169.7 312.3 177.03 241 207.03 237.37c27.72-3.33 24.42 34.79 63.6 50.59-17.62-7.1-23.19-11.48-32.85-21.4a37.06 37.06 0 0 1-5.68 13.94 113.85 113.85 0 0 0 12-4.07c-.12 8.57-5.41 18.89-5.41 18.89 15.53-4.18 19.91-9.59 20-9.59-3.36 8.58-4.61 11.39-4.61 11.39s-3.69 7.65-3.63 7.81c13.72-1.39 23.19-9.39 26.56-14.49 9.94 1.9 17.52-3.91 18.59-10.31 1.65-17.56-16.21-29-6.08-31.8 3.49-1 3.78 7.17 12.62 10.18 3.24 1.09 8.72-1.27 6.94-6.52zm-125.25 65.87l-.32.34c-16.36-10.3-36.42-84.73 16.76-100 .3.43.14.19.42.61-37 31.34-23.89 87.48-16.86 99zm-45.21-27.69l-.32.29c-49.88-70-12-160.28 67.71-129.16l-.12.74c-82.59-5.85-81.52 97.93-67.27 128.12zm78.82-78.71c.09-.94.08-.7.11-1.43 4.79.26 8.34-5.28 17.75-5.19l1.89 8.63s3.37-.74 2.71-3.25l-4.42-5.39-.23-.28c-9.59-10.46-22.79-24.54-52.35-25.46a3 3 0 0 0-.18-.66c51.47-17.95 67.85 30 76.08 36.53a2.79 2.79 0 0 1-.26.29c-3.34 1.64-10.54.9-14.74-2.27-.59 1.86-1.89 4.81-4.28 6.14-1.38 2.34.42 7.35.42 7.35a1.42 1.42 0 0 1-.07.34c-9 .08-12.71-13.5-22.43-15.36zm15.16 28.11c17.61 5.44 30.68 40.23 54.47 42.36-24.77 7.61-51-39.81-54.46-42.37zm58.91 39.57c-23.77 2.33-42.41-39.57-47.05-42.5a1 1 0 0 0 .11-.29c20.45 7.35 22.55 33.84 46.94 42.78zm-126.85 129.4v-7.5l-2.62.8-.26-1.19 3.24-1.5h1.38v9.38h-1.74zm11 .2c-2.83 0-4.43-1.33-4.43-3.59a3.52 3.52 0 0 1 2.33-3.24 3.26 3.26 0 0 1-1.78-2.94c0-1.92 1.53-3.43 4.19-3.43s3.95 1.85 3.95 3.34a3.65 3.65 0 0 1-2 3 3.23 3.23 0 0 1 2.39 3.17c0 2.12-1.71 3.7-4.58 3.7zm-.51-6.15a2.86 2.86 0 0 0-2.11 2.47c0 1.52 1.24 2.28 2.74 2.28s2.66-.8 2.66-2.17c0-1.56-1.62-2.33-3.3-2.58zm1.18-1.23a2.92 2.92 0 0 0 1.7-2.39 2.26 2.26 0 0 0-4.48-.12c0 1.63 1.46 2.19 2.77 2.51zm11.3 7.38c-2.82 0-4.43-1.33-4.43-3.59a3.52 3.52 0 0 1 2.33-3.24 3.26 3.26 0 0 1-1.79-2.94c0-1.92 1.53-3.43 4.19-3.43s3.88 1.8 3.88 3.33a3.64 3.64 0 0 1-2 3 3.22 3.22 0 0 1 2.39 3.17c0 2.12-1.69 3.7-4.57 3.7zm-.51-6.15a2.86 2.86 0 0 0-2.11 2.47c0 1.52 1.23 2.28 2.74 2.28s2.66-.8 2.66-2.17c0-1.56-1.6-2.33-3.28-2.58zm1.17-1.23a2.91 2.91 0 0 0 1.7-2.39 2.26 2.26 0 0 0-4.49-.12c0 1.63 1.45 2.19 2.8 2.51zm7.15 2.48c0-2.88 1.69-4.86 4.25-4.86s4.23 2 4.23 4.86-1.7 4.84-4.27 4.84-4.21-1.91-4.21-4.84zm4.24-3.43c-1.6 0-2.39 1.35-2.39 3.35s.86 3.46 2.45 3.46 2.35-1.39 2.35-3.39-.89-3.37-2.41-3.37zM28.5 85.8l-5.94-16.59 4.45-1.6 4.9 13.76 7.6-2.72 1 2.85zm17.62-6.14l-5.21-16.85 12.7-3.92-.32 3.23-6.95 2.14 1.21 3.94 7-2.16.89 2.85-7 2.16 1.34 4.32 8.13-2.52.89 2.85zm19.25-5.77l-4.59-17 4.6-1.24 4.58 17zm22.68-5.26c-7.3 1.63-12.3-1.28-13.39-6.13s2.81-10 10.46-11.74a17.2 17.2 0 0 1 6-.4l.64 3.2a13.7 13.7 0 0 0-5.86 0c-5.27 1.18-6.93 4.51-6.27 7.49.72 3.32 4.05 5.32 8.46 4.32a14.29 14.29 0 0 0 5.3-2.42l1.82 2.22a17.69 17.69 0 0 1-7.17 3.46zm13.79-3.11l-3-17.39 13.07-2.23-.73 3.17L104 50.3l.7 4.07 7.2-1.24.51 3-7.16 1.24.76 4.43 8.36-1.43.5 3zm26.07-3.72a15.81 15.81 0 0 1-7.45-.76l1.51-2.85a11.5 11.5 0 0 0 5.38.71c1.66-.21 3.46-.91 3.3-2.24-.28-2.31-5.85-2-8.91-4.11a4 4 0 0 1-1.83-2.93c-.32-2.66 2.11-5.33 7.12-5.94a14.56 14.56 0 0 1 5.86.35l.32 3.14a13.79 13.79 0 0 0-5.58-.61c-1.69.2-2.93.95-2.8 2 .37 3 10.11 1.56 10.78 7.06.36 3.16-3.05 5.6-7.7 6.18zm29.64-17.67l-6.14.44 1.06 14.59-4.79.36-1.06-14.63-6.71.48-.22-3 18.69-1.35zm7.75 14.33l-.39-17.61 13.28-.31-1.18 3-7.27.17.1 4.11 7.3-.17.08 3-7.31.17.11 4.49 8.48-.2.07 3zm32.3 0c-3.36-4.67-4.69-6.68-5.52-6.95h-1.78l-.17 6.79-4.77-.12.47-17.62 6.66.17c6.12.16 8.28 2.55 8.22 5.28-.07 2.3-2.16 3.8-4.3 4.46 1.14.53 3.28 3.56 6.62 8.14zm-5.08-14.72h-2l-.13 5.11h2c2 0 3.55-1.08 3.59-2.6 0-1.36-1.2-2.45-3.46-2.51zm45.31 3.22l-6.12-.59-1.54 14.57-4.78-.57 1.52-14.53-6.68-.7.31-3 18.64 2zm5 15.52l2.56-17.45 4.71.69-2.55 17.44zm22.72 4.08c-7.14-1.37-10.66-6.09-9.72-10.94s6.82-8 14.52-6.54a25.5 25.5 0 0 1 6.59 2.18l-.7 3.24a16.57 16.57 0 0 0-5.88-2.39c-6-1.15-8.81 1.19-9.39 4.24-.64 3.33 1.65 6.67 6.33 7.57a11.93 11.93 0 0 0 3.39.22l1.12-5.8 4.68.91-1.43 7.4a24.59 24.59 0 0 1-9.51-.09zm16.43 3.22l4.27-17.11 12.89 3.22-1.94 2.6-7-1.76-1 4 7.08 1.78-.73 2.93-7.08-1.78-1.09 4.37 8.23 2-.73 2.91zm31.16 8.59c-2-5.39-2.76-7.69-3.5-8.16l-1.7-.51-2 6.5-4.57-1.38 5.16-16.89 6.38 1.89c5.86 1.78 7.32 4.65 6.53 7.26-.67 2.2-3.08 3.09-5.32 3.17.95.82 2.22 4.3 4.22 9.6zm-1-15.54l-1.93-.58-1.49 4.89 1.93.59c1.93.59 3.7-.11 4.14-1.57s-.49-2.68-2.65-3.34zm17.44 21.34a15.64 15.64 0 0 1-6.36-4l2.6-1.9a11.57 11.57 0 0 0 4.51 3c1.58.54 3.51.7 4-.57.76-2.2-4.37-4.4-6.21-7.61a4 4 0 0 1-.36-3.43c.88-2.53 4.24-3.85 9-2.21a14.64 14.64 0 0 1 5.1 2.9l-1.1 3a13.71 13.71 0 0 0-4.74-3c-1.61-.56-3-.43-3.38.53-1 2.88 8.39 5.84 6.59 11.08-1.07 3.06-5.23 3.75-9.65 2.21z" fill="#fff"/>
</svg>
