<svg viewBox="0 0 156.36 187.91">
  <path d="M149 .18v59c-.31.45 0 1.21-.13 1.75-.09 1.44-.13 2.65-.31 4a153.8 153.8 0 0 1-3.55 19.09l-.18.36a135.46 135.46 0 0 1-36.15 61.25 155.58 155.58 0 0 1-30 22.32c-.67.36-1.26-.31-1.89-.5-15-8.71-29.73-20.34-40.55-34.31a137.94 137.94 0 0 1-17.6-28.34 127.48 127.48 0 0 1-11.5-45.18 23.55 23.55 0 0 0-.09-2.52S6.51 22.57 6.83.17c0 0 142.12-.3 142.16.06z" fill="#231f20"/>
  <path fill="#fff" d="M70.78 11.56l.17.22h4.76l.18-.18-.02-3.45h4.25v3.41l.31.22 4.59.02.31-.29.01-3.36 3.44-.01v6.92H67.54V8.21h3.22l.02 3.35zm58.96-.45a3 3 0 0 1-.32 2.42c-1.75 2.2-4.45 2.78-7 3.23a5.18 5.18 0 0 0-1.66.09c-2.56-.13-5.57-.45-6.78-3.05a3.36 3.36 0 0 1 .9-2.87 13.1 13.1 0 0 1 13-1.71 4.36 4.36 0 0 1 1.93 1.89zm-88.02.9a3.29 3.29 0 0 1-.13 2.6c-2.6 3-7.19 2.51-10.73 1.84-2-.67-4.67-1.75-4.85-4.31a2.89 2.89 0 0 1 1.3-2.25 9.34 9.34 0 0 1 3.77-1.39c3.68-.4 7.81.27 10.42 3.05l.22.45z"/>
  <path d="M127.9 10.93a1.56 1.56 0 0 1 .5 1.44c-1.62 2.34-4.31 2.74-7 3.05-2.07-.09-4.22-.13-5.84-1.53a1.29 1.29 0 0 1 .13-1.84c2.38-2.07 5.3-2.56 8.62-2.33a9.5 9.5 0 0 1 3.55 1.21zm-88.15.85a2.22 2.22 0 0 1 .76 1.17 1.54 1.54 0 0 1-.54 1.35c-3.37 2-8.26 1.48-11.45-.49a3 3 0 0 1-1.17-1.53c.49-1.8 2.61-2.11 4.18-2.43a12.63 12.63 0 0 1 8.22 1.93z" fill="#231f20"/>
  <path d="M88.2 15.78l-1.35 1.17H69.34s-.85-.76-1.21-1.17H88.2zm52.45 2.15l-.22 1.44c.36.27.9.14 1.17.58a4.59 4.59 0 0 1-.4 3.68 7.86 7.86 0 0 0-1.3 1.89 34.56 34.56 0 0 1-6.83 8.67 1.06 1.06 0 0 0-.76-.94 10.64 10.64 0 0 0-2.43.18c.13-1.44 1.08-2.78.72-4.22a44.3 44.3 0 0 0 9.39-13.25c.67.4.63 1.35.67 2zm-122.59 2.2c2.11 3.28 4.13 6.51 7.19 9.21a19.46 19.46 0 0 0 .9 4.27c-.94-.18-2.2-.45-3.1.13l-.13.45c-1.12-.58-2-1.84-3.05-2.78-1.75-2.25-3.23-4.89-4.89-7.32l-.45-.22c-.31-1.35-.81-2.6-.09-3.91.27-.36.76 0 1-.45.13-1-.9-2.61.4-3.41.76 1.3 1.48 2.74 2.25 4zm68.55-2.59v5.83h-2.08v6.38l2.12 2.16v14.62l-2.16 1.89.11.42v6.35h-.94V50c0-1.73-.58-4.88-5.49-4.88-4.69 0-5.41 2.66-5.4 4.88v5.19h-.86v-6.67l-2.16-2.08V31.92l2.13-2v-6.47h-2.13l-.18-.22v-5.69h17z" fill="#fff"/>
  <path d="M140.43 19.95a54.32 54.32 0 0 1-7.32 11 9.65 9.65 0 0 1-2.25 1.89.33.33 0 0 1-.27-.27 28.2 28.2 0 0 0 6.42-7.81c1.12-1.66 2-3.32 3.05-5a.31.31 0 0 1 .36.27zm-124.48.09c2.78 4.45 5 9.25 9.34 12.62a.25.25 0 0 1-.18.27h-.22c-4.49-3.37-6.69-8.35-9.43-12.75-.13-.31.36-.4.49-.13zm62.96 2.47a1.07 1.07 0 0 1-.36 1c-.09 1.12 0 2.29 0 3.41a22.07 22.07 0 0 0 3.46 0 .88.88 0 0 1 1.17-.36 1 1 0 0 1 .31 1 .88.88 0 0 1-1.08.4l-.49-.45a26.58 26.58 0 0 0-3.28 0 29.71 29.71 0 0 0-.09 3.5.87.87 0 0 1 .36 1.08.79.79 0 0 1-.94.36.69.69 0 0 1-.45-.67 1.1 1.1 0 0 1 .49-.76v-3.5a18.29 18.29 0 0 0-3.5 0 .9.9 0 0 1-1 .4 1 1 0 0 1-.45-.72 1.11 1.11 0 0 1 .67-.81 1.85 1.85 0 0 1 .85.54h3.37l.13-.13v-3.32a1.5 1.5 0 0 1-.49-.9 1 1 0 0 1 .72-.58.82.82 0 0 1 .76.45z" fill="#231f20"/>
  <path d="M97.2 22.56a3.33 3.33 0 0 0-.09.94c-.45 0-.85-.67-1.26-.18-.22-.13.09-.27 0-.49a1.32 1.32 0 0 1 1.3-.27zm-37.11.36v.54a.72.72 0 0 0-.76-.18 1.88 1.88 0 0 1-.36.27 1 1 0 0 1-.22-.94 1.86 1.86 0 0 1 1.39.31zm48.5.72a14 14 0 0 0 2 1l1.17 1.48c.54-.18.9-.76 1.44-1a2 2 0 0 1 .54-.14c.18.32-.09.94.4 1.08.63-.09 1.17-.67 1.89-.58a.71.71 0 1 0 1.21.72c.49.18-.27.54.18.76a1.83 1.83 0 0 0 1.79 0c.59.58-.67 1.26.32 1.57a1.48 1.48 0 0 1 1 .18c.09.63-1 1-.4 1.53.72-.09 1.57-.4 2.11.4-.85.18-1.93.22-2.38 1.17l-.09.54c-.81.09-1.57 1.48-2.34.54a3.91 3.91 0 0 0-.45-.72 1.26 1.26 0 0 1-1.17-.31c-.72-.36.45-1.89-.72-1.44a15.28 15.28 0 0 0-2.11 4.49 3.34 3.34 0 0 0-1.21-.72 9.16 9.16 0 0 0 2-4.85.55.55 0 0 0-.23-.23c-.49.13-.49 1-1.12.9-.36-.4-.85-1.17-1.44-.81-.81 0-.45-1.53-1.26-.85a1.42 1.42 0 0 0 .58 1.17 1.94 1.94 0 0 0 1.21.27 3.35 3.35 0 0 1-1.53.4.27.27 0 0 0-.36 0c-.09.09-.22.27 0 .36a9.14 9.14 0 0 0 2.51.76.39.39 0 0 0 .27-.36l-.18-.36c.22 0 .4-.09.63 0 0 1.53-1.26 2.74-2.25 3.82a2.21 2.21 0 0 1 .23 2 1.52 1.52 0 0 1-1.8.72 2 2 0 0 1-1.21-.76 2.63 2.63 0 0 1 .31-1.75c.45-.49 1.17-.36 1.62-.81-.09-.76-.81 0-1.17-.13a2.08 2.08 0 0 0-1.3 2.16v.54c-1.48 2.25-2.69 4.58-4.18 6.78a1.14 1.14 0 0 0 .13 1.08 4.19 4.19 0 0 0 1.39 1 5.47 5.47 0 0 0 .94 4c.22.09.27-.18.36-.31-.09-.81-.4-2.16.45-2.69.63.4 1.17 1.17 1.93 1.26.85-.13 1.3-1.12 1.75-1.75a44.42 44.42 0 0 1 4.09-6.29c.67 0 .72-1.57 1.57-.76a1.45 1.45 0 0 0 1.53-.72 8.09 8.09 0 0 1 .54-3 4.49 4.49 0 0 1 2-1.8c.36.36-.49.31-.27.67a1.3 1.3 0 0 1 .85.67c.45 3.14-2.51 5.21-2.87 8.17-.58-.31-.58-1-1.17-1.21-.4.45.13.94.09 1.44a6.1 6.1 0 0 1-1.35 5.52 7.42 7.42 0 0 0 .13-4.22l-.27-.27c-.58.36 0 1.08-.09 1.71a5.48 5.48 0 0 1-1.89 4.8 6.65 6.65 0 0 0 0-1.66c-.09-.09-.22-.27-.36-.13a2.51 2.51 0 0 0-.18 1.44 4.29 4.29 0 0 1-1.84 2.6c-.18-.4.13-1.26-.45-1.48a.39.39 0 0 0-.36.36 3.9 3.9 0 0 1-1.21 4 5.31 5.31 0 0 1-2 1.08c.54-.94 1.21-2.07.36-3.05a.23.23 0 0 0-.32-.13c-.45.31.18.72.13 1.12a3.12 3.12 0 0 1-2 2.74l-.63.09a9.64 9.64 0 0 0 .58-3 .27.27 0 0 0-.4-.13c-.36 1.66-.5 3.91-2.47 4.4a3 3 0 0 0 .54-3.05c-.13-.49-.76-.76-.67-1.3a2.52 2.52 0 0 1 .63-1.3.5.5 0 0 0-.23-.45 1 1 0 0 0-.63.63c-.22.58-.63 1.44-.13 2l.6.6a2.48 2.48 0 0 1-2.16-.67c-.36-.31-.13-.72-.49-1a4.08 4.08 0 0 1 1.57-3.41.55.55 0 0 0-.18-.4A4.24 4.24 0 0 0 98.58 54c-.94-.94-.27-2.2-.09-3.28a2.49 2.49 0 0 1 1.84-1.8c.13-.13.45-.36.18-.54a2.28 2.28 0 0 0-1.39.4 3.54 3.54 0 0 0-1.08 1.57 2.86 2.86 0 0 1-.27-2.87c.36-1.71 2.2-2.38 3.05-3.73a.39.39 0 0 0-.22-.32h-.18a10.09 10.09 0 0 1-2.56 1.93c1.84-2.42 1.84-6.29 5.08-7.59.13-.09.36-.22.22-.4a1.93 1.93 0 0 0-1.44.36 6.94 6.94 0 0 1 2.61-3.1.3.3 0 0 0-.09-.4 2.42 2.42 0 0 1-1.57-.58c.94-1.21 2.51-1.84 3.23-3.14.09-.76-1.3-.49-.76-1.26.36-.72.54-1.84 1.57-1.89.4 0 .76.36 1.08 0 .09-.9-.4-2-.22-3 1.48 1 .76 2.6.9 4.13a9.54 9.54 0 0 0-1.08 3.37 1.26 1.26 0 0 0 .81.9c.27 0 .54.31.72 0s-.18-.4-.31-.49a.72.72 0 0 1-.63-.49 13.71 13.71 0 0 1 1.08-3.32c-.23-1.26.49-2.34-.14-3.37-.49-.58-1.26-1.26-.94-2a2.11 2.11 0 0 1 .63.63zm-8.8.67c-.54-.31-1.71.13-1.71-.67l.18-.58a2.16 2.16 0 0 1 1.53 1.26zm-51.83-.47c-.54 1-1.75 1.89-1.12 3.23-.09.58.09 1.21 0 1.71.58.94 1.3 2.16.94 3.32-.18.31-1.08.23-.67.76a1.11 1.11 0 0 0 .9-.18c1-1 .13-2.29-.13-3.37-.85-.58-.22-1.8-.54-2.52-.36-1 .4-1.62.94-2.25.09.81-.23 2-.23 2.83.36.4.9 0 1.35.09 1.12.22 1 1.48 1.57 2.11a5.61 5.61 0 0 1-1 .72c.49 1.62 2.47 2 3.23 3.41a2 2 0 0 1-1.53.54.49.49 0 0 0 0 .49 7.44 7.44 0 0 1 2.65 3 1.92 1.92 0 0 0-1.53-.31c.13.63.81.49 1.21.85 2.52 1.75 2.43 4.9 4.27 7.05-1.26.09-1.66-1.53-2.83-1.89a.41.41 0 0 0-.27.27c.94 1.26 2.43 2.11 3 3.55.27 1 .54 2.2-.09 3.05a3.77 3.77 0 0 0-2.56-2c-.18.09-.36.31-.18.45 1.53.31 2.29 1.93 2.56 3.28a2.56 2.56 0 0 1-.54 2.16 2.64 2.64 0 0 1-.13-1.08 3.44 3.44 0 0 0-1.84-2.69.21.21 0 0 0-.27.18c0 .54.72.54.9 1.08a3.51 3.51 0 0 1 .67 2.69c-.31.31-.22.72-.54 1a3.77 3.77 0 0 1-2 .58c.13-.4.54-.76.67-1.21a2.27 2.27 0 0 0-.85-2.2c-.85.31.36.85.32 1.39.27 1.12-1.17 1.53-.85 2.69a3.37 3.37 0 0 0 .67 2c-1.89-.36-2-2.65-2.34-4.27a.25.25 0 0 0-.4 0l-.13.13a12.57 12.57 0 0 0 .67 2.92 2.48 2.48 0 0 1-1.8-.72 5.73 5.73 0 0 1-.94-2c-.09-.45.72-.9.09-1.21-.63.14-.4.94-.63 1.35 0 .72.54 1.12.67 1.75a4 4 0 0 1-2.25-1.44 4.62 4.62 0 0 1-1-3.82.28.28 0 0 0-.36-.09 2.68 2.68 0 0 0-.22 1.35c-.63-.09-.85-.72-1.39-1.08a5 5 0 0 1-.58-2.74c-.13-.09-.27-.22-.4-.09-.45.58.22 1.17 0 1.84a8.38 8.38 0 0 1-1.48-2 6.12 6.12 0 0 1-.22-4 .44.44 0 0 0-.27-.54 1.54 1.54 0 0 0-.4 1.26 5.55 5.55 0 0 0 .31 3.19 5.91 5.91 0 0 1-1.57-4.67c-.18-.85.63-1.53 0-2.29-.58.18-.23.9-.85 1.17l-.13.09c-.31-3-3.68-5.17-2.74-8.4.13-.4.85-.14.63-.67a.44.44 0 0 1-.27-.36c.18-.18.4 0 .58.09a4.48 4.48 0 0 1 1.89 3.05c.09.72-.13 1.62.63 2.07.58.45 1.71-.45 1.93.36.9.54 1.3 1.62 2 2.29 1.62 1.93 2.38 4.27 4 6.15.94.45 1.66-.54 2.38-1.08.45 0 .45.54.63.85a8.68 8.68 0 0 1-.18 1.89.34.34 0 0 0 .4.18 5.7 5.7 0 0 0 1-3.91c.54-.54 1.84-.9 1.48-1.84v-.36c-1.44-2.29-2.78-4.49-4.18-6.78a2.71 2.71 0 0 0-.67-2.2 1.67 1.67 0 0 0-1.84-.31c.09.58.81.31 1.17.54a2.16 2.16 0 0 1 .85 1.62 1.27 1.27 0 0 1-.85 1.08 1.72 1.72 0 0 1-1.8 0 1.65 1.65 0 0 1-.49-1.66 1.47 1.47 0 0 0 .22-1 6.24 6.24 0 0 1-2.25-3.55 1.65 1.65 0 0 1 .72-.09.83.83 0 0 0-.18.58l.27.18c.81-.32 1.89-.22 2.56-.9a.34.34 0 0 0-.22-.31 6.35 6.35 0 0 1-1.8-.22c.22-.27.85 0 1.21-.36a1.13 1.13 0 0 0 .4-1.21.3.3 0 0 0-.31-.18c-.27.36-.23.9-.72 1a1.27 1.27 0 0 0-1 .13c-.36.22-.31.94-.85.67s-.54-1.08-1-.76l-.09.09c.58 1.71.9 3.5 2.25 4.81a1.56 1.56 0 0 1-.63.27l-.58.45a7.88 7.88 0 0 1-.72-1.89 9.2 9.2 0 0 0-1.71-2.65.3.3 0 0 0-.45.13c0 .49.49.9 0 1.35a2.07 2.07 0 0 1-1.35.49 1.46 1.46 0 0 1-.76.94c-.81-.22-1.93-.58-2.16-1.48a2.6 2.6 0 0 0-2.25-1 1.78 1.78 0 0 1 .85-.63c.58-.09 1.12.45 1.48-.13-.09-.54-.72-.85-.58-1.39a1.59 1.59 0 0 0 1.3-.27c.09-.45-.4-1 0-1.39a2.22 2.22 0 0 0 1.53.22.68.68 0 0 0 .27-.94c.36 0 .54.58.94.4a1.33 1.33 0 0 0 .36-1.12 3.28 3.28 0 0 1 1.8.58.79.79 0 0 0 .54-.58.48.48 0 0 1 .13-.49c.85 0 1.21 1.21 2 1l1.08-1.44a4.45 4.45 0 0 0 2.47-1.57.61.61 0 0 1 .09.76zm9.84.2l-.09.09-1.66.27c.18-.67 2.11-2.25 1.75-.36z" fill="#f7b729"/>
  <path d="M93.74 23.92v2.92h3.5a.85.85 0 0 0 .81.22 7.82 7.82 0 0 1 .54 2.4H85.16v-5.52h2.04v2.62l.25.25h3.37l.18-.18v-2.78h2.75zm-28.54 0v2.8l.18.15h3.46l.22-.36v-2.48h2.19v5.51h-14v-.13a4.19 4.19 0 0 1 .63-2.2c.31-.09 1-.31 1-.31h3.46l.22-.36v-2.59h2.64z" fill="#fff"/>
  <path d="M58.65 24.67l-.45-.09.27-.67c.27 0 .22.54.18.76z" fill="#f7b729"/>
  <path d="M141.69 27.27a6.6 6.6 0 0 1-.4 1.35l.09.27-.27.09a24.11 24.11 0 0 1-8.22 8.53 2.29 2.29 0 0 1-.31 2 8.62 8.62 0 0 1-2.43 1.66.35.35 0 0 0 .27.36 4.29 4.29 0 0 0 3.14-2.65v-1.12a24.12 24.12 0 0 0 7.9-8.31l.13.09a9 9 0 0 1-1.57 5.61 2.48 2.48 0 0 1 .5 2.47 12.85 12.85 0 0 1-1.17 2.52c.85 1.39 0 3-.9 4.18a19.86 19.86 0 0 1-2.56 2.25 1.91 1.91 0 0 1 .18 1.57 12.75 12.75 0 0 1-3 3.28c0 .58.81.63.9 1.17a4.15 4.15 0 0 1-2.42 2.56 7.8 7.8 0 0 0 .58 1.26 2.17 2.17 0 0 1-1.62 1.17.26.26 0 0 0-.09.45l.49.13a3.25 3.25 0 0 1-1.48 1.62 3 3 0 0 0-1.26.4 1.15 1.15 0 0 0 .9.94 2.44 2.44 0 0 1-2.11 1.35c-.22 0-.54-.22-.67.09a2.77 2.77 0 0 0 .72.9c-.72.81-2.07.67-3.05.58-.27.13-.13.4.09.54a7.82 7.82 0 0 1 .81.49 1.93 1.93 0 0 1-2.16 1c-.45 0-.94-.45-1.35-.13a8.14 8.14 0 0 0 .49 1.48c-.58.72-1.75.36-2.51.18-.45.22.09.49.13.67l.22.23a2.12 2.12 0 0 1-2.11.31c-.45 0-.76-.76-1.21-.45 0 .4 0 1.12-.63.94a2 2 0 0 1-1.71-.81c-.31-.27-.18-1.12-.76-.85a2.33 2.33 0 0 0-.13.76 1.93 1.93 0 0 1-1.71-1 12.29 12.29 0 0 1-.81-4.31 1.69 1.69 0 0 1 0-.94 1 1 0 0 0 1.21 0c0-.54-.63-.23-.9-.45h-.4c-.85-1.17-2.2-2.74-1.21-4.31s2.74-1.66 4.49-1.57a3.93 3.93 0 0 0 4-1.17c.09-.45.67-.58.81-1a6.65 6.65 0 0 0 1.66-5.84c-.09-2.6-.72-5.7.22-8.13a7.45 7.45 0 0 1 2.16-2.42 73.65 73.65 0 0 0 6.11-6.38c.5-.49.9-1.21 1.39-1.71a14.3 14.3 0 0 1-4.67 9.21c-1.48 1.48-3 2.87-4.54 4.18-.09.18.13.27.22.36.54 0 .76-.9 1.35-.49a1.8 1.8 0 0 1 .49 2 6.64 6.64 0 0 1-.85 1.57c.22.45.76.54.85 1.08a3 3 0 0 1-.54 2.43 2.73 2.73 0 0 1-.4 2.56 10.41 10.41 0 0 0-1.35 1 .44.44 0 0 0 .36.27 1.06 1.06 0 0 1 .49-.09 3.65 3.65 0 0 1-1.62 2.69c-.45.27-.94-.36-1.3.13.18.4.72.54.27.94a2.66 2.66 0 0 1-2.74 1.08 1.49 1.49 0 0 0-.76-.09c-.18.4 0 1-.63 1.17-.81.18-1.44-.72-2.11-.18a1.11 1.11 0 0 1-1.3.31.83.83 0 0 0-.76-.22c-.22.18 0 .36.18.49a1.87 1.87 0 0 0 1.75.27.91.91 0 0 1 1.21-.18 1.76 1.76 0 0 0 1.75-.31 1.11 1.11 0 0 0 .36-.72 3.78 3.78 0 0 0 3.1-.72l.85-1.3c1.62-.54 2.25-2.29 2.42-3.86 1.44-.94.45-3 1.3-4.18a3.05 3.05 0 0 0-.58-2.65 4.17 4.17 0 0 0 .76-2.38c3.32-2.38 7.19-4.45 8.94-8.35 3.91-2.74 6.33-7.23 8.76-11 .54.81.36 2.25.18 3.19zM23.36 35.49c1.66 3.68 5.75 6 8.85 8.22a3.7 3.7 0 0 0 .76 2.29 2.69 2.69 0 0 0-.63 2.69c.72.67.36 1.62.45 2.38-.18 1.12 1.39 1.44 1.08 2.6a4.1 4.1 0 0 0 2.25 3.05c.58.85 1.48 2 2.65 2h1.21a1.72 1.72 0 0 0 1.66 1.12 3.21 3.21 0 0 0 1.17-.31 2 2 0 0 0 2 .36.93.93 0 0 0 .63-.45c-.18-.94-.76.23-1.26 0-.67 0-1-.85-1.62-.54a1.66 1.66 0 0 1-1.57.18c-.31-.31-.22-.76-.54-1.08a3.3 3.3 0 0 1-2.83-.36 2.49 2.49 0 0 1-.76-1 1.75 1.75 0 0 0 .4-.4c0-.13-.13-.22-.22-.27a1.73 1.73 0 0 1-1.17 0 3.55 3.55 0 0 1-1.44-2.47l.09-.18a.66.66 0 0 0 .49.09l.23-.27c-.72-.54-1.75-1.08-1.84-2.11a9.44 9.44 0 0 1 0-1.57 2.83 2.83 0 0 1-.63-2c0-.81 1.08-.85.9-1.62a2.55 2.55 0 0 1-.81-2.6 2.43 2.43 0 0 1 .81-.85c.45 0 .81 1.12 1.26.36-3.32-3.19-7.72-6.24-8.71-10.82-.31-.85-.31-1.75-.63-2.6l.09-.09a68.57 68.57 0 0 0 9.3 9.79c1.21 1.89.85 3.86.9 6.11a7.89 7.89 0 0 0-.13 1.84c.09 1-.4 2.07 0 3.1-.09 2.42 2 4.18 3.68 5.66 1.89.9 4.31-.45 6.2.72a2.69 2.69 0 0 1 1.35 2.78 9.24 9.24 0 0 1-1.58 2.6 1.85 1.85 0 0 0-1.3.22c0 .27.27.36.45.4l.81-.18a13.11 13.11 0 0 1-.22 3.23c-.18 1.21-.54 2.51-1.84 3.05-.58.18-.27-1-.94-.76a2.15 2.15 0 0 1-1.53 1.62 2.92 2.92 0 0 1-1.26-.13c-.09-.31.13-.72-.27-.9-.72.49-1.62 1.08-2.52.58l-.45-.27a1.07 1.07 0 0 0 .45-.76l-.13-.18c-.81 0-1.84.67-2.47 0 0-.54.81-1.21.22-1.75a2.63 2.63 0 0 1-2.69 0l-.58-.67a3.6 3.6 0 0 0 1-.81.36.36 0 0 0-.58-.18 3.3 3.3 0 0 1-2.6-.58 2.26 2.26 0 0 0 .67-.9c-.22-.49-.54 0-.85-.13a2.68 2.68 0 0 1-1.93-1.3 1.41 1.41 0 0 0 .81-.94 4.17 4.17 0 0 0-1.17-.45 2.76 2.76 0 0 1-1.44-1.66.52.52 0 0 0 .54-.22c0-.49-.67-.36-1-.54-.31-.49-1.21-.9-.49-1.53a.77.77 0 0 0 .27-.67 3.93 3.93 0 0 1-2.38-2.6c0-.67 1.21-.63.54-1.3-1-1.3-3.1-2.25-2.83-4.18a.49.49 0 0 0-.09-.81c-2-1.35-3.77-3.46-3.28-5.84l.09-.27c-.67-1.48-2-3.37-.58-5 .13-.36-.36-.45-.4-.76a7.87 7.87 0 0 1-1.21-4.49l.14-.4a26.4 26.4 0 0 0 7.9 8.17 4.37 4.37 0 0 0 .54 2 4.74 4.74 0 0 0 2.78 1.84l.18-.31c-.94-.72-2.51-1.17-2.87-2.56.49-1.8-1.66-2-2.43-3.1-2.47-1.71-4.13-4.31-5.93-6.65a12.59 12.59 0 0 1-.45-4.54l.27-.4c2.42 4.09 5.07 8.4 9 11.32z" fill="#fff"/>
  <path d="M57.66 24.84a1.11 1.11 0 0 1-.94.09 1.38 1.38 0 0 1 .94-.09zm39.21 1.09c-.36.13-.94-.22-1.21.36a.69.69 0 0 1 .13-.9l.94-.36.13.9zm-36.47-.09a.42.42 0 0 1-.13.54 1.18 1.18 0 0 0-.63-.45 1.25 1.25 0 0 1-.58.13l.18-.94a1.44 1.44 0 0 1 1.17.72zm-2.33-.5a2.57 2.57 0 0 0 0 1.17c-.36 0-.94-.45-1.26 0a.8.8 0 0 0 .4.54 8.82 8.82 0 0 0-.63 2.6 44.26 44.26 0 0 0 1.08 4.36.81.81 0 0 0-.4.27 21.9 21.9 0 0 0 1.26 3.77c-.9-.18-.4 1.08-.72 1.57a10 10 0 0 1 .13 2.33l-.4 1a23.4 23.4 0 0 0-2.43-4.54c-.36-.85.09-1.89.09-2.87 0-2.11-.49-4-.31-6 .09-1.26.36-2.38.49-3.59.72-.54 1.84-.27 2.65-.58zm42.3.41a21.83 21.83 0 0 1 .27 9.21 5.89 5.89 0 0 0 .36 2.38c.27 1.3-1.08 1.84-1.39 2.92-.49.81-.67 1.93-1.17 2.6-1-1.53.09-3.32-.67-4.89a.4.4 0 0 0-.4-.09c.4-1.26 1.17-2.38 1.21-3.73 0-.22-.18-.18-.32-.22.49-2.11 1.48-4.67.4-7a.56.56 0 0 0 .18-.67c-.36-.22-.63.27-1 .18v-1.1a9.82 9.82 0 0 1 2.51.4z" fill="#f7b729"/>
  <path d="M98.5 30.04a1.46 1.46 0 0 0-.05.74l-.58.45h-11l-1.36-1.19h13zm-29.11 1.23H58.5a7.44 7.44 0 0 1-1.19-1.14H70.6l-1.21 1.12z" fill="#fff"/>
  <path d="M123.09 31a2.81 2.81 0 0 1-1.89 2.34c-.32-.13-.72.36-.81-.22s1.21-.18.85-1a1.11 1.11 0 0 0-.76 0c.36-.81 1.35-.9 2.2-.85.18-.09.13-.45.4-.27zm-87.89.84l.27.36c-.27.14-.72-.22-.85.22s.36.22.54.45c.18 0 .36 0 .4.13s.14.58-.18.58A3.38 3.38 0 0 1 33 31.83a1 1 0 0 1 0-.63c.67.45 1.57 0 2.2.63zm80.84.82c-.4.22-.94-.27-1.35.13a8 8 0 0 0 1.93 2.16.36.36 0 0 0 .27-.4c-.58-.31-.23-1.12-.32-1.66.32-.09.36.4.67.58l.54.31a4.38 4.38 0 0 0-1 3.5.68.68 0 0 1-.5.67.8.8 0 0 1-1-.45 2.27 2.27 0 0 0-.23-1.48c-.67.18-.18 1.21-.4 1.75a1.83 1.83 0 0 1-.81 1 2 2 0 0 1-1.44-.09 1.78 1.78 0 0 1-.81-1.84c.27-.94 1.57-.63 1.75-1.57.67-.67.63-1.75 1.12-2.51l.54-1.08a2.63 2.63 0 0 0 1 .94z" fill="#f7b729"/>
  <path d="M97.65 31.76v4a10.85 10.85 0 0 0-1.17 3.5c.27.27.54 0 .81-.09 0 0 0-.22.18-.18.09 1.21-.18 2.6.22 3.77-.18.72.36 1.84-.45 2.16a1.73 1.73 0 0 0-.85.45.67.67 0 0 0 .58.54c.27 0 .81-.09.67.31a.65.65 0 0 1-.05.21H87.31V31.75h10.36zm-28.54.08v14.64H58.79c-.36-.9.94-.27.9-1a2.07 2.07 0 0 0-1-.39v-5.77s.76.31.9-.18a14.9 14.9 0 0 0-.91-2.15v-5.15h10.38z" fill="#fff"/>
  <path d="M42.31 35.18a1.13 1.13 0 0 1 .45.67c.63.45 1.84.54 1.66 1.57a2.07 2.07 0 0 1-1.21 1.57 1.69 1.69 0 0 1-1.53-.4c-.54-.67-.22-1.75-.76-2.42-.18-.09-.27.13-.36.22a3.59 3.59 0 0 1 .09 1.39 1.18 1.18 0 0 1-1.08.27c-.72-.63-.27-1.66-.58-2.42a4.43 4.43 0 0 0-.81-1.66 1.73 1.73 0 0 0 1-1h.13c-.13.54.31 1.3-.27 1.62a.28.28 0 0 0 0 .36c.63.09 1.17-.67 1.53-1.17.18-.27.76-.54.49-.9s-.67.18-1.12-.09a3.77 3.77 0 0 0 .94-.94 12.55 12.55 0 0 1 1.35 3.32z" fill="#f7b729"/>
  <path d="M132.44 34.05c-1 4.22-5.61 6.24-8.71 8.76-.4-.18-.4-.85-1-1v-.13c2.56-2.11 5.43-4.85 6.87-7.77a1.63 1.63 0 0 0 1.3-.18c.49.22 1.17-.27 1.53.31zm-106.08.05c1.35 3.05 4.36 5.52 6.83 7.77l-.9 1.17a37.28 37.28 0 0 1-4-2.78l-2.6-2.25a8.05 8.05 0 0 1-2.2-3.82c.9-.67 1.93.18 2.83-.09z" fill="#fff"/>
  <path d="M112.63 35.36l-1 .49-.09-1.12a2 2 0 0 1 1.12.63zm-68.3.54l-.94-.4c.09-.45.72-.4 1-.67a2.85 2.85 0 0 1-.09 1.08z" fill="#f7b729"/>
  <path d="M93.05 35.54a.71.71 0 0 1-.31.67v2.11a10.37 10.37 0 0 0 2.38.09.65.65 0 0 1 .85-.18.75.75 0 0 1 .09.94.57.57 0 0 1-.81 0c-.09-.4-.54-.22-.76-.27-.58.18-2.11-.54-1.8.76.18.63-.27 1.48.36 1.93a.63.63 0 0 1-.36.81.61.61 0 0 1-.72-.4.83.83 0 0 1 .27-.81 18 18 0 0 0-.09-2.25h-2.11a.73.73 0 0 1-1.08.27.68.68 0 0 1 0-.9c.36-.4.67.09 1 .18.76-.22 2.33.58 2.25-.67 0-.72.18-1.57-.31-2.06a.7.7 0 0 1 .23-.63c.36-.31.81.09.9.45zm-28.56.04a.79.79 0 0 1-.31.63 17.53 17.53 0 0 0 0 2.16 7.27 7.27 0 0 0 2.42.09.72.72 0 0 1 1 0 .75.75 0 0 1-.31.9.67.67 0 0 1-.76-.4h-2.29a10.17 10.17 0 0 0 0 2.34.54.54 0 0 1 .27.63.79.79 0 0 1-.36.54.78.78 0 0 1-.76-.67c.58-.72.27-2.07.31-2.78a9.4 9.4 0 0 0-2.25 0 .66.66 0 0 1-.9.31 1.2 1.2 0 0 1-.31-.63.63.63 0 0 1 .49-.45.91.91 0 0 1 .67.27h2.2c.09-.9.36-1.93-.22-2.69a1.42 1.42 0 0 1 .49-.76 1 1 0 0 1 .67.58zm74.41 1.03a20.72 20.72 0 0 1-6 4.94c.13.27.72.4.49.81a11.56 11.56 0 0 1-3.37 3.23 9.89 9.89 0 0 1 1.75 1.3v.27c-.45.36-.94.63-1.35 1 .49.27 1.3 0 2 .14a11.47 11.47 0 0 0 1.66-.45c.54-.27 1-.76 1.62-1a.38.38 0 0 1 0 .58 8.9 8.9 0 0 1-2 1.12 24.75 24.75 0 0 1-4.49.18.35.35 0 0 1-.13-.31c.63-.54 1.39-.81 2-1.39a5.57 5.57 0 0 1-1.26-1.26c-1.53 1-3.23 1.66-4.85 2.56a.49.49 0 0 1-.49-.22v-.18c2.92-1.48 6.24-2.74 8.26-5.66l-.72-.67c.85-.85 2.11-1.3 3-2.07 1.12-1.12 2.65-1.8 3.59-3.23a.25.25 0 0 1 .31.31zM19.27 38.46c1.48 1.21 3.1 2.11 4.63 3.23 0 .45-.54.45-.76.76 2.2 2.92 5.43 4.09 8.4 5.75a.3.3 0 0 1-.18.27 30.09 30.09 0 0 1-5.25-2.6c.09.67-.85.85-1.21 1.3.67.58 1.39.9 2 1.39a.23.23 0 0 1-.13.36c-2.34 0-5.07.27-6.6-1.57a.2.2 0 0 1 .18-.27c.4-.09.49.36.81.49a6.25 6.25 0 0 0 4.4.76c-.45-.49-1.08-.63-1.44-1.12a6.19 6.19 0 0 1 1.8-1.44c-1.26-1-2.78-2-3.46-3.46a1.16 1.16 0 0 1 .63-.49c-2.16-1.57-4.45-2.83-6.11-5.12a.27.27 0 0 1 .4-.13l1.89 1.89z" fill="#231f20"/>
  <path d="M107.6 37.33c-1.21 1.8-2 3.73-3.46 5.43a1.36 1.36 0 0 0 0 .94 1.1 1.1 0 0 0 .85.67v.18a2.16 2.16 0 0 1-1.3-1c.36-1.26 1.53-2.16 2-3.32a23.2 23.2 0 0 1 2-3.23v.36zm-55.4 5.71a.89.89 0 0 1 0 .94c-.36.14-.67.72-1.08.58a2.12 2.12 0 0 0 .94-.94c-.18-1.26-1.26-2-1.75-3.1a24.52 24.52 0 0 1-1.93-3.5c1.3 1.89 2.43 4 3.86 6z" fill="#f7b729"/>
  <path d="M111.37 39.53a17.91 17.91 0 0 1-3.68 4.36c-.81.94-2.07 1.71-2.43 2.83-.4-1.62.72-3 1.53-4.27.67-1 1.53-1.93 1.53-3.19a2.1 2.1 0 0 1 1.08-1.62 1.42 1.42 0 0 0 .63 0c-1.21.85-.45 2.38-1.35 3.32-.22.22-.76.49-.63.85a.3.3 0 0 0 .49.09c1.8-.9.54-3.14 2.16-4.09-.18-.32 0-.45.27-.63-.18.9 1.17 1.44.4 2.29zm-66.01-1.88c-.4.54.58.85.72 1.3.36 1.12.13 2.74 1.57 3.19.54-.54-.45-.76-.54-1.21-.63-.81.09-2.15-.9-2.78l-.27-.36c.4 0 1.08-.18 1.21.4.81.94.36 2.29 1.26 3.23a20.73 20.73 0 0 1 2.38 3.91 8.75 8.75 0 0 1 0 1.53l-.54-.9c-2.11-2.2-4.63-4.22-5.88-6.87a3.94 3.94 0 0 0 .63-1.71c.09.13.27.13.36.27z" fill="#e9364f"/>
  <path d="M107.6 40.12a20.46 20.46 0 0 1-1.84 2.69c0-.22.18-.76-.27-.85l2.07-3.37a2.22 2.22 0 0 1 0 1.53zm-57.12 1.93c-.4 0-.31.58-.27.85-.76-1.21-2.38-2.6-1.84-4.22.9 1 1.26 2.29 2.11 3.37zm62.72-2.56c-1.62 2.25-2.92 4.67-4.44 6.92-.4.54-.85.27-1.21-.09a.3.3 0 0 0-.18-.22 1.3 1.3 0 0 0 1.08.09l.49-.36c1.44-2.11 2.42-4.27 4-6.33h.26zm-70.09.13c1.48 1.89 2.47 4.18 3.86 6.11a1.21 1.21 0 0 0 1.44.54l.22-.13a1.34 1.34 0 0 1-1.12.67c-1.84-2.2-2.83-4.94-4.76-7.1 0-.13.22-.18.36-.09z" fill="#f7b729"/>
  <path d="M139.13 40.75v.27a19.62 19.62 0 0 1-6.06 4 .4.4 0 0 1-.36-.22v-.13a24.25 24.25 0 0 0 6.11-4 .22.22 0 0 1 .27.14zm-121.93.09a24.35 24.35 0 0 0 5.84 3.86.23.23 0 0 1-.22.36c-2.29-.67-4.18-2.47-6.06-4l.09-.31.35.09zm96.69 1.34c.13 1.48-.54 2.74-.9 4.09a4 4 0 0 1-2.2 1.84 3.84 3.84 0 0 1-2.6 1.8c0-.13-.18-.27 0-.4.9-.54 2.25-1 2.43-2.25.36-.36-.23-1.35.49-1.3a1.65 1.65 0 0 1 0 1.3 1.76 1.76 0 0 0 1.12-.94 8.39 8.39 0 0 0 1.17-4.49.32.32 0 0 1 0-.4c0-.13.18-.18.31-.09a4.77 4.77 0 0 1 .18.85zm-71.27-.49c-.14 2.25.36 4.49 2.15 5.75.4-.45-.49-1.3.36-1.35a4.85 4.85 0 0 0 1.12 2.56 17.47 17.47 0 0 0 1.62 1.12c-.09.13-.13.27-.32.22a7.23 7.23 0 0 1-2.69-2c-2.47-1.17-2.87-4.13-2.7-6.51.13-.13.49-.09.45.18z" fill="#231f20"/>
  <path d="M110.48 42.09a15 15 0 0 1-1.53 2.51 1.25 1.25 0 0 0-.09-.9c.72-.63 1.21-1.53 1.93-2.25 0 .27-.36.36-.31.63zM47.2 43.84c-.49.22 0 .54-.09.9a20 20 0 0 1-1.89-3.14c.67.81 1.3 1.53 2 2.25z" fill="#f7b729"/>
  <path d="M129.7 42.18a1.28 1.28 0 0 1-.76.9 43.56 43.56 0 0 1-4.49 2.42.26.26 0 0 1-.31-.22v-.13a28.56 28.56 0 0 0 5.25-3.14.34.34 0 0 1 .31.18zm-97.86 3.15a.24.24 0 0 1-.18.31l-.72-.18a40 40 0 0 1-4.44-2.62c0-.18-.45-.54 0-.63a37.11 37.11 0 0 0 5.34 3.14zm70.78-1.75c-.63.94-1.35 2.11-.72 3.23a17.42 17.42 0 0 1 1.26 1.44.79.79 0 0 1-.63.09c-.31.54 1.26 1.39 0 1.26a2.69 2.69 0 0 1-.58-1.26c.4-.76-.9-1.21-.67-2.07a3.58 3.58 0 0 1 1-3 .25.25 0 0 1 .31.31zm-48.37.58c.41.94 1 2.33.14 3.28-.58.67-.18 1.89-1.12 2.34a.37.37 0 0 1-.36-.22c.13-.4.72-.58.63-1.12-.22 0-.63.14-.72-.18a4.57 4.57 0 0 0 1.53-1.93 4.39 4.39 0 0 0-1.12-2.74c.31-.63.81.31 1 .58z" fill="#231f20"/>
  <path d="M82.99 50.01v5.19h-.93v-5.19c0-1.38-.54-3.46-3.88-3.46-3 0-3.87 1.6-3.87 3.46v5.19h-.93v-5.19c0-3.27 2.3-4.27 4.81-4.27S83 46.93 83 50.01zm14.28-2.98l-.36 1.15-11.14.02 1.35-1.17h10.15zm-26.55 1.25l-11.71-.03-.14-1.17h10.51l1.34 1.2z" fill="#fff"/>
  <path d="M107.11 48.69a1 1 0 0 1-.27.85.36.36 0 0 1-.4.09c-.31-.4.54-.67.22-1.21.23-.22.45 0 .45.27zm-57.91 0c0 .45.81.72.31 1.08a1.31 1.31 0 0 1-.76-1.08c0-.27.49-.4.45 0z" fill="#231f20"/>
  <path d="M96.96 48.84c-.13 1.21.94 2 .63 3.19a2.68 2.68 0 0 0 .54 2.42c.22.31.58.23.76.54l-.31.18H85.2v-6.33h11.78zm-25.61 0v6.32H56.99a10.68 10.68 0 0 0 1.35-1.3c.4-1.08-.4-2.34.4-3.32a9.94 9.94 0 0 0 .29-1.7h12.32z" fill="#fff"/>
  <path d="M129.88 50.22a.39.39 0 0 1-.18.58 9.4 9.4 0 0 1-6.29 2.16.41.41 0 0 1-.13-.31 4.87 4.87 0 0 1 1.62-.22 7.51 7.51 0 0 0 4.31-2.07 4.79 4.79 0 0 1-1.39-.85c.22-.54.81 0 1.21.09l.85.63zm-101.81-.31a2.73 2.73 0 0 0-1.21.72 8.09 8.09 0 0 0 5.7 2c.13.09.31.31 0 .45a8.81 8.81 0 0 1-5.84-1.75 2.94 2.94 0 0 1-.67-.9 4.34 4.34 0 0 1 1.84-1 .29.29 0 0 1 .13.45zm98.48-.27c0 .27-.32.31-.45.45-.9 0-1.71.49-2.56.31a.28.28 0 0 1 0-.27c1-.18 2-.49 2.92-.63l.13.13zm-94.08.63a.31.31 0 0 1-.27.45 18.25 18.25 0 0 1-2.69-.67.2.2 0 0 1 0-.36c1 .27 1.93.31 2.92.58zm72.8.57a1.39 1.39 0 0 0-.27 1.3.37.37 0 0 1 .09.49c-.09.09-.22.18-.31.09a1.91 1.91 0 0 1-.27-1.57c.13-.18.49-.85.76-.31zm-53.71.55c-.18.49.18 1-.36 1.35h-.31a2.29 2.29 0 0 0 .09-1.35c-.18-.18-.54-.49-.18-.63a1 1 0 0 1 .76.67z" fill="#231f20"/>
  <path d="M113.44 52.69a6.52 6.52 0 0 0 0 2.47c-1.71.18-3.55.18-4.54 1.75a3.62 3.62 0 0 0 0 3.19l1.17 1.84c.09 2.6 0 5.39 2.16 7a1.57 1.57 0 0 0 1.35 0 2.91 2.91 0 0 0 2.83.94.77.77 0 0 0 .63-.58c.76 0 1 .85 1.26 1.35a14.61 14.61 0 0 1 1.17 6c.22.9 0 2.11.22 3 .22 2.33 0 4.63.45 6.87.13 1.66.81 3.59 2.56 4.4a3.53 3.53 0 0 0 3 0c1.08-.85 1.12-2.2 1.08-3.46a14 14 0 0 0-.94-3.64 21 21 0 0 1-2.47-10 8.42 8.42 0 0 1 3.19-5.25c3.68-2.6 9.21-2 11.54-6.51a2.65 2.65 0 0 0 .4-1.57 1.84 1.84 0 0 1 1.12 1 5.65 5.65 0 0 1-1.89 6.15c-1.21.9-2.61 1.48-3.86 2.25a6.65 6.65 0 0 1-.45 4.58 2.54 2.54 0 0 1-1.62 1.35c.13-1.93-.09-4.27-1.89-5.3a4 4 0 0 0-3.28.4c-2.65 2.16-2 6.42-1.08 9.25 1.12 2.74 2.42 5.48 2.42 8.58a3.85 3.85 0 0 1-2 3.5 3.89 3.89 0 0 1-2.56.22 5.54 5.54 0 0 1-3.59-2.25c-.63.09-.18.72-.4 1.08a8.78 8.78 0 0 0-1.26 3.32 1.15 1.15 0 0 1 0-1.3c.45-1.3 1.12-2.65.94-4.13-.18-.45.09-1.26-.54-1.3-.31.14 0 .59-.27.81-.22 2.25-2.2 3.64-2.65 5.79a6.25 6.25 0 0 0 .4 2.69 4.09 4.09 0 0 0 3.86 1.88c0 .36-.22.76.27.94a2.83 2.83 0 0 1 2 1.93c.31.27.81-.09 1.08.31.32.85.58 2 1.66 2.25a1 1 0 0 1-1.12.18c-.58-.13-.9-.72-1.48-.72 0 .45-.4.85-.09 1.3a1.73 1.73 0 0 0 .94 1.48l1.12.45a1.58 1.58 0 0 1-.94.76 3.57 3.57 0 0 1-2-1.17.6.6 0 0 0-.4.4c.09 1.84 2.56 1.66 2.69 3.46a1.6 1.6 0 0 0-1.39-.54c-.13.58.67.94.85 1.53a1.23 1.23 0 0 1-.09.81 2.87 2.87 0 0 0-2.47-1.57.39.39 0 0 0-.36.36c-.13 1.44 1.44 1.75 1.93 2.83a29.12 29.12 0 0 1-.18 3.37.27.27 0 0 1 0 .36c-.54-.4-.72-1-1.21-1.48-.45 0-.36.49-.58.72a2.21 2.21 0 0 1-.09.81c-.36-.18-.58-1-1-.63.49 1.48 1.17 3.1.72 4.76-.58.45-1.26 0-1.89-.18a2.13 2.13 0 0 1-1.35-1.48c-.13-.58.27-1.62-.4-1.75a3.64 3.64 0 0 0-.22 1.39c-.27.85-.13 1.89-.94 2.47a1.4 1.4 0 0 1-1.12-.09 1.22 1.22 0 0 1-.54-.94c-.13-.67 1.35-1.08.54-1.66a1.7 1.7 0 0 1-1.66.31c-.4-.45-.94-.72-.76-1.39.27-.45 1.44-.49 1-1.21-.72.13-1.66.27-2.11-.4a2.38 2.38 0 0 1-.11-1.19l.4-.18c1.62 0 3.55 2 4.8.13 1.89-2.34 2.07-5.43 2.83-8.22a2.86 2.86 0 0 0-.67-2.33c-1.57-.9-3.37-2.07-3.82-4a17 17 0 0 0-2.29-4.13c-.4 0-.27.45-.49.63-.36 1.84 1.21 3.37.67 5.25a4.12 4.12 0 0 1-.54 2.29 2.54 2.54 0 0 1-.36-1.08 2.13 2.13 0 0 0-.9-1.08.46.46 0 0 0-.36.23c.4 1.21.72 2.87-.22 3.91a5.35 5.35 0 0 1-2.25 1.66c1.21-1.75 2.29-4 1.57-6.29-.36-2.47-1-4.67-.94-7.37.18-.4-.09-1 .22-1.39.23-5.84 4.85-10 5.7-15.67a2.65 2.65 0 0 0-.18-1.3.34.34 0 0 0-.4.09 14.07 14.07 0 0 1-1.71 3.73c-.5-.76-1.26-1.75-.67-2.7.94-1.62-.54-3.28-1.44-4.62-1.26-1.84-3.5-3.1-4.27-5.12l-1-2.29c1.08-1.26 1-3.05 1-4.67l1.17-1.57a.43.43 0 0 0-.27-.4 6.84 6.84 0 0 0-2.38 2.43c-.27 1.17.72 2.65-.72 3.41h-.09c0-.58.36-1.08 0-1.62s-.76.31-.9.54l-.49.9a.67.67 0 0 0-.4-.18l-1.44 1.35a11.85 11.85 0 0 1-.49-1.8.39.39 0 0 0-.4-.18 1 1 0 0 0-.18.63 3.11 3.11 0 0 1-1.66 2.34c.22-.63-.13-1.44.27-2v-.45c1.75-.63 3.59-1.08 5.08-2.29a.48.48 0 0 0-.27-.31c-3.68 1.84-7.63 2.87-11.54 4.13-.09.09-.22.18-.13.31.18.4.67.13.94.09a.16.16 0 0 1 .13 0c-1.17.81-.5 2.56-1.8 3.19 0-.94-.81-1.75-.36-2.74a1.8 1.8 0 0 0-.18-1.12 1.74 1.74 0 0 0-1.39 1.08c-.13.31 0 .85-.54.85s-1.08-.22-1.26.31a1.47 1.47 0 0 1-.81-.9.83.83 0 0 1 .54-.67c.49-.31 1.44 0 1.57-.72-.22-.45 0-.9-.45-1.26-.5.18-.81.9-1.48.72-.5-.18-1-.45-1.39.22-.45.13-.54-.4-.72-.67a1.3 1.3 0 0 1 .72-1.17 7.5 7.5 0 0 1 3.28-.63c3.77.13 6.78-2 9.92-3.64 1.3-1 2.47-2.11 3.64-3.23a4.63 4.63 0 0 0 1.57.22 1.93 1.93 0 0 1-.58 1.71c-.32.54-1.39 0-1.35.72a3.11 3.11 0 0 0 2.2.18c1 0 1.35-1.48 2.38-1.26 2.11-.63 4.49-1.21 5.52-3.46l.36-1c1.21-.63 1.75-1.93 3-2.56v1.84zm-67.86.85a5.64 5.64 0 0 0 3.91 3.86c1 0 1.84.67 2.87.72a2.76 2.76 0 0 0 2.51 1.26c.36-.18.94 0 1.17-.4-.18-.58-1-.18-1.39-.63a2.79 2.79 0 0 1-.63-1.62 9.5 9.5 0 0 0 1.62-.36 50.82 50.82 0 0 0 4.18 3.59c3 1.44 5.84 3.46 9.43 3.23a8.57 8.57 0 0 1 3.73.85 1.31 1.31 0 0 1 .18 1.21 1.16 1.16 0 0 1-.4.4 1.53 1.53 0 0 1-.81-.49 1.61 1.61 0 0 1-1.35.23 2.85 2.85 0 0 0-1-.58 5 5 0 0 0-.36 1.35c.67.4 1.57.36 2.07 1.08a1.53 1.53 0 0 1-.76 1.08c-.22-1-1.12.14-1.62-.54a2.26 2.26 0 0 0-1.48-1.75c-.72.58.09 1.57-.22 2.43a13.94 13.94 0 0 0-.45 1.48c-1.21-.63-.58-2.29-1.66-3.1.22 0 .76.31 1-.18l-.18-.22a83.86 83.86 0 0 1-11.54-4.13.42.42 0 0 0-.31.22c.85 1 2.29 1 3.32 1.8-.45.4-.22 1-.67 1.48v.4A5.33 5.33 0 0 1 55.26 65l-.41.09c-.4-.45-.49-1.53-1.21-1.39-.49.4-.14 1.17-.18 1.71a2.79 2.79 0 0 1-.94-1.44 3.31 3.31 0 0 0-.72-3.28c-.58-.31-1.08-1.39-1.75-1v.36c.49.76 1.48 1.26 1.17 2.29a4.71 4.71 0 0 0 .9 3.73A7.88 7.88 0 0 1 51 68.85a10.8 10.8 0 0 1-3.14 3.55 16.14 16.14 0 0 0-2.56 4c-.67 1.3 1 2.07.31 3.37l-.67 1.3a12.16 12.16 0 0 1-1.8-3.77c-.09-.13-.36-.27-.4 0-.36 4.49 2.83 7.95 4.45 11.86a20 20 0 0 1 1.17 9.66 49.85 49.85 0 0 0-.9 6 8.58 8.58 0 0 0 1.71 4.36c-1.3-.63-2.83-1.75-2.87-3.37 0-.76.31-1.48.4-2.2a.39.39 0 0 0-.49-.18 4.24 4.24 0 0 0-1 2.25c-.76-1.12-.67-2.47-.67-4 .27-1.35 1.26-2.56.54-4.09-.13-.13-.31-.31-.45-.13-2 2.29-1.75 5.93-4.94 7.32a2.89 2.89 0 0 0-1.71 2.47 13.56 13.56 0 0 0 .67 3.1c.45 2.34 1.12 4.85 3.14 6.42 1.39 0 2.65-.63 4-.94a.71.71 0 0 1 .36.94 1 1 0 0 1-.63.85 2 2 0 0 1-1.44-.09.52.52 0 0 0-.31.23c0 .76 1 .45 1.17 1.17a1.48 1.48 0 0 1-.81 1.17 1.07 1.07 0 0 1-1 .13.76.76 0 0 0-.76-.31c-.27.13-.09.36 0 .49a2.66 2.66 0 0 1 .76 1.21 2.3 2.3 0 0 1-1 1 1.21 1.21 0 0 1-1.21-.81c-.54-.94-.09-2.33-.67-3.19-.81.18 0 1-.23 1.53a3 3 0 0 1-2.29 2.07c-.31 0-.94.23-1.08-.18-.45-1.62.18-3.1.72-4.49a.4.4 0 0 0-.22-.36 8.28 8.28 0 0 0-.9.85c-.22-.45.18-1.57-.67-1.53a3.85 3.85 0 0 1-1.12 1.39c.49-1.71-1.3-4.13 1.12-4.94a2.06 2.06 0 0 0 .58-1.75 2.2 2.2 0 0 0-2.2.58l-.49.85h-.27c-.36-.85.36-1.53.9-2.07a.43.43 0 0 0-.27-.45 5.17 5.17 0 0 0-1.21.63c.13-1.84 2.78-1.57 2.6-3.55-.13-.09-.23-.36-.45-.27a2.45 2.45 0 0 1-2 1.17 1.42 1.42 0 0 1-.85-.76c.76-.36 2.16-.67 2.11-1.93-.09-.4.27-1.12-.36-1.35-.72.45-1.62 1.21-2.52.63 1.12-.31 1.44-1.35 1.8-2.29.36-.4 1.44 0 1.26-1 .4-.9 1.39-1.08 2.11-1.62l-.09-.58a4.54 4.54 0 0 0 4-2.11c.22-1.12.63-2.65 0-3.68a11 11 0 0 1-2.51-5.3.3.3 0 0 0-.31-.13 6.53 6.53 0 0 0-.36 2.78c.27 1.48 1.53 2.51.94 4a7 7 0 0 0-1.21-3.28c-.18-.4.09-.9-.41-1.17-1.21 1.48-2.87 2.78-5 2.42a4 4 0 0 1-2.83-2.06c-1-3.73.85-7.37 2.16-10.69.27-1.57.85-2.87.67-4.49a6.48 6.48 0 0 0-1.44-4.09 4 4 0 0 0-3.73-.81c-1.8 1.17-2 3.41-1.84 5.39-1.53-.36-2.07-2.16-2.25-3.5a8.53 8.53 0 0 1 .09-2.38v-.18c-2.11-1.26-4.76-2-5.66-4.63-.36-1.53-.63-3.55.9-4.63l.09-.09a3.23 3.23 0 0 1 .18.63c.54 3 3.82 4.45 6.42 5.21 3.14.94 6.92 2.25 8.17 5.75a6.63 6.63 0 0 1 .58 3.37 3.52 3.52 0 0 0-.13 1c-.22 4-2.78 6.92-3.23 10.78 0 1-.27 2.34.49 3.23s2.07.9 3.05.67c2.74-.94 3.14-4 3.28-6.51 0-1.12 0-2.43.09-3.68s0-1.89.18-3a21.13 21.13 0 0 1 .76-5.88 8.21 8.21 0 0 1 1.12-2.47c.4-.27.58-.18.85.22a3 3 0 0 0 3-.54c0-.58.54-.09.9-.18a2 2 0 0 0 1.66-1.08c1-1.66 1.08-3.91 1.17-6 1.21-1.35 2-3.32 1.17-5.12-.94-1.62-2.83-1.53-4.45-1.71a23.09 23.09 0 0 0-.18-4.31c1.26.63 1.89 1.93 3.1 2.56z" fill="#f7b729"/>
  <path d="M133.11 51.93a4.13 4.13 0 0 1-2.52.94c-1 .13-2.11.23-3.14.27a3.61 3.61 0 0 1 .63 2.38c-.63.54-1.57.13-2.43.31-.22-.27-.67 0-.9-.22a6.12 6.12 0 0 1-2.38-.72.21.21 0 0 1 .18-.27c1.62.27 3.14.94 5 .67.4-.85-1-1.62-.36-2.29a.27.27 0 0 1 .09-.36c2-.22 4-.13 5.66-.9l.18.18zm-105.91.81h1.48a.36.36 0 0 1 .13.4 10.61 10.61 0 0 1-2.92 0c-1-.27-2.25-.09-3-.94.18-.49.67-.13.94 0a10.61 10.61 0 0 0 3.37.58zm1.81.8a8.59 8.59 0 0 0-.72 1.89c1.89.36 3.41-.27 5.12-.67a.8.8 0 0 1 .22.18c-.58.72-1.75.58-2.6.94a6.4 6.4 0 0 1-3.19-.14 3.1 3.1 0 0 1 .9-2.42c.13 0 .22.13.27.22zm102.3 1.67a.37.37 0 0 1 .13.36l-.22.13h-2.52a.26.26 0 0 1 0-.45h2.56zm-104 .22a.22.22 0 0 1 0 .31l-.11.1h-2.5c-.13 0-.31-.27-.13-.36a9.4 9.4 0 0 1 2.74-.09zm98.89 2.87a7.17 7.17 0 0 1-5.3-.72c-.13-.13-.4-.31-.27-.49s.36 0 .54 0a6.59 6.59 0 0 0 4.4.85c.22-.45-.27-.94-.22-1.48a.25.25 0 0 1 .4 0 4.25 4.25 0 0 1 .45 1.8zm-95.53-1.52a9.24 9.24 0 0 1-.31 1.3 6.8 6.8 0 0 0 4.94-.94.41.41 0 0 1 .13.45 7.2 7.2 0 0 1-5.12 1 .46.46 0 0 1-.54-.22c.36-.54.22-1.21.58-1.75a.38.38 0 0 1 .31.18zm99.3.85c.09.09.18.27 0 .36a15.47 15.47 0 0 1-3.23 0 .3.3 0 0 1-.13-.31l.22-.13h3.1zm-100.69.21a.4.4 0 0 1 0 .31 13.07 13.07 0 0 1-3.23.09.2.2 0 0 1-.09-.31l.18-.13h3.1zm93.99 2.31c.32-.36-.18-1.17.45-1.12a3.29 3.29 0 0 1 .13 1.35c-.45.49-1.39.18-1.93.27a7.21 7.21 0 0 1-2.87-1.71c0-.45.45-.09.67 0 1.08.63 2.25 1.57 3.55 1.26zm-86.26-1.04c-.49.67-1.39.85-2 1.35a6.35 6.35 0 0 1-2.42.36c-.67-.18-.31-1.08-.36-1.57a.27.27 0 0 1 .36 0c.31.45-.31 1.39.72 1.26a9.14 9.14 0 0 0 3.46-1.66.34.34 0 0 1 .27.31zm90.62.9c.09.13-.09.27-.18.31l-2.47-.81c-.18-.18-.27-.45 0-.54a13.44 13.44 0 0 1 2.65 1zm-8.31 1.62a2.68 2.68 0 0 0 1.71.36c.27-.36-.27-1.3.45-1.26a4.94 4.94 0 0 1 .09 1.66l-.23.27a4.82 4.82 0 0 0 2 1.12c.13 0 .09.27 0 .31a3.08 3.08 0 0 1-2.47-1.21l.13-.36a4.24 4.24 0 0 1-3.1-1.3 9.4 9.4 0 0 1-1.62-1.89l.18-.31c1.08.76 1.66 2 2.83 2.6zM31.2 59.38c-.67.72-1.75.76-2.65 1.08l-.22-.22a22.52 22.52 0 0 1 2.6-1.08.28.28 0 0 1 .27.22zm8.5-.04a7 7 0 0 1-2.87 3 6.4 6.4 0 0 1-1.84.4.55.55 0 0 1 .09.58c-.76.36-1.44 1.17-2.38 1-.09-.09-.18-.22 0-.31a9.4 9.4 0 0 0 2.07-1.17c-.81-.41 0-1.21-.22-1.84a.27.27 0 0 1 .27-.13 2.07 2.07 0 0 1 .18 1.17c2 .4 3.32-1.57 4.49-2.87a.28.28 0 0 1 .27.18zm76.79 3.28a2.93 2.93 0 0 0 1.93.63c.22-.22-.13-1 .45-.76l.13.18-.09 1a3.19 3.19 0 0 1-3.05-.9 11.4 11.4 0 0 1-1.8-2.87c.09-.18.36-.27.4 0a12 12 0 0 0 2 2.74zM41.9 60.46c-.85 1.53-2.11 3.37-4 3.5-.27-.09-.81.18-.9-.31a1.25 1.25 0 0 1 .18-1.08c.63 0-.09 1.26.85.9 1.89-.27 2.78-2.25 3.77-3.59a.35.35 0 0 1 .13.58zm72.12 2.69a2.12 2.12 0 0 0 1.39.27c.18-.09.27-.4.49-.27s.09.36 0 .49c-.63.58-1.53.13-2.2 0-.13.49-.63.13-1 .31.09.9.49 1.75.63 2.65a.51.51 0 0 1-.36.14l-.92-2.9c-.36-.31-1-.58-1-1 .54-.27.81.49 1.3.54a1.37 1.37 0 0 0 1 0 7 7 0 0 1-1.57-3c.18-.36.45 0 .58.18a5.22 5.22 0 0 0 1.66 2.6zM44.2 60.64a9 9 0 0 1-1.48 2.83c.81.45 1.53-.22 2.11-.67a.31.31 0 0 1 .22.36c-.27.58-1.26.54-1.21 1.35-.27.81-.27 1.8-.81 2.38-.18.09-.22-.09-.31-.18l.72-2.6c-.4-.22-.94.18-1.17-.36-.67.18-1.57.54-2.15 0a.4.4 0 0 1 0-.49c.31-.22.31.31.58.31a2.21 2.21 0 0 0 1.44-.31 8.57 8.57 0 0 0 1.71-2.87.27.27 0 0 1 .36.27zm81.59 1.12a.3.3 0 0 1-.18.36 5.21 5.21 0 0 1-1.89-.9l.18-.31a7.85 7.85 0 0 1 1.89.85zm-93.5-.45a2.66 2.66 0 0 1-2 .9.22.22 0 0 1 0-.32l1.71-.76c.13 0 .36 0 .31.18z" fill="#231f20"/>
  <path d="M86.14 62.03a.73.73 0 0 1-.63.31 1.41 1.41 0 0 1-1.39-.49c.09-.22-.22-.36 0-.58a1.79 1.79 0 0 1 2 .76zm-14.19-.76a1 1 0 0 1-.49 1 1.71 1.71 0 0 1-1.48-.09 1.53 1.53 0 0 1 2-.9zm2.02.72v.45a2.28 2.28 0 0 0-.81-.4.65.65 0 0 1-.49.13 3.53 3.53 0 0 1 .18-.94 1.75 1.75 0 0 1 1.17.76zm9.34.13a.79.79 0 0 0-1.08.31.68.68 0 0 1 .13-.85l.94-.36c-.13.36.27.72 0 .9z" fill="#f7b729"/>
  <path d="M121.25 65.58a.34.34 0 0 1-.18.31 3 3 0 0 1-1.8-1.89c.31-.49.63.27.85.45a13.09 13.09 0 0 0 1.12 1.12zm-84.87-.67a2.23 2.23 0 0 1-1.44 1.12.22.22 0 0 1 0-.4c.76-.36 1.08-1.21 1.71-1.62.49.27-.18.63-.22.9zm81.6.76c0 .58 1.26.9.58 1.39-1.08-.63-1.39-1.84-1.8-2.87a.25.25 0 0 1 .4-.13 17.81 17.81 0 0 0 .81 1.62zM39.3 64.46a7.39 7.39 0 0 1-1.62 2.74.45.45 0 0 1-.4-.13v-.23a10.3 10.3 0 0 0 1.71-2.78c.22 0 .27.18.31.36zm75.67.76a4.17 4.17 0 0 0 .85 1.66.27.27 0 0 1-.18.4 4.22 4.22 0 0 1-1.44-2.78c.45-.9.49.45.76.72zM41.9 64.5a6.7 6.7 0 0 1-1.17 2.78c-.18.13-.49.22-.49-.09a13.43 13.43 0 0 0 1.3-2.83.28.28 0 0 1 .36.13z" fill="#231f20"/>
  <path d="M59.2 64.91c-.45.49.58 1 0 1.62a1 1 0 0 1 .09.72c-1.08-.36-1.48-1.75-1.66-2.83a15.45 15.45 0 0 1 1.53.49zm16.29.22c0 .18.09.45-.13.49a1.22 1.22 0 0 0-.72-.36.59.59 0 0 1-.45.13v-.9a1.51 1.51 0 0 1 1.26.63zm6.42.23a1.12 1.12 0 0 0-1.21.27.68.68 0 0 1 0-.76 1.94 1.94 0 0 1 1.08-.36l.13.85zm12.53 2.33a3.06 3.06 0 0 1 .67-1.62.47.47 0 0 0-.23-.4c-2 .36-1.26 3.23-3.46 3.28a2.16 2.16 0 0 1 .58-2.11v-.45c1.3-.54 2.69-.81 4-1.26-1.26.45-.27 2.29-1.62 2.56zm-30.49-1.26c0 .4.49.67.58 1.08l.18 1.53c-2.25-.09-1.57-3-3.59-3.32-.45.4.23.85.36 1.26l.14.81a1 1 0 0 1-.76-.67c-.13-.72 0-1.39-.76-1.84 1.26.49 2.65.58 3.86 1.17z" fill="#f7b729"/>
  <path d="M106.03 67.06a2.64 2.64 0 0 0 1.84-.94.3.3 0 0 1 .31.18 2.42 2.42 0 0 1-2 1.26.57.57 0 0 0-.54 0 2.11 2.11 0 0 0 1.08 1.17 10.86 10.86 0 0 0 2.69 0 .23.23 0 0 1 0 .36l-.22.18h-2.47a1.11 1.11 0 0 0 .72 1 4 4 0 0 0 2.29.13s.22.13.18.22c-.76.72-1.93.22-2.87 0-1.21-.36-.54-1.8-1.66-2.33a6.25 6.25 0 0 1-.85-2.2l.22-.27c.49.22.63 1 1.26 1.17zm-55.01.78c-.27.67-1.08 1.08-1.08 1.8a2 2 0 0 1-1.17 1.3 3.19 3.19 0 0 1-2.65 0c0-.63.49 0 .81-.18.9-.18 2.11 0 2.47-1.08v-.13c-.94-.18-2.16.22-2.87-.36a.25.25 0 0 1 .22-.27 8.8 8.8 0 0 0 2.42 0 1.86 1.86 0 0 0 1.26-1.26 2.66 2.66 0 0 1-2.6-1.21c.45-.4 1 .49 1.57.63a1 1 0 0 0 .9 0c.31-.27.58-.81.9-1.08.63.54 0 1.26-.18 1.84z" fill="#231f20"/>
  <path d="M73.43 68.18l-.09.54a3.34 3.34 0 0 1-.54-.41h-.67l.36-.85a1.4 1.4 0 0 1 .94.72zm10.6.18a1.29 1.29 0 0 0-1.3.31.77.77 0 0 1 0-.76 4.52 4.52 0 0 1 .94-.45l.32.9z" fill="#f7b729"/>
  <path d="M132.44 71.6a.82.82 0 0 1-.13.9c-.54 0-.18-.67-.4-.94-.36-1.3-1.84-1.71-2.87-2.25.22-.76.9.09 1.39 0a3.58 3.58 0 0 1 2 2.25zM26.95 69.4c-.31.54-1.08.49-1.57.85a2.9 2.9 0 0 0-1.35 2.33.28.28 0 0 1-.31.09c-.36-.49.09-.9.09-1.39a3.5 3.5 0 0 1 3.1-2v.13z" fill="#231f20"/>
  <path d="M91.75 74.61a6.29 6.29 0 0 1-6.2 1.35 3.9 3.9 0 0 1 .49-2.83c.63-.9 1.8-.9 2.74-1.21l2.16.14a12.78 12.78 0 0 0 2.29-.9 4.53 4.53 0 0 1-1.48 3.46zm-24.39-2.7c1 .22 2.25.4 2.92 1.3a7.85 7.85 0 0 1 .58 2.74c-.67.18-1.39.27-2.07.4a7.09 7.09 0 0 1-5.43-3 4.79 4.79 0 0 1-.27-1.3 4.62 4.62 0 0 0 3.82 2.07c.94-.36 1.71.18 2.52.63.58 0 .58 1.75 1.17.63a3.65 3.65 0 0 0-2.16-1.84c-1.3 0-2.83.22-3.82-.67-.49-.4-.9-1.35-1.53-1v-.63c1.3.49 2.69 1.12 4.27.67z" fill="#00835b"/>
  <path d="M93.05 71.91a4.14 4.14 0 0 1-3.86 2.11c-1.44-.31-2.38.63-3.23 1.66a.45.45 0 0 1-.27-.22c.22-1.12 1.39-1.39 2.25-1.93 1.84.18 3.68-.09 4.67-1.8a.35.35 0 0 1 .45.18z" fill="#231f20"/>
  <path d="M99.52 75.23c-.45.49-1.35.36-1.8 1a3.83 3.83 0 0 1-2.74 2.56 3 3 0 0 1-2.61-.63 5.51 5.51 0 0 1-1-1.26c1.44-.58 2.33-1.75 3.77-2.43a6.25 6.25 0 0 1 2.07-.13 3.37 3.37 0 0 1 2.33.9zm-36.6.45a6.91 6.91 0 0 0 2 1.21 4.42 4.42 0 0 1-1.12 1.44 3.31 3.31 0 0 1-3.28.31c-1.17-.45-1.35-1.71-2.11-2.51l-1.53-.76c0-.63.81-.45 1.17-.81a4.86 4.86 0 0 1 4.89 1.12z" fill="#00835b"/>
  <path d="M79.76 74.97a3.9 3.9 0 0 1-2.16.13c-.36.09-.76-.18-1.12-.09a6.73 6.73 0 0 1 1.35-.45 13.24 13.24 0 0 1 1.93.4z" fill="#e9364f"/>
  <path d="M98.2 75.01c-.36.54-1.3.14-1.8.54-.81.81-1.66 2.78-3.19 2.07a.94.94 0 0 1-.67-.22c0-.81.9.09 1.44-.14 1.35-.31 1.3-2.16 2.74-2.29.5 0 1.21-.36 1.48 0zm-37.89.36a7.53 7.53 0 0 0 1.84 1.93c.58.18 1.21-.36 1.62 0a2.11 2.11 0 0 1-1.75.49c-1.53-.67-1.89-3-3.86-2.43-.09-.13-.13-.45.09-.45a3.9 3.9 0 0 1 2.07.45z" fill="#231f20"/>
  <path d="M81.2 77.17a5.07 5.07 0 0 1-.76 1.75l.22.18a12.65 12.65 0 0 1 1.8-1.21 2.69 2.69 0 0 1 2 .49 4.25 4.25 0 0 1 1.35 3.37 2.53 2.53 0 0 1-1.75 1.8 3.15 3.15 0 0 1-1.93-.09.45.45 0 0 0-.22.18c.76.72 1.93 1.39 2.07 2.65a3.56 3.56 0 0 1-2.65 2.6c.45-1.39 2.92-.9 2.34-2.92-.23-.09 0-.45-.36-.49-.18.58-.22 1.35-1 1.35-1.26 0-1.39 2.25-2.83 1.3-.32.27.13.49.27.63l.36.27a1.55 1.55 0 0 1-1.08-.54 6.15 6.15 0 0 1-.94-2.25c-.31 0-.18.31-.31.45a3.13 3.13 0 0 1-1.17 2 3.46 3.46 0 0 1-3.82-1 2.62 2.62 0 0 1-.76-1.84 2.39 2.39 0 0 1 1.26-1.8c.31-.27.9-.09 1-.63a5.83 5.83 0 0 0-1.57-.13c-.76-.31-1.8-.58-2-1.57a1.15 1.15 0 0 1 0-.94 2.73 2.73 0 0 1 .9-2.16 8.38 8.38 0 0 1-.72 2.56 1.75 1.75 0 0 0 .9 1.62c.13 0 .36 0 .31-.18a1.5 1.5 0 0 1-.4-1c.18-.45.58-.72.72-1.12.72.63 1.53 1 2.25 1.57a1.72 1.72 0 0 0 0 1.62l.67.72a14.44 14.44 0 0 1-.81 2.47c-.54-.36-1.35-.31-1.66-1-.18-.22.18-.58-.18-.63a1.27 1.27 0 0 0-.36 1.26c.81.94 2 1.44 2.83 2.29a1.37 1.37 0 0 0 1.39-.63c-.13-.4-.54 0-.76-.09a1.86 1.86 0 0 1-1-1l2.07-1.53a2.74 2.74 0 0 0 1.84.36l.63-.31c.76.4 1.44 1 2.2 1.35l.09-.13-.67-2.25a2.09 2.09 0 0 0 .9-2l-.13-.49c.63-.67 1.53-.81 1.93-1.62l-.13-.13c-.85-.13-2.47.63-2.6-.67a1.69 1.69 0 0 0-1.75-.67c-.31-.94-.63-1.75-.94-2.65-.4.81-.58 1.66-.9 2.47a2.35 2.35 0 0 0-1.62.63 3.11 3.11 0 0 0-.45.85 13.52 13.52 0 0 1-2.69.09 1.92 1.92 0 0 1 .49-1.89c.14 0 .36.09.45-.13-.18-.54-.81-.09-1.26-.22a2.05 2.05 0 0 1 2-.18c.63.22.85.94 1.53 1.12l.13-.14a3.06 3.06 0 0 1 0-3.37 1.27 1.27 0 0 0 0 1c.36 0 .36-.49.72-.58a7.52 7.52 0 0 1 1.75.31c.63-.09 1.35-.63 1.93-.09.09.18.22.45.45.31a3.13 3.13 0 0 0-.22-1.12 2.72 2.72 0 0 1 .76 1.8z" fill="#e9364f"/>
  <path d="M74.28 76.76c-.22 0-.54.13-.67-.13v-.4c.22.18.67.13.63.54zm8.22.18h-.32a.47.47 0 0 1 0-.49l.31-.27a.68.68 0 0 1 0 .72z" fill="#00835b" stroke="#00835b" stroke-miterlimit="3.86" stroke-width=".26"/>
  <path d="M69.88 78.06c.09 2.43-1.89 4.4-3.91 5.48-.76 0-1.39.63-2.2.22a2.28 2.28 0 0 1-1.17-.31v-.13l1.53-1.66c.54-1.26.81-2.69 2-3.59 1-.94 2.69-.63 3.77 0zm21.51 1.35a7 7 0 0 0 2.38 4c-.49.45-1.35.27-2 .49a6.3 6.3 0 0 1-5.34-5.93c1.17-.49 2.83-.76 3.86.18l1.08 1.3z" fill="#00835b"/>
  <path d="M90.09 80.35c.13 1.48 1.84 2.38 3.05 2.83a.32.32 0 0 1-.36.31 4.5 4.5 0 0 1-3.28-3.28c-.4-1.17-1.71-1.44-2.65-1.93.27-.54 1 0 1.44 0 .67.54 1.62 1.08 1.8 2zm-20.66-2.11c-.27.49-1 .31-1.35.72-1.62.63-1.3 2.65-2.65 3.55a4 4 0 0 1-2.2 1 .28.28 0 0 1-.13-.31 17.72 17.72 0 0 0 2.07-1c1.39-1.08.94-3.19 2.92-3.82.4-.09 1-.49 1.35-.13zm15.22.6a6.09 6.09 0 0 0 .76 2.74 1.21 1.21 0 0 1-.72 1.35.38.38 0 0 1-.31 0c.81-.81-.23-1.62-.45-2.38s.13-1.89-.94-2a1.21 1.21 0 0 1 1.35-.09l.31.36z" fill="#231f20"/>
  <path d="M105.49 78.51a4.6 4.6 0 0 1 2.25 3 9.67 9.67 0 0 0 .72 4c-.09.27-.36.09-.58.18a41.7 41.7 0 0 0-5.39 1.62l-.32.23a14.77 14.77 0 0 0 .67 6.6 2.81 2.81 0 0 1-.54 1.75 7 7 0 0 0-1.12-.9c-.31.49.27.94 0 1.44a2.81 2.81 0 0 1-2.07 2.16 6.56 6.56 0 0 0-.76-1.3c.18-.54 1.35-.54 1.12-1.3-.81-.22-1.53.18-2.33.09-1.71.27-3.1 1.17-5 1-.49-.36.09-.81-.09-1.21a2.36 2.36 0 0 0-1.93 1c-.4 1.57-2.25 1.08-3.23 1.89a4.16 4.16 0 0 1-.85-1.8c.09-.67.9-.67 1.39-.9.45-.63 1.48-1.08 1.39-2-1.12-.18-1.84 1.12-3 1.17a2.26 2.26 0 0 1-1.35-.09c.13-.63-.22-1.26.13-1.84 1.93-.18 3.86-.09 5.79-.23.67.23 1.3.67 2 .94a7.21 7.21 0 0 0 4 .4 19.46 19.46 0 0 0 2.69-1c-1.53-2.6-3.32-5.7-2.25-8.76.23-1.17.54-2.56 1.8-3.23v-.31c-.67-.22-1.3.13-2.07 0a10.29 10.29 0 0 0 2-.49c0-.49-.67-.4-.94-.76a76.62 76.62 0 0 0 7.81-1.26zm-46.93 1.33l-1.08.63a2.84 2.84 0 0 0 1.93.58c-.54.45-1.71-.54-2 .4 2 1 1.75 3.37 2.25 5.25-.13 2.47-1.53 4.63-2.69 6.74a10.35 10.35 0 0 0 4.45 1.17 12.15 12.15 0 0 0 4.31-1.57c1.84.27 4 0 5.88.27.45.54-.18 1.12.09 1.8-.54.49-1.12-.09-1.71 0l-2.07-1.12c-.27 0-.58 0-.54.36a4.24 4.24 0 0 0 2.74 2.2 3 3 0 0 1-.72 2.2 2.64 2.64 0 0 0-1.62-.58c-1.89.18-1.62-2.56-3.64-2.29-.22.31.45.67 0 1-1 .45-2-.09-3.05-.13-1.26-.81-2.87-.58-4.27-.76a.26.26 0 0 0-.09.45l1.17.76c-.23.58-.85.85-.9 1.48a2.94 2.94 0 0 1-2-2.25c-.27-.45.22-.94 0-1.35a2.62 2.62 0 0 0-1.17.85c-.9-1.08-.4-2.6-.09-3.86.49-1.17.09-2.74.22-4a.9.9 0 0 0-.85-.94 28.19 28.19 0 0 0-5.48-1.48 22.32 22.32 0 0 0 .9-4.94 7.05 7.05 0 0 1 2-2.2l6.11 1.21h1.89z" fill="#f7b729"/>
  <path d="M78.2 79.37a.21.21 0 0 1-.13-.31c.18 0 .09.18.13.31z" fill="#e9364f" stroke="#e9364f" stroke-miterlimit="3.86" stroke-width=".13"/>
  <path d="M77.96 80.58c.72-.09.9-1.12 1.75-.76a1 1 0 0 1 .58.63c.09.54-.49.85-.72 1.3a3.39 3.39 0 0 1 1.39.9 1.24 1.24 0 0 1-.27 1c-.49.58-1.08-.22-1.57.31a1.25 1.25 0 0 1-.72 1.12.83.83 0 0 1-.9-.13 2.52 2.52 0 0 1-.36-1.21c-.54-.18-1.12.22-1.62-.23a.9.9 0 0 1 0-1.21c.22-.45 1.62-.31.85-1a.78.78 0 0 1-.36-1c.31-.31.76-.85 1.26-.45a1.27 1.27 0 0 1 .67.76z" fill="#f7b729"/>
  <path d="M79.2 81.75a2.55 2.55 0 0 1 0 1.3 1.9 1.9 0 0 1-1.57.36 1.37 1.37 0 0 1-.76-1.3 1.52 1.52 0 0 1 1.12-1.08 1.31 1.31 0 0 1 1.21.72z" fill="#231f20"/>
  <path d="M75.36 81.3a.22.22 0 0 1-.31 0l-.09-.09a.27.27 0 0 1 .4.14zm5.97-.14a.44.44 0 0 1-.36.27.26.26 0 0 1 .36-.27z" fill="#e9364f" stroke="#e9364f" stroke-miterlimit="3.86" stroke-width=".13"/>
  <path d="M101.94 81.43c-.27.58-1 .36-1.48.63a3.79 3.79 0 0 0-2.25 3.05 4.23 4.23 0 0 0 .58 3.14.52.52 0 0 1-.27.36 4.81 4.81 0 0 1-.58-4.62c.4-1.66 2.25-2.47 3.68-2.78a.34.34 0 0 1 .32.22zm-44.1 1.89a5.87 5.87 0 0 1 .27 4.54 1.28 1.28 0 0 1-.67.85l-.18-.22a4.24 4.24 0 0 0-3-6.78.22.22 0 0 1 .09-.4 4.47 4.47 0 0 1 3.5 2z" fill="#231f20"/>
  <path d="M78.59 82.38a.6.6 0 0 1-.36.31.54.54 0 0 1-.54-.4.52.52 0 0 1 .45-.45.48.48 0 0 1 .45.54z" fill="#f7b729"/>
  <path d="M112.99 85.25c-.49 2.33-2.78 3.77-3.1 6.2a1.77 1.77 0 0 0 .94 1.3 5 5 0 0 1 .72-2c.13-.09.22.09.27.18-.09.76-.67 1.44-.36 2.25a2.39 2.39 0 0 0 1.62 1.08.3.3 0 0 1 0 .27 1.25 1.25 0 0 1-1.3-.22c-.63-.31-.72-1.35-1.57-1.17a2.82 2.82 0 0 1-.85-1.8c.45-2.78 3.37-4.58 3.41-7.54l.18-.13c.58.36 0 1.12 0 1.62zm-69.47-.27c.31 2.65 3.41 4.13 3.14 7a2.66 2.66 0 0 1-.85 1.3c-.9.09-1.17 1.26-2 1.53a1.07 1.07 0 0 1-.76-.13c0-.49.54-.22.76-.4a3.09 3.09 0 0 0 .94-1.08c.22-.85-.49-1.39-.54-2.15a.28.28 0 0 1 .31-.13 3.22 3.22 0 0 1 .67 1.88c.18.23.31 0 .49 0a1.89 1.89 0 0 0 .54-1.62c-.81-2.52-3.28-4.09-3.28-6.87a.25.25 0 0 1 .13-.45c.4.13.36.76.45 1.17z" fill="#231f20"/>
  <path d="M71.59 84.08c-.09.18-.09.63-.45.54a.21.21 0 0 1-.23-.09.84.84 0 0 1 .67-.45zm13.69.76a.93.93 0 0 1-.85-.31.49.49 0 0 1 .85.31z" fill="#00835b" stroke="#00835b" stroke-miterlimit="3.86" stroke-width=".26"/>
  <path d="M76.48 84.62a.8.8 0 0 1-.4.36.39.39 0 0 1 .14-.4.29.29 0 0 1 .27 0zm3.64.36a.25.25 0 0 1-.27-.36c.22-.09.22.18.27.31z" fill="#e9364f" stroke="#e9364f" stroke-miterlimit="3.86" stroke-width=".13"/>
  <path d="M99.97 86.46c-.09.58.67 1.12.27 1.71a1.7 1.7 0 0 1-.76-1.48 1.64 1.64 0 0 1 .49-1.44c.49.27 0 .81 0 1.21zm-43.38.63a1.57 1.57 0 0 1-.76 1.17c-.63-.36.31-.81.27-1.26a3.49 3.49 0 0 0-.18-1.53.29.29 0 0 1 .49 0 2.65 2.65 0 0 1 .18 1.57z" fill="#231f20"/>
  <path d="M78.14 89.25l-.18.45c-.09-.18-.45-.54-.13-.85a.72.72 0 0 1 .31.4z" fill="#00835b" stroke="#00835b" stroke-miterlimit="3.86" stroke-width=".26"/>
  <path d="M71.32 90.84v.22c-.36-.31-.81.13-1.17.27a1.52 1.52 0 0 1-.18-.85c.45-.23 1.26-.27 1.39.36zm14.95-.38c-.18.27 0 .72-.18.94a1.13 1.13 0 0 0-.85-.5 1.15 1.15 0 0 1-.4.23c-.22-.54.4-.67.67-.81a4.56 4.56 0 0 1 .76.13zm3.23 1.62l-.13.13h-2.34a3 3 0 0 1-.27-.67 2.62 2.62 0 0 1 .4-1c1 .09 1.62.94 2.34 1.57zm-20.11-.9l-.13 1.08a25.82 25.82 0 0 1-2.65-.09 7.42 7.42 0 0 1 2-1.62c.58-.22.58.36.81.63zm4.62 2.33v.33c-.4-.4-.94.22-1.26 0 .09-.36-.23-.81.13-.94a1.51 1.51 0 0 1 1.12.63zm9.52-.58a4 4 0 0 0 0 1c-.4 0-1-.58-1.3 0a.7.7 0 0 1 .09-.72 3 3 0 0 1 1.26-.31zm-11.14 4.31a.58.58 0 0 1-.09.49 1.68 1.68 0 0 0-.63-.36l-.58.13a2.49 2.49 0 0 1 .27-1c.27.36 1 .09 1 .72zm12.76.18a1.45 1.45 0 0 0-1.21.27c-.27-.27-.09-.54.09-.85a5.88 5.88 0 0 1 .94-.32l.18.9zm12.75-.23a2.18 2.18 0 0 1-1.08 1.8 1.29 1.29 0 0 0-.76-1 .62.62 0 0 0-.63.45c-.13.45-.18 1.12-.76 1.21a.48.48 0 0 1-.36 0 3.09 3.09 0 0 0-.31-1.3c1.35-.23 2.51-1 3.91-1.17zm-35.7 1.22c0 .45-.58.9-.22 1.39a1.61 1.61 0 0 1-1-.5c-.27-.4 0-1.08-.63-1.3a1.25 1.25 0 0 0-.85.72c0 .13.09.31-.09.4a2.17 2.17 0 0 1-1-1.8c1.17 0 2.15.76 3.32.94l.49.13zm30.54-.09a2.68 2.68 0 0 1-1.35 2.25 1 1 0 0 1-1.12-.4 4.79 4.79 0 0 1 .9-2.6c.54.22.9 1.08 1.57.76zm-26.77 1.7a.82.82 0 0 1-.63.63 1.32 1.32 0 0 1-1.35-.72 3.47 3.47 0 0 1-.54-1.57c.72.27 1-.4 1.48-.76a4.37 4.37 0 0 1 1 2.42zm27.4 11.01c1.75 2.78 3.32 5.61 4.89 8.44a2.39 2.39 0 0 1-.18 1.48 1.94 1.94 0 0 1-1.66.54c-.76-.54-.81-1.44-1.39-2.16-.18-.13-.27 0-.4.13.27.9 1 1.75.67 2.69a1.17 1.17 0 0 1-1.26.27c-.45-.09-.31-.67-.45-1a2.44 2.44 0 0 0-.54-1.3c-.4.36 0 1.17 0 1.71a1.37 1.37 0 0 1-1.08.94c-.67.27-.94-.4-1.3-.67-.22-.72.63-1.44 0-2l-.27.13c-.45.72.18 1.75-.85 2.16a1.06 1.06 0 0 1-1 0c-1-1 .4-1.89.45-2.92a.29.29 0 0 0-.49 0c-.67.67-.4 2.7-2 2a1.71 1.71 0 0 1-1-.81l-.09-1.17c1.84-3.14 3.41-6.51 5.75-9.43.9-.72 1.71.31 2.2 1zm-27.71-.77c2.07 3 3.64 6.24 5.48 9.34a1.43 1.43 0 0 1-.09 1.21 1.88 1.88 0 0 1-1.3.76 1.11 1.11 0 0 1-1.08-.76 3.13 3.13 0 0 0-.76-1.48.34.34 0 0 0-.31.22c.18.81.76 1.39.9 2.2a1.09 1.09 0 0 1-.76.76 1.34 1.34 0 0 1-1.17-.31c-.31-.63 0-1.53-.58-2a.26.26 0 0 0-.31.18c-.13.81.81 1.8-.31 2.25a1.08 1.08 0 0 1-1 .18c-.31-.23-1-.58-.76-1 0-.49.18-.94.22-1.44-.09-.09-.18-.27-.36-.18-.4.13 0 .63-.27.85-.18.54 0 1.26-.72 1.48a1.58 1.58 0 0 1-1.21-.36c-.45-1 .54-1.71.58-2.65-.09-.09-.18-.27-.36-.18-.81.67-.45 2.65-2 2.2a1.76 1.76 0 0 1-1.17-1.08v-.9c1.75-3 3.41-6.15 5.3-9.07.4-.58 1.57-1.12 2.11-.27z" fill="#f7b729"/>
  <path d="M93.64 114.39a.32.32 0 0 1-.4.13 11.67 11.67 0 0 0-1.26-2.34c-.94.13-1.12 1.21-1.66 1.84-.27.4-.4 1.12-.94 1.12l-.13-.13c.58-1.21 1.17-2.78 2.56-3.41 1.08.5 1.48 1.75 1.84 2.79zm-26.44.54a.34.34 0 0 1-.22.31c-.45-.18-.45-.81-.76-1.17a6.33 6.33 0 0 0-1.57-1.89c-.81.59-.94 1.66-1.53 2.38a.23.23 0 0 1-.31-.13 6 6 0 0 1 1.66-2.74c1.44.27 2.07 2 2.74 3.23z" fill="#231f20"/>
  <path d="M97.27 111.74a5.8 5.8 0 0 1-1.39 1.17 2.31 2.31 0 0 1-.54-.9c.72 0 1.21-.27 1.93-.27zm-27.07.1a4.94 4.94 0 0 1-1.53 1.17l-.49-.85a9.39 9.39 0 0 1 2-.31zm-9.08.17a2.24 2.24 0 0 1-.4.9 3 3 0 0 1-1.52-1.07l1.93.22zm27.22-.04c-.22.36-.4 1-.76.85l-1.21-1 2 .18zm20.65 3.41a3.64 3.64 0 0 0 0 1 1.17 1.17 0 0 0-1.08-.18l-.18.18a.67.67 0 0 1 .4-.94 5.62 5.62 0 0 1 .85 0zm-60.44.63l-.09.4c-.31-.5-.76 0-1.17 0a3.73 3.73 0 0 1 0-1c.4.27 1.17 0 1.3.58zm61.93 3.28a1.21 1.21 0 0 0-1.44 0 .77.77 0 0 1 .45-.94 1.56 1.56 0 0 0 .9-.09l.09 1zm-63.46-.54a1.74 1.74 0 0 1 .09.67.77.77 0 0 0-.9-.18l-.27.13a6.78 6.78 0 0 1-.13-.94 1.67 1.67 0 0 1 1.21.31zm52.95 5.16a2 2 0 0 1-1.66.72c-1.17-.27-1.26-1.62-1.8-2.47a2.58 2.58 0 0 0 2.34-1.53c.49 1 1.75 2 1.12 3.28zm-13.65-1.88a2.8 2.8 0 0 0 .9.09c-.63.9-.49 2.83-2.11 2.56a1.93 1.93 0 0 1-1.39-.85c-.54-1.3.67-2.16 1.12-3.19a2.29 2.29 0 0 0 1.48 1.39zm-13.52 1.88a2 2 0 0 1-1.21.76l-1.08-.27a10.52 10.52 0 0 1-1-2.16v-.09a2.24 2.24 0 0 0 2.2-1.26l.09-.18c.45 1 1.66 1.93 1 3.19zm-12.76-1.7l-.94 2.11a1.82 1.82 0 0 1-1.35.36 1.69 1.69 0 0 1-1.35-1.21c0-1.08.94-1.75 1.26-2.69a2.56 2.56 0 0 0 2.38 1.44zm52.23-.18a1.34 1.34 0 0 0-1.3 0 .7.7 0 0 1 .4-.76c.27.09.54-.18.85-.09v.9zm-67-.4v.54a.68.68 0 0 0-.85-.13.42.42 0 0 1-.31.13l-.09-.9c.45.13 1 0 1.3.36zM97 124.72a1.9 1.9 0 0 1-1.93 1 .83.83 0 0 1-.72-.45.64.64 0 0 0-.13-.49c0-.58-.22-1.12-.31-1.71a2 2 0 0 0 2-.72 8.23 8.23 0 0 1 1.12 2.38zm-27.17-.13a1 1 0 0 1-.67.9c-.58.13-1.35.49-1.89 0-.45-.72-.31-1.66-.63-2.43a2.17 2.17 0 0 0 2.2-.63l1 2.15zm-7.09-1.53c-.18.9-.18 2-.94 2.65a2.5 2.5 0 0 1-1.62-.18c-1.44-.85.27-2 .4-3.05a2.23 2.23 0 0 0 2.15.58zm27.12-.09a10.89 10.89 0 0 1-.49 2.33 1.1 1.1 0 0 1-.9.45 2.49 2.49 0 0 1-1.53-.67l-.18-.4 1-2.2a2 2 0 0 0 2.11.5zm3.42 0c.13.9.27 1.75.45 2.6-.45 1.08-1.84.81-2.69.76a1.5 1.5 0 0 1-1-.85c0-.81.45-1.66.45-2.51.54.09 1 .67 1.75.4a3 3 0 0 0 .94-.58l.13.18zm-27.08.72a4.42 4.42 0 0 1 .18 2.16c-.63.76-1.93.72-2.83.45a1.58 1.58 0 0 1-.81-.81c.09-.85.4-1.62.54-2.47.36-.13.63.36 1 .45a1.94 1.94 0 0 0 1.66-.54 1.3 1.3 0 0 1 .27.76z" fill="#f7b729"/>
  <path d="M151.39 128.94c.22 3.55.94 6.92 3.14 9.66.85 1.35 2.52 2.83 1.53 4.67-1.62 2.83-4.72 3.46-7.46 4.31.81 1.35 2.29 2.15 3.41 3.23a5.78 5.78 0 0 1-1.17 5.84c-3.37 3.91-8.22 5.52-12.66 7.5-7.41 3.05-15.4 5-21.92 10-7.5 5.84-15.9 10.46-25.15 12.35a64.82 64.82 0 0 1-9.79 1.26l-.22.13a86.67 86.67 0 0 1-10.82-.49c-.18-.27-.49 0-.76-.09-11-1.48-20.84-6.33-29.64-13.25-8.22-6-18.32-7.59-27.17-12.12-3.77-1.89-8.76-4.54-8.76-9.43l.36-1.39a22 22 0 0 0 3.32-3.14c0-.36-.36-.22-.54-.36-2.78-.76-6.38-1.8-7.1-5 .13-2.61 2.87-4.13 3.5-6.6a21 21 0 0 0 1.39-6.83 5.66 5.66 0 0 1 3.64-2.42c3.82-.27 7.1 1.66 9.92 4-.67 1.62-1.39 3.23-2.07 4.89 6.83 1 14.46 1.8 17.83 8.8a3 3 0 0 1-.4 2.92c-1.62 1.57-3 3.28-4.45 4.89 6.24 2.78 12.93 4.76 18.77 8.53 6.11 4.13 12 8.8 19.26 10.06a57.52 57.52 0 0 0 8.89 1.12c8.49 0 16.53-1 23.31-5.43 5.25-3.41 10.33-7.5 16.17-9.79 3.73-1.66 7.45-3.1 11.27-4.67-.18-.63-1-1.08-1.39-1.66-1-1.12-2.33-2.47-3.32-3.64-1.12-2.83 1.3-5 3.19-6.83 3.91-3.41 9.25-3.59 14.19-4.49v-.45l-1.89-4.31v-.31c3-2.11 6.06-4.27 10-3.77a4.94 4.94 0 0 1 3.5 2.38z" fill="#231f20"/>
  <path d="M150.04 128.41a2.08 2.08 0 0 1 .72 1.84c-1.75 3.86-6.24 4.4-10.06 4.94a27 27 0 0 1-1.93-4.54 18 18 0 0 1 7-3.37 5.66 5.66 0 0 1 4.31 1.12zm-132.48 2.6l-1.93 4.36a19.9 19.9 0 0 1-4-.54c-2.47-.63-5.52-1.89-6.2-4.71.31-1.48 2-2.43 3.41-2.6a12.74 12.74 0 0 1 8.67 3.5zm63.14 2.16c1.35 2.38 2.74 4.76 4 7.14-.22.18 0 .4 0 .58a1.37 1.37 0 0 1-.9 1.3 1.24 1.24 0 0 1-1.12 0c-.54-.67-.58-1.62-1.21-2.2a.44.44 0 0 0-.36.31l.72 1.62a1.67 1.67 0 0 1-.18 1.12 1 1 0 0 1-1.17.18c-.76-.5-.31-1.66-1-2.25l-.27.27c0 .67.67 1.48-.09 2a1.23 1.23 0 0 1-1.21.36l-.81-.76c0-.58.58-1.26.09-1.8a.33.33 0 0 0-.36.18c-.18.76 0 1.84-1 2.11a.83.83 0 0 1-.85 0c-.85-1 .31-2 .45-3a.51.51 0 0 0-.22-.31l-.18.09-1 2.07a1.34 1.34 0 0 1-1.17.09 1.87 1.87 0 0 1-1-1.08v-.85c1.53-3 3.23-6 5-8.85.45-.27.63-.9 1.17-1 1.39 0 2 1.66 2.65 2.65z" fill="#f7b729"/>
  <path d="M153.77 138.96c.67 1.26 2.29 2.29 1.62 3.91-1.53 2.6-4.76 3.23-7.32 4-1.66-2.29-2-5.16-4.22-7.18-1.26-1.08-2.47-2.43-4.27-2-4 1.17-5.93 5.79-9.16 8.13-1.8 1.26-4.13 2.56-6.38 1.39-.54-.4-1.26-.72-1.3-1.48.13-2.7 2.56-4.62 4.54-6a16.32 16.32 0 0 1 6.69-2.47c2.92-.63 5.75-.94 8.67-1.48 3.1-.4 6.24-1.17 8.26-3.86a15.34 15.34 0 0 0 2.87 7.14zM6.33 133.08c3.19 3 7.77 2.83 11.86 3.59 5.75.72 12 2 15.13 7.63a2.51 2.51 0 0 1 .13 2 3.83 3.83 0 0 1-3.73 1.53c-5.12-.9-7.23-6.56-11.45-9.34a4.16 4.16 0 0 0-3.1-.49c-4 1.71-5 5.75-6.87 9.07-2.69-.58-5.75-1.21-7.32-3.77-.67-2 1.44-3.41 2.25-5a18.21 18.21 0 0 0 2.2-6.06c.27.18.54.63.9.85z" fill="#f7b729"/>
  <path d="M80.07 134.92a.4.4 0 0 1-.22.36l-.18-.09a6.36 6.36 0 0 0-1.35-2.25c-.81.31-1.12 1.21-1.62 1.84-.27.4-.36 1.17-.9 1.12l-.13-.18c.58-1.26 1.26-2.7 2.6-3.37 1.08.4 1.3 1.66 1.8 2.56z" fill="#231f20"/>
  <path d="M74.68 132.67a1.42 1.42 0 0 1-.45.9 4.33 4.33 0 0 1-1.44-1.17l1.89.27zm9.03-.27a3.86 3.86 0 0 1-1.39 1.17 1.8 1.8 0 0 1-.49-.85c.58-.18 1.26-.18 1.89-.31zm60.72 9.21c1.62 2.34 1.93 5.25 4.18 7.32a27.57 27.57 0 0 0 2.78 2.43c.85 2.29-.58 4.27-2.11 5.88-6.38 5.12-14.1 7.05-21.38 10-4.13 1.66-8.22 3.23-11.77 6.11-11.41 9.34-25.37 14.55-40.69 13.79-1 .09-1.93-.27-3-.18-.27-.36-.76 0-1.08-.18-12.62-1.21-23.4-7.05-33.14-14.82-9-5.17-19.31-7.23-28.38-12.4-2.42-1.53-5-3.77-5.16-6.87 0-1.44 1.66-1.89 2.47-2.92s2-1.93 2.38-3.14c1.35-2.87 2.6-6.29 5.75-7.81 2.51-.58 4.36 1.84 6 3.5 2.51 3.28 5.88 6.69 10.24 6.24a40.26 40.26 0 0 1-2.87 3.32h-.4c-3.37-1.26-6.78-2.56-10.15-3.86-1.84-.9-3.82-2.69-3.73-4.94 0-.27.09-.72-.31-.76a.41.41 0 0 0-.45.32c-.36 2.51 1.66 4.71 3.68 5.93 3.5 1.48 7.09 2.69 10.64 4.13a2.62 2.62 0 0 0 1.21.4c4.22 1.71 8.49 3.28 12.57 5.21 8.22 3.32 14.78 10.82 23.44 12.89a44.32 44.32 0 0 0 9.52 1.39c2.16.27 4.62 0 6.87.09 1.21 0 2.11-.22 3.32-.31a36.17 36.17 0 0 0 5.17-.94c9.92-1.84 17-10.6 26.32-14 7.45-3.28 15.13-6.11 22.68-9.07a6.46 6.46 0 0 0 3.73-4.72c-.09-.49.22-1.26-.22-1.57-1 0-.31 1.17-.63 1.66-.49 2.51-3.14 4.22-5.43 4.76l-8.44 3.23c-1-1.08-2-2.07-2.87-3.19l.13-.13c6 .49 8.62-6 12.75-9.07.9-.49 2-1.26 3.1-.67a11.16 11.16 0 0 1 3.32 3z" fill="#f7b729"/>
  <path d="M86.49 144.48a1.78 1.78 0 0 1-1.8 1c-1.08-.31-1.12-1.62-1.62-2.42a3.32 3.32 0 0 1 .85-.22 2.22 2.22 0 0 0 1.3-1.39c.54.94 1.53 1.84 1.26 3.05zm-12.93-1.52h.09l-.09.49-.94 1.8a1.76 1.76 0 0 1-2.07-.18 1.22 1.22 0 0 1-.49-1.26 9.61 9.61 0 0 1 1.21-2.34 2.49 2.49 0 0 0 2.29 1.48zm9.88 2.56a1.42 1.42 0 0 1-.94.94 1.87 1.87 0 0 1-1.48-.09c-.54-.67-.31-1.66-.67-2.34a1.3 1.3 0 0 1 .72 0 1.75 1.75 0 0 0 1.26-.85 9.36 9.36 0 0 1 1.12 2.34zm-7.99-1.44l.85-.27a4.22 4.22 0 0 1-.22 1.35 2 2 0 0 1-.31 1.12 2 2 0 0 1-1.62.23 1.44 1.44 0 0 1-.85-.76 10.93 10.93 0 0 1 .9-2.47 2.37 2.37 0 0 0 1.26.81zm4.31-.41c0 1.08 1.21 2.74-.31 3.46a3.5 3.5 0 0 1-2.78-.31c-.54-.49.09-1.21 0-1.71a3.71 3.71 0 0 0 .31-1.21c.36-.31.63.36 1 .36.72.22 1.21-.36 1.8-.58z" fill="#f7b729"/>
  <path d="M20.08 155c.08.23.55 1.69 1.06 3s1.08 2.84 1.38 3.58a.55.55 0 0 0 .2.31c.08 0 .14 0 .23-.21l2.46-5.27c.22-.47.36-.62.63-.58a1 1 0 0 1 .26.09h.19c.03 0-.05-.11-.16-.16-.41-.18-.74-.3-.84-.34s-.57-.28-1-.48c-.13-.06-.22-.09-.25 0s0 .09.1.14a1.46 1.46 0 0 1 .42.25c.17.17.17.37-.05.88l-1.6 3.82c-.08-.2-.68-1.92-1-2.74-.69-1.77-1.35-3.71-1.41-3.86a.69.69 0 0 0-.2-.4c-.08 0-.16.07-.24.24l-2.29 4.95c-.33.73-.48 1-.73.93a1.66 1.66 0 0 1-.4-.13h-.16c-.02 0 0 .12.15.17.44.19.84.35.92.38s.49.25 1 .49c.12.05.2.07.23 0s0-.09-.11-.13a1.45 1.45 0 0 1-.41-.25c-.14-.13-.15-.4.12-1.07l1.48-3.57z" fill="#231f20"/>
  <path d="M28.55 164.09a3.64 3.64 0 0 0 4.91-2.16c.76-2-.1-3.73-2.24-4.55a3.55 3.55 0 0 0-4.84 2 3.51 3.51 0 0 0 2.17 4.7zm.53-.29c-1.65-.63-2.1-2.43-1.41-4.22.82-2.14 2.16-2.26 3.15-1.88 1.41.54 2.06 2.16 1.32 4.09-1 2.49-2.46 2.24-3.06 2zm6.42.04c-.36.77-.67 1.43-.87 1.76a.49.49 0 0 1-.46.35 1.44 1.44 0 0 1-.32-.11h-.16c-.01 0 0 .11.13.16l1 .45c.13.06.73.37 1.22.6.11.05.18.05.21 0s0-.08-.07-.11a4.31 4.31 0 0 1-.39-.22.44.44 0 0 1-.11-.61c.12-.37.43-1 .79-1.81l.05-.12a.06.06 0 0 1 .1 0l.72.36a.19.19 0 0 1 .12.13c0 .18.17.92.29 1.54a4.45 4.45 0 0 0 .57 1.76 1.87 1.87 0 0 0 .82.58l.79.37c.1 0 .17.06.2 0s0-.08-.07-.11a1.37 1.37 0 0 1-.22-.13 1.83 1.83 0 0 1-.67-1c-.25-.75-.48-1.76-.79-3a2.58 2.58 0 0 0 2-1.36 1.6 1.6 0 0 0 0-1.41 3 3 0 0 0-1.37-1.08l-1.19-.52c-.18-.08-.69-.35-1.13-.56-.12-.06-.19-.07-.22 0s0 .1.11.14a1.85 1.85 0 0 1 .31.18.45.45 0 0 1 .14.64c-.11.28-.22.51-.81 1.78l-.72 1.35zm2.55-2.89a.11.11 0 0 1 .15-.11 1.93 1.93 0 0 1 .46.17 1.47 1.47 0 0 1 .56 2.12 1.63 1.63 0 0 1-1.08 1 .93.93 0 0 1-.66-.13 2.43 2.43 0 0 1-.6-.38.14.14 0 0 1 0-.18l1.18-2.54z" fill="#231f20" fill-rule="evenodd"/>
  <path d="M43.2 167.91c-.47.7-.88 1.31-1.13 1.6a.48.48 0 0 1-.5.27 1.51 1.51 0 0 1-.3-.15c-.09-.06-.14-.06-.16 0s0 .11.1.18c.3.21.8.51 1 .63s.68.49 1.18.83c.08.06.16.07.2 0s0-.09-.08-.14a3.87 3.87 0 0 1-.37-.29.44.44 0 0 1 0-.61c.18-.35.59-1 1.06-1.66l2.11-3.13.95.67c.67.47.73.83.61 1v.09c-.07.12-.08.17 0 .21s.09 0 .15-.08.51-.71.62-.87.1-.17 0-.2a4.05 4.05 0 0 1-.78-.42l-3-2c-.25-.17-.53-.38-.74-.55a2.06 2.06 0 0 1-.27-.31s-.1 0-.19.08-.67.65-.75.77-.07.13 0 .17a.11.11 0 0 0 .15 0 1.1 1.1 0 0 1 .31-.18 1 1 0 0 1 .89.28l1.16.74-2.22 3.07zm6.47 2.93a.06.06 0 0 1 0-.08l.11-.16c.8-1.15 1-1.36 1.14-1.59a.44.44 0 0 1 .58-.23l.23.13c.09.06.15.08.18 0s0-.11-.11-.18c-.29-.21-.79-.52-1-.64s-.66-.5-1.07-.78c-.11-.07-.17-.1-.21 0s0 .1.08.16a1.9 1.9 0 0 1 .28.23.45.45 0 0 1 0 .66c-.15.25-.3.46-1.1 1.61l-.93 1.33c-.49.69-.9 1.29-1.16 1.58a.49.49 0 0 1-.51.26 1.52 1.52 0 0 1-.29-.16c-.09-.06-.14-.06-.16 0s0 .11.1.18c.3.21.79.52 1 .64s.67.5 1.16.85c.09.06.17.08.2 0s0-.09-.08-.15a3.94 3.94 0 0 1-.36-.3.44.44 0 0 1 0-.61c.19-.35.61-.95 1.09-1.64l.46-.66h.08l2.88 2a.05.05 0 0 1 0 .08l-.46.67c-.49.69-.9 1.29-1.16 1.58a.49.49 0 0 1-.51.26 1.59 1.59 0 0 1-.29-.16c-.09-.06-.14-.06-.16 0s0 .11.11.19c.29.21.79.52 1 .64s.67.5 1.16.85c.09.06.17.08.2 0s0-.09-.08-.15a3.77 3.77 0 0 1-.36-.3.44.44 0 0 1 0-.61c.19-.35.61-.95 1.09-1.64l.93-1.33c.8-1.15 1-1.36 1.14-1.59a.44.44 0 0 1 .58-.23l.23.13c.09.06.15.08.18 0s0-.11-.11-.18c-.29-.21-.79-.52-1-.64s-.66-.5-1.07-.78c-.11-.07-.17-.1-.21 0s0 .1.08.16a1.91 1.91 0 0 1 .28.23.45.45 0 0 1 0 .66c-.15.25-.3.46-1.1 1.61l-.11.16a.06.06 0 0 1-.08 0l-2.88-2z" fill="#231f20"/>
  <path d="M57.5 177.69a.09.09 0 0 1 .05.1l-.27 2.05a.15.15 0 0 1-.17.15h-.15c-.02 0 .07.11.21.2.64.36 1.24.68 1.53.83s.38.18.42.12 0-.09-.07-.12a2.13 2.13 0 0 1-.32-.21 1.34 1.34 0 0 1-.24-1.27c.14-1.51.6-5.52.64-6.07a.36.36 0 0 0-.06-.37.46.46 0 0 0-.4.21l-4.76 4a1 1 0 0 1-1.08.36l-.26-.12h-.13c-.02 0 0 .11.11.16.42.22.88.44 1 .49l.85.48c.09 0 .15.06.18 0s0-.08-.09-.13l-.12-.06c-.25-.13-.27-.28-.19-.43a1.75 1.75 0 0 1 .39-.43l1.06-.93a.08.08 0 0 1 .11 0l1.81 1zm-1.44-1.28v-.07l1.81-1.6a.1.1 0 0 1 .09 0 .09.09 0 0 1 0 .09l-.34 2.4h-.07l-1.5-.8z" fill="#231f20" fill-rule="evenodd"/>
  <path d="M60.28 180.73a.78.78 0 0 1-.52.63 1.3 1.3 0 0 1-.28 0h-.16c-.01 0 .05.12.14.13l.9.16c.16 0 .56.15.94.23.14 0 .22 0 .24-.05s0-.08-.12-.09a1.77 1.77 0 0 1-.37-.13.3.3 0 0 1-.21-.35 3.55 3.55 0 0 1 .12-.42l1.23-3.49c.17.74.47 2 .51 2.2s.47 1.8.6 2.26a.9.9 0 0 0 .22.52.75.75 0 0 0 .44-.43l2.83-3.67-.3 4.08a.4.4 0 0 1-.13.38.12.12 0 0 0-.12.08c0 .05 0 .09.24.16.36.1 1.59.39 1.82.44s.24 0 .26 0-.05-.08-.13-.09a1.87 1.87 0 0 1-.54-.21.93.93 0 0 1-.25-1l.36-5.74c0-.2 0-.3-.1-.31a.27.27 0 0 0-.24.17l-3.46 4.59-1.38-5.6c-.07-.26-.11-.32-.18-.33a.23.23 0 0 0-.2.2l-2.14 5.69zm10.48.11c-.06.84-.11 1.57-.18 2a.49.49 0 0 1-.3.49 1.54 1.54 0 0 1-.33 0c-.11 0-.15 0-.15.06s.06.1.18.1l1.16.05c.24 0 .82.09 1.42.13.1 0 .18 0 .18-.08s0-.08-.14-.08a3.72 3.72 0 0 1-.47-.07.44.44 0 0 1-.32-.52c0-.4 0-1.12.09-2l.26-3.67a.17.17 0 0 1 .09-.17 1.31 1.31 0 0 1 .36 0 1.38 1.38 0 0 1 .89.42 1.77 1.77 0 0 1 .45 1.42 1.45 1.45 0 0 1-1.34 1.43c-.19 0-.26 0-.26.08a.1.1 0 0 0 .11.09h.19a2.17 2.17 0 0 0 2.42-2.06 1.61 1.61 0 0 0-.38-1.13 2.26 2.26 0 0 0-1.67-.64l-1.33-.07c-.26 0-.83-.09-1.32-.12-.14 0-.2 0-.21.07s0 .09.15.09a2 2 0 0 1 .36.05.45.45 0 0 1 .36.55c0 .3 0 .55-.12 1.95l-.15 1.63zm8.03.25v2a.48.48 0 0 1-.26.51 1.55 1.55 0 0 1-.33 0c-.11 0-.15 0-.15.08s.07.09.19.09h2.61c.1 0 .17 0 .17-.09s0-.07-.15-.07a4.08 4.08 0 0 1-.47 0 .44.44 0 0 1-.37-.49c-.05-.39-.07-1.12-.08-2l-.07-3.78h1.16c.82 0 1.07.26 1.1.5v.1c0 .14 0 .18.1.18s.07-.06.08-.15 0-.88 0-1.07 0-.19-.08-.19a3.93 3.93 0 0 1-.88.11l-3.65.06h-.92a2.06 2.06 0 0 1-.4-.1c-.06 0-.08.06-.11.18s-.18.91-.17 1.06 0 .15.09.15a.11.11 0 0 0 .1-.11 1.09 1.09 0 0 1 .15-.32 1 1 0 0 1 .89-.28l1.37-.06.07 3.78z" fill="#231f20"/>
  <path d="M87.29 183.37a3.64 3.64 0 0 0 3.33-4.21c-.26-2.09-1.84-3.25-4.11-3a3.55 3.55 0 0 0-3.34 4 3.51 3.51 0 0 0 4.12 3.13zm.33-.5c-1.75.22-3-1.16-3.22-3.07-.28-2.28.85-3 1.9-3.14 1.5-.18 2.83.94 3.09 3 .32 2.64-1.12 3.13-1.76 3.21zm4.58-5.64c.21.11 1.56.87 2.83 1.48s2.72 1.34 3.45 1.68a.56.56 0 0 0 .36.09c.08 0 .09-.12 0-.31l-1.8-5.53c-.16-.49-.15-.7.07-.85a1 1 0 0 1 .25-.12c.1 0 .15-.08.13-.13s-.12 0-.23 0c-.43.15-.75.29-.84.32s-.61.18-1.06.34c-.13 0-.22.09-.2.16s.06.07.17 0a1.5 1.5 0 0 1 .48-.11c.24 0 .38.15.57.68l1.43 3.88c-.2-.09-1.8-.94-2.6-1.33-1.71-.83-3.52-1.79-3.66-1.87a.68.68 0 0 0-.41-.16c-.09 0-.07.16 0 .33l1.7 5.18c.25.76.3 1 .1 1.17a1.58 1.58 0 0 1-.38.18c-.09 0-.13.07-.11.12s.11.06.22 0c.45-.16.85-.32.93-.35s.52-.15 1.09-.35c.12 0 .2-.09.17-.16s-.08-.05-.17 0a1.48 1.48 0 0 1-.47.09c-.2 0-.39-.19-.64-.86l-1.38-3.57z" fill="#231f20" fill-rule="evenodd"/>
  <path d="M105.45 176.65a2.67 2.67 0 0 0 1-1.13 1.86 1.86 0 0 0-.18-1.81c-.49-.72-1.17-1-2.57-1.1h-.32a1.72 1.72 0 0 1-1.55-.55 1 1 0 0 1 .38-1.4 1.17 1.17 0 0 1 1.08-.19 1.12 1.12 0 0 1 .54.37c.06.09.12.12.17.09s0-.12-.07-.29c-.4-.59-.52-.84-.59-.94a.12.12 0 0 0-.17 0 4.44 4.44 0 0 0-1.1.56 1.87 1.87 0 0 0-.79 2.63 2.73 2.73 0 0 0 2.35 1h.54a1.75 1.75 0 0 1 1.57.72 1.12 1.12 0 0 1-.44 1.56 1.27 1.27 0 0 1-1.61 0 2 2 0 0 1-.33-.34c0-.06-.09-.13-.16-.08s0 .14 0 .26.35.61.64 1a.25.25 0 0 0 .32.16 3.19 3.19 0 0 0 1.25-.55z" fill="#231f20"/>
  <path d="M110.01 170.32a.09.09 0 0 1 .11 0l1.75 1.15a.15.15 0 0 1 .06.22c-.07.06-.09.1-.06.14s.13 0 .27-.1c.61-.42 1.15-.81 1.42-1s.33-.26.29-.32-.08 0-.14 0a2 2 0 0 1-.33.2 1.34 1.34 0 0 1-1.25-.34c-1.3-.79-4.7-3-5.18-3.24a.36.36 0 0 0-.36-.1c-.08.05-.06.17 0 .45l1.53 6a1 1 0 0 1-.15 1.13l-.22.18c-.06 0-.08.08 0 .13s.1 0 .2 0c.39-.28.78-.6.86-.66l.81-.55c.08-.06.12-.11.07-.17s-.07 0-.15 0l-.11.08c-.23.17-.37.12-.47 0a1.78 1.78 0 0 1-.22-.54l-.37-1.36a.08.08 0 0 1 0-.11l1.66-1.21zm-1.78.73h-.07l-.65-2.33a.1.1 0 0 1 0-.1.09.09 0 0 1 .09 0l2 1.35v.07l-1.37 1z" fill="#231f20" fill-rule="evenodd"/>
  <path d="M113.67 167.49c.49.75.88 1.36 1.05 1.71a.41.41 0 0 1 0 .53 1.45 1.45 0 0 1-.26.21c-.09.06-.11.1-.08.14s.1 0 .2 0c.31-.2.78-.54 1-.66s.71-.43 1.22-.76c.09-.05.13-.12.1-.17s-.08 0-.16 0a3.59 3.59 0 0 1-.41.22.41.41 0 0 1-.56-.18c-.25-.31-.64-.92-1.13-1.67l-.88-1.36c-.76-1.17-.9-1.39-1-1.65a.44.44 0 0 1 0-.62 1.59 1.59 0 0 1 .22-.17c.08 0 .11-.09.07-.16s-.1 0-.2 0l-.93.64-1 .63c-.12.08-.17.14-.15.18s.1 0 .17 0a1.32 1.32 0 0 1 .3-.15.46.46 0 0 1 .54.26c.18.24.32.45 1.08 1.63l.88 1.36zm3.66-4.91c.23.09 1.64.7 3 1.18s2.85 1 3.61 1.31a.55.55 0 0 0 .37.05c.08 0 .07-.13 0-.31l-2.36-5.31c-.21-.47-.22-.68 0-.85a1 1 0 0 1 .24-.14c.1 0 .14-.1.12-.15s-.12 0-.23 0c-.41.19-.71.36-.81.41s-.59.24-1 .45c-.13.06-.21.11-.18.18s.07.06.17 0a1.52 1.52 0 0 1 .47-.16c.24 0 .39.11.63.62l1.83 3.71c-.2-.07-1.89-.74-2.72-1-1.78-.64-3.69-1.41-3.84-1.47a.68.68 0 0 0-.43-.11c-.08 0-.05.17 0 .33l2.23 5c.33.73.41 1 .22 1.16a1.64 1.64 0 0 1-.36.22c-.08 0-.12.08-.1.13s.11 0 .22 0c.43-.2.81-.41.89-.45s.5-.21 1-.46c.12-.05.18-.11.15-.17s-.08 0-.17 0a1.45 1.45 0 0 1-.46.14c-.19 0-.4-.15-.72-.79l-1.73-3.46zm10.3-1.88c.32.79.59 1.46.69 1.84a.48.48 0 0 1-.06.57 1.39 1.39 0 0 1-.29.16c-.1 0-.13.08-.11.12s.09.06.21 0l1.07-.46c.24-.1.79-.29 1.35-.52.09 0 .15-.09.13-.15s-.07-.05-.16 0a3.86 3.86 0 0 1-.45.14.44.44 0 0 1-.52-.33c-.19-.35-.46-1-.78-1.81l-1.41-3.5 1.09-.41c.77-.29 1.09-.14 1.2.07v.09c.06.13.09.16.16.13s0-.08 0-.17-.3-.82-.37-1-.08-.18-.14-.15a4.17 4.17 0 0 1-.79.42l-3.38 1.37c-.28.11-.61.23-.87.3a2.06 2.06 0 0 1-.41 0c-.05 0-.06.08 0 .2s.16.92.22 1.05.07.13.13.11a.11.11 0 0 0 .05-.14 1.15 1.15 0 0 1 0-.36 1 1 0 0 1 .73-.58l1.26-.55 1.41 3.5zm7.25.31a2.66 2.66 0 0 0 1.25-.86 1.86 1.86 0 0 0 .26-1.8c-.3-.82-.89-1.26-2.22-1.69l-.31-.09a1.73 1.73 0 0 1-1.37-.91 1 1 0 0 1 .71-1.27 1.17 1.17 0 0 1 1.1.08 1.13 1.13 0 0 1 .43.49c0 .1.08.15.14.12s.07-.1 0-.29c-.25-.67-.3-.94-.34-1.05a.12.12 0 0 0-.16-.06 4.46 4.46 0 0 0-1.21.27 1.87 1.87 0 0 0-1.4 2.36 2.73 2.73 0 0 0 2 1.58l.51.17a1.75 1.75 0 0 1 1.35 1.08 1.12 1.12 0 0 1-.8 1.41 1.27 1.27 0 0 1-1.56-.42 2 2 0 0 1-.24-.41c0-.07-.06-.14-.14-.12s-.06.13 0 .26.2.67.37 1.15a.25.25 0 0 0 .27.23 3.2 3.2 0 0 0 1.34-.24z" fill="#231f20"/>
</svg>
