<svg data-name="Layer 1" xmlns="http://www.w3.org/2000/svg" width="877.76" height="1000.14" viewBox="0 0 877.76 1000.14">
  <defs>
    <clipPath id="a" transform="translate(-61.05)">
      <path fill="none" d="M61.19 0h877.62v1000H61.19z"/>
    </clipPath>
    <clipPath id="b" transform="translate(-61.05)">
      <path data-name="SVGID" d="M812.6 22.76c-36 0-116.59 59.69-158.43 97.62C602 167.72 530.41 295.15 530.41 295.15s42.57 37.93 49.13 53.24c1.22 2.86 13.67-7.93 50.1-18.72 37-10.95 98.69-21.91 198.48-18.6 87.89 2.91 65.59-40.61 66.4-80.41.63-29.61 14.82-29.07 23.06-72.15 10.17-53.24-91.92-6.59-91.92-6.59s-16.91-3 3.3-94.65c5.46-24.78-1.81-34.51-16.34-34.51" fill="none"/>
    </clipPath>
    <clipPath id="c" transform="translate(-61.05)">
      <path data-name="SVGID" d="M584.49 399.7c-11 .82-34 24.14-34 24.14s-18.92 33.75-9 66.12 13.17 46.37 10.7 76.27-.27 76.29 14 100.44 32.37 73.51 24.14 85.33 113.6-56 113.6-181.35c0-124.31-106.47-171-119-171h-.31" fill="none"/>
    </clipPath>
  </defs>
  <g clip-path="url(#a)">
    <path d="M4.23 420.32c17.38-109.72 205.78-171.06 420.81-137s375.25 150.62 357.91 260.35-205.76 171.07-420.8 137S-13.13 530 4.23 420.32" fill="#fdb813"/>
    <path d="M4.23 420.32l2.91.46c3.44-21.66 13.71-41.41 29.83-59 24.17-26.34 61.56-47.64 108.13-62.28s102.27-22.67 163-22.67a747 747 0 0 1 116.51 9.37c101.77 16.12 191.2 50.82 255 94.36 31.9 21.77 57.38 45.74 74.82 70.61s26.85 50.61 26.85 76a101.85 101.85 0 0 1-1.25 16c-3.43 21.66-13.71 41.41-29.83 59-24.17 26.33-61.55 47.63-108.11 62.28s-102.25 22.67-163 22.67a747 747 0 0 1-116.54-9.37c-101.78-16.11-191.21-50.81-255-94.36-31.9-21.77-57.38-45.74-74.82-70.62s-26.85-50.61-26.85-76a102 102 0 0 1 1.25-16l-2.91-.46-2.91-.46a107.81 107.81 0 0 0-1.36 16.89c0 26.92 10 53.81 27.92 79.42 27 38.43 72 74.12 129.42 103.33s127.4 51.9 204.31 64.08A752.81 752.81 0 0 0 479.11 693c81.63 0 154.42-14.34 208.82-40 27.2-12.85 49.81-28.56 66.58-46.82s27.68-39.1 31.31-62a108 108 0 0 0 1.33-16.89c0-26.92-10-53.81-27.92-79.42-27-38.43-72-74.12-129.42-103.33s-127.4-51.9-204.3-64.08A752.92 752.92 0 0 0 308.08 271c-81.64 0-154.44 14.34-208.85 40-27.2 12.85-49.82 28.56-66.59 46.82s-27.68 39.1-31.31 62v-.18.18z" fill="#fff"/>
    <path d="M874.09 156c-9-67.88-95.5-29.09-95.5-29.09s-3.28-25.8 11.81-82.86c22.69-85.74-108.66-20.86-189 43.9S452.95 283.63 452.95 283.63s-64-40.63-115.29-31.56c-4.13.73-.81-51.31-63.93-51.31a179.6 179.6 0 0 0-34.85 8.6c-6.41-8.93-23.69-28.13-53.75-28.13-39.11 0-64.26 30-64.26 30s-6.17 11 7.47 7.15c15.21-4.35 50.68-43.85 93.3-1.24l-1.73 1a42.44 42.44 0 0 0-24.45-8.14c-17.55 0-49.93 10.21-59.38 26.77-3.91 6.82 1.94 12.34 11 8.12 6.08-2.82 25.88-22.91 56.47-14.58-20.5 19.69-19.3 41-19.3 41 0 49.67 73.81 53 73.81 53 25.8 0 39-5.76 39-5.76 1.3 17.85 11.38 34.48 25.62 49.18-5.77 9.22-19.19 28.87-30 31.14-6.75 1.43-30.67 0-33.66-.75s-9-8.21-19.44-8.21-16.45 5.23-16.45 5.23-22.44 0-31.41-2.24-23.18-12.71-32.15-12-15.69 3.74-18.7 6.73-12.71 3-20.94 3.74S71.31 404.78 97.47 410s34.41 4.49 40.38 3.74 12 3 20.93 3 15-5.24 28.42-3.74 26.18 1.5 26.18 1.5 9.72 9 18.69 9.73 24.68-.75 27.68-3.74 23.2-1.49 28.42-1.49 20.89 5.48 26.17 3c10.75-5.07 27.36-27.18 32.22-33.9q6.78 4.89 13.84 9.31c-9.5 11.83-33.14 40.51-43.77 46.42-13.46 7.49-17.19 2.26-29.16 6s-18 7.47-22.44 15-14.95 9-19.44 9-14.21-5.24-23.19-2.25-17.19 11.21-17.19 11.21S183.53 485 175.3 485s-17.21-3-26.93-3-16.44 1.5-39.64 15 6.74 18.69 21.7 17.19 61.32-6.72 71-5.24 23.92 0 33.65-.73 17.21-8.22 20.2-11.21 13.45-1.5 16.45-3.74 20.97-5.33 29.22-8.27 15.72-12 19.44-18.69 25.44-18 37.4-24.68c6.77-3.81 17.86-14.57 26.2-23.19-1 6.62-.49 15.5-1.49 19-1.44 5-5.33 24.68-9.45 26.82s-10.1 16.74-11.7 25.52 5.6 20.22 5.6 20.22a236.12 236.12 0 0 0-5.54 25.38c-2 13.23-9.44 17.72-11.9 26.3s0 15.19-2.45 20.73-5.54 13.24-7 39.52 23.63-9.31 26.71-17 5.74-17 9.85-19.13 9.24-7.89 12.53-16.29-4.34-24.48-4.34-33.59 6.14-30.61 6.14-30.61a26.11 26.11 0 0 0 10.27-14.48c2.88-10-3.71-17.52-3.71-20.57s5-26.24 8.41-32.36c3.13-5.6 12.72-10.66 22.56-14.6a369.93 369.93 0 0 0 40.05.54c-34 91.92 14.28 98.5.81 174-6.26 35.16 20.86 79.57 34.85 117.71s3.32 61.45 3.32 61.45 160-35.66 160-203S533.3 382.41 533.3 382.41c-2.46-12.34-3.29-15.09-3.29-15.09C580.49 351.68 632.08 330 805.22 330c34.66 0 54.49-31.16 48.84-68.05-9.87-64.48 26.24-59.12 20-105.9"/>
  </g>
  <path d="M874.09 156l2.92-.39a58.21 58.21 0 0 0-6.4-20.67 39.68 39.68 0 0 0-18.9-17.41c-7.55-3.38-15.91-4.6-24.19-4.6-12.61 0-25.07 2.84-34.44 5.64a141.89 141.89 0 0 0-15.7 5.65l1.21 2.69 2.92-.37a64.61 64.61 0 0 1-.28-6.88c0-11 1.55-35.3 12-74.85a71.66 71.66 0 0 0 2.72-18.04 33 33 0 0 0-2-11.88 21.19 21.19 0 0 0-10.1-11.45C779.26 1 773.73 0 767.52 0c-10.21 0-22.39 2.76-35.85 7.48-40.34 14.16-92.35 46.17-132.16 78.22-40.62 32.73-77.82 81.82-105 122.76s-44.2 73.74-44.23 73.8l2.61 1.36 1.58-2.49a257.66 257.66 0 0 0-32.25-16.65c-19.12-8.3-44.29-16.66-68.84-16.68a93.49 93.49 0 0 0-16.25 1.36l.42 2.41v-2.45h-.42l.42 2.41v-.07l1.55-1.82a2.44 2.44 0 0 0-1.55-.56v2.38l1.55-1.82-.9 1.06 1.22-.71a1.47 1.47 0 0 0-.32-.35l-.9 1.06 1.22-.71a5.8 5.8 0 0 1-.33-.89c-.32-1-.73-2.69-1.25-4.71-1.84-7.11-5.22-18.8-14.61-28.74a52.36 52.36 0 0 0-19-12.7c-8.12-3.23-18.14-5.18-30.51-5.18h-.44a182.47 182.47 0 0 0-35.42 8.75l1 2.77 2.39-1.72a74 74 0 0 0-18.76-18.15 66.37 66.37 0 0 0-37.38-11.21c-20.33 0-36.94 7.79-48.44 15.5a93.06 93.06 0 0 0-18.08 15.56l-.18.21-.14.24a16.53 16.53 0 0 0-.87 1.89 12 12 0 0 0-.9 4.23 6.88 6.88 0 0 0 .34 2.18 5.6 5.6 0 0 0 2.45 3.06 7.94 7.94 0 0 0 4.14 1 21.15 21.15 0 0 0 5.7-.95 45.66 45.66 0 0 0 9.75-4.76c5.36-3.17 11.63-7.19 18.68-10.39s14.82-5.58 23.15-5.58a44.43 44.43 0 0 1 18.41 4c6.46 2.9 13.29 7.57 20.41 14.68l2.08-2.08-1.43-2.57-1.75 1 1.46 2.56 1.71-2.4a45.37 45.37 0 0 0-26.14-8.59c-9.32 0-22 2.64-33.83 7.39a81.38 81.38 0 0 0-16.46 8.76 39.3 39.3 0 0 0-11.65 12.11 11.36 11.36 0 0 0-1.62 5.61 8 8 0 0 0 2.71 6.13 9.8 9.8 0 0 0 6.56 2.26 17.2 17.2 0 0 0 7.18-1.75 21.68 21.68 0 0 0 2.73-1.6 116.51 116.51 0 0 1 14.54-9 50.94 50.94 0 0 1 37.2-3.78l.77-2.84-2-2.12a66.68 66.68 0 0 0-17.29 26.52 50.82 50.82 0 0 0-2.93 15.92v.84l2.94-.17h-2.95a44 44 0 0 0 12.34 31.25c11.06 11.61 27.11 17.61 40.36 20.9a136.16 136.16 0 0 0 23.89 3.75h.13c26.24 0 39.82-5.87 40.15-6l-1.18-2.7-2.94.21a66.67 66.67 0 0 0 8.31 27 111.61 111.61 0 0 0 18.14 24.06l2.12-2-2.5-1.56a155.72 155.72 0 0 1-12.85 17.82 62.89 62.89 0 0 1-8.07 8.06 18.48 18.48 0 0 1-7.21 3.94 27.47 27.47 0 0 1-3.78.41c-1.64.09-3.59.14-5.67.14-4.65 0-10-.21-14.4-.48-2.2-.14-4.17-.29-5.69-.44-.76-.07-1.41-.15-1.9-.21s-.85-.13-.89-.14a13.21 13.21 0 0 1-2.16-1.37c-3.39-2.39-9.32-6.93-18-6.93a31.62 31.62 0 0 0-13.4 2.89 22.39 22.39 0 0 0-5 3.07l1.94 2.22v-2.95h-1c-2.18 0-7.79-.08-13.8-.39-3-.15-6.1-.37-8.9-.66a54.35 54.35 0 0 1-7-1.1 40 40 0 0 1-6.73-2.6c-3.84-1.79-8.16-4.1-12.45-6s-8.57-3.45-12.74-3.48h-1.19a45.64 45.64 0 0 0-12.39 2.71 23.51 23.51 0 0 0-8.14 4.87 5.42 5.42 0 0 1-2.13 1 41.28 41.28 0 0 1-7.53 1.17c-3 .26-6.3.44-9.47.73a53.07 53.07 0 0 0-8 1.68 104.46 104.46 0 0 0-15.9 5.68 33.66 33.66 0 0 0-6.44 3.77 11.53 11.53 0 0 0-2.3 2.34 5.89 5.89 0 0 0-1.16 3.38 5.17 5.17 0 0 0 1.07 3.12 9.36 9.36 0 0 0 3.92 2.79 31.52 31.52 0 0 0 6.08 1.75c17 3.4 26.61 4.33 33.07 4.33a61.53 61.53 0 0 0 8.26-.56 10.24 10.24 0 0 1 1.26-.07 34.92 34.92 0 0 1 7.94 1.46 45.73 45.73 0 0 0 11.37 1.64c4.45 0 8.12-1.13 11.72-2.11a42.65 42.65 0 0 1 12-1.9 39.68 39.68 0 0 1 4.39.25c13.66 1.52 26.44 1.52 26.5 1.52v-3.04l-2 2.16a54 54 0 0 0 6.36 4.88c3.77 2.46 8.72 5.14 14.09 5.62 1.64.14 3.44.2 5.33.2a94.42 94.42 0 0 0 14.15-1.07 42.8 42.8 0 0 0 6-1.33 17.09 17.09 0 0 0 2.43-.95 7.82 7.82 0 0 0 2.1-1.44l-.52-.53.42.62.11-.09-.52-.53.42.62h.06a6.44 6.44 0 0 1 1.43-.42 55.93 55.93 0 0 1 9.91-.64c3 0 6.05.09 8.72.18s4.9.19 6.33.19a23.16 23.16 0 0 1 3.76.51c2.54.49 5.76 1.26 9 1.92a51.43 51.43 0 0 0 9.52 1.21 12.09 12.09 0 0 0 5.11-.93 41.28 41.28 0 0 0 9.63-7 153.71 153.71 0 0 0 14.12-15.37c4.25-5.2 7.75-9.92 9.6-12.48l-2.39-1.73-1.72 2.39q6.85 4.95 14 9.42l1.56-2.5-2.3-1.84c-4.73 5.89-13 16-21.36 25.31-4.18 4.66-8.39 9.12-12.17 12.75a53.4 53.4 0 0 1-9.38 7.63 32.81 32.81 0 0 1-7.85 3.29 33.91 33.91 0 0 1-9 .77 37.61 37.61 0 0 0-11.8 1.7c-6.11 1.91-10.85 3.86-14.76 6.42a29.36 29.36 0 0 0-9.32 9.82 12.2 12.2 0 0 1-3.47 3.67 21 21 0 0 1-7.16 3.07 28 28 0 0 1-6.25.79 11.83 11.83 0 0 1-2.47-.41c-1.71-.41-3.93-1.09-6.43-1.68a36.41 36.41 0 0 0-8.27-1.08 21.88 21.88 0 0 0-7 1.07 46.17 46.17 0 0 0-12.81 7.18 60.25 60.25 0 0 0-5.53 4.74l2.08 2.08-.3-2.93-3.5.35c-3.23.31-8.27.79-13.26 1.18s-9.94.71-12.85.7a78 78 0 0 1-12.42-1.46 87.5 87.5 0 0 0-14.47-1.53 42.94 42.94 0 0 0-15.75 2.6c-6.1 2.17-13.7 6-25.37 12.76a30.9 30.9 0 0 0-7.22 5.43 11.74 11.74 0 0 0-2 2.85 7.39 7.39 0 0 0-.76 3.19 6.69 6.69 0 0 0 1.08 3.61 11.63 11.63 0 0 0 4.8 3.93 38 38 0 0 0 10.28 3 73.11 73.11 0 0 0 11.6.93c2 0 3.93-.09 5.69-.26 6.59-.66 19.19-2 32.08-3.24s26.08-2.25 33.59-2.25a34.34 34.34 0 0 1 4.63.23 70.65 70.65 0 0 0 10.54.68c8.23 0 17.13-.89 23.79-1.39a29.37 29.37 0 0 0 14-5.26 53.72 53.72 0 0 0 8-6.81 1.81 1.81 0 0 1 .53-.31 12 12 0 0 1 2.92-.69c1.9-.27 4.21-.38 6.4-.61a24.51 24.51 0 0 0 3.21-.52 8.43 8.43 0 0 0 3.08-1.34 7.7 7.7 0 0 1 1.29-.57c1.25-.46 3.17-1 5.38-1.57 3.33-.85 7.36-1.77 11.25-2.72s7.62-1.93 10.49-3a34.88 34.88 0 0 0 12.51-8.66 55.38 55.38 0 0 0 8.5-11.37 10 10 0 0 1 1.69-2.06 48.72 48.72 0 0 1 6.5-5.11c8.18-5.6 20.18-11.94 28.08-16.38 3.79-2.14 8.3-5.87 13-10.18s9.62-9.19 13.83-13.53l-2.12-2-2.91-.44a101.08 101.08 0 0 0-.77 11c-.06 1.74-.12 3.35-.22 4.69a16.5 16.5 0 0 1-.41 2.92c-.4 1.39-.9 3.54-1.54 6.12-.94 3.85-2.15 8.6-3.45 12.47a35.72 35.72 0 0 1-2 4.85 8.77 8.77 0 0 1-.83 1.34l-.24.27.33.45-.26-.5h-.07l.33.45-.26-.5a8.91 8.91 0 0 0-2.44 2 27.22 27.22 0 0 0-3.42 5.11 79.48 79.48 0 0 0-7.36 20.54 17.85 17.85 0 0 0-.29 3.3 33.86 33.86 0 0 0 3.15 13 49.13 49.13 0 0 0 3.12 6l2.6-1.45-2.83-.81a238.68 238.68 0 0 0-5.62 25.74 34.12 34.12 0 0 1-5.38 13.78c-1.16 1.86-2.4 3.66-3.54 5.62a28.27 28.27 0 0 0-2.9 6.54 40.79 40.79 0 0 0-1.33 11.77v1.07c0 3.19-.11 5.61-1 7.51a57.71 57.71 0 0 0-4.06 12.57c-1.3 6.12-2.44 14.75-3.15 28 0 .77-.06 1.5-.06 2.19a15.8 15.8 0 0 0 1.27 7.02 6.28 6.28 0 0 0 2.12 2.44 5.56 5.56 0 0 0 3.07.89 8.86 8.86 0 0 0 4.28-1.28 30.43 30.43 0 0 0 6.67-5.56 97.26 97.26 0 0 0 9.31-11.75c1.35-2 2.55-3.87 3.52-5.53a34.27 34.27 0 0 0 2.19-4.25c1.57-3.95 3-8.17 4.5-11.55a27.28 27.28 0 0 1 2.22-4.21 5.63 5.63 0 0 1 1.76-1.85 24.91 24.91 0 0 0 7.51-6.57 43.34 43.34 0 0 0 6.4-11.25 17 17 0 0 0 1-6.17c0-4.95-1.38-10.33-2.67-15.45-.65-2.55-1.28-5-1.75-7.26a30.06 30.06 0 0 1-.75-5.79 51.65 51.65 0 0 1 .92-8.12c.84-4.82 2.12-10.25 3.19-14.45.54-2.11 1-3.91 1.37-5.18l.41-1.48.15-.52-2.83-.81 1.52 2.52a24 24 0 0 0 4.69-4 30 30 0 0 0 6.89-12.19 21.48 21.48 0 0 0 .84-5.95 27.26 27.26 0 0 0-2.42-10.68c-.59-1.38-1.15-2.56-1.52-3.45a11 11 0 0 1-.39-1l-.06-.25-.5.05h.51v-.05l-.5.05h.51-2.29 2.29-2.29 2.29a15.5 15.5 0 0 1 .19-1.58c.47-3.11 1.76-9.34 3.29-15.34.76-3 1.59-6 2.39-8.46a34.55 34.55 0 0 1 2.17-5.54 13.4 13.4 0 0 1 2.8-3.43c4-3.54 11-7.1 18.24-10l-1.1-2.73-.23 2.94c8.72.67 17.53.86 24.7.86 9.2 0 15.69-.31 15.72-.31l-.14-2.94-2.76-1c-9.31 25.13-12.58 44.14-12.58 60 0 17.59 4 31.17 7.94 44.6s7.7 26.75 7.71 44.45a144.42 144.42 0 0 1-2.39 25.42 65 65 0 0 0-1 11.42c0 17.26 6 35.67 13.38 54.08s16.36 36.8 22.57 53.75c5.41 14.75 7 27.15 7 36.74a71.62 71.62 0 0 1-1.87 16.85 43.72 43.72 0 0 1-1.26 4.3c-.17.47-.31.82-.4 1l-.1.24.34.15-.34-.16.34.15-.34-.16-2.48 5.4 5.79-1.29c.24-.06 40.57-9 81.1-39.27 20.26-15.11 40.56-35.56 55.79-62.87s25.37-61.46 25.37-103.77-8.4-75.51-21.2-101.74a172 172 0 0 0-72-75.81c-24-13.29-43.14-16.75-43.36-16.79l-.52 2.9 2.89-.57c-2.47-12.39-3.31-15.18-3.36-15.37l-2.82.85.87 2.81c25.34-7.85 50.62-17.1 91.26-24.44s96.63-12.75 183.08-12.75c16.15 0 29.53-6.51 38.65-17.17s14.11-25.28 14.11-41.5a84.27 84.27 0 0 0-1-12.77 133.54 133.54 0 0 1-1.69-20.19 72.3 72.3 0 0 1 3.37-23c3-9.2 7.58-15.86 11.66-23.48s7.48-16.21 7.46-28.49a81.17 81.17 0 0 0-.75-10.68l-2.92.39-2.92.39a74.92 74.92 0 0 1 .7 9.9 48.9 48.9 0 0 1-3.31 18.32c-3 7.69-7.65 14.14-11.76 22.6s-7.42 18.87-7.41 34a139.4 139.4 0 0 0 1.75 21.08 78.53 78.53 0 0 1 .92 11.88c0 15-4.59 28.26-12.67 37.66s-19.61 15.1-34.18 15.12c-86.69 0-143.05 5.43-184.12 12.84s-66.82 16.82-92 24.61l-2.79.87.85 2.8h.08-.08.08-.08c.06.19.93 3.29 3.22 14.81l.39 2 2 .36h.07c1.75.32 34.81 6.92 67.23 33.64a165.56 165.56 0 0 1 44.35 56.92c12 25.2 20.09 57.25 20.09 98.06 0 41.37-9.87 74.44-24.62 100.9-22.13 39.67-55.38 64.51-83.17 79.43a241.93 241.93 0 0 1-35.41 15.53c-4.51 1.55-8.14 2.63-10.64 3.32-1.25.35-2.21.6-2.86.76l-.73.18-.23.05.64 2.88 2.68 1.23c.14-.3 4.18-9.25 4.18-24.94 0-10.25-1.73-23.37-7.39-38.77-6.37-17.34-15.32-35.77-22.64-53.92s-13-36-13-51.87a59.23 59.23 0 0 1 .88-10.39 149.94 149.94 0 0 0 2.48-26.45c0-18.56-4-32.65-7.94-46.1s-7.7-26.28-7.71-43c0-15 3.08-33.29 12.21-58l1.55-4.18-4.45.21h-1.12c-2.21.09-7.52.26-14.32.26-7.06 0-15.75-.19-24.25-.84l-.68-.05-.64.25a97 97 0 0 0-14.24 6.9c-4.23 2.61-7.77 5.43-9.8 9a26.25 26.25 0 0 0-1.53 3.42 149.14 149.14 0 0 0-4.79 17.42c-.69 3-1.27 5.81-1.69 8.07-.21 1.13-.38 2.12-.5 2.95a16 16 0 0 0-.2 2.1h2.95-2.95a6.66 6.66 0 0 0 .31 1.92 24.72 24.72 0 0 0 1.16 2.89c1.34 2.94 3 6.52 3 10.62a15.52 15.52 0 0 1-.61 4.32 24.08 24.08 0 0 1-5.53 9.8 21.86 21.86 0 0 1-2.51 2.32c-.32.25-.57.42-.73.53l-.17.11.54.87-.53-.88.54.87-.53-.88-1 .6-.32 1.11s-1.55 5.42-3.11 12c-.78 3.29-1.56 6.87-2.15 10.25a56.7 56.7 0 0 0-1 9.13 35.47 35.47 0 0 0 .87 7c.76 3.65 1.85 7.55 2.74 11.3a47 47 0 0 1 1.55 10.21 11.19 11.19 0 0 1-.62 4 37.5 37.5 0 0 1-5.51 9.72 19.28 19.28 0 0 1-5.64 5 11.16 11.16 0 0 0-3.91 3.77 42.75 42.75 0 0 0-3.93 8c-1.16 2.95-2.26 6.05-3.38 8.86a23.41 23.41 0 0 1-1.21 2.43 101.07 101.07 0 0 1-10 14.33 46.91 46.91 0 0 1-5.83 6 13.7 13.7 0 0 1-2.31 1.57 2.91 2.91 0 0 1-1.12.38l-.05.39.25-.3-.2-.09-.05.39.25-.3-.07.08.07-.07-.07.08.07-.07a2.62 2.62 0 0 1-.44-1.07 15 15 0 0 1-.34-3.58c0-.57 0-1.2.05-1.87.7-13 1.82-21.39 3-27.08a51.77 51.77 0 0 1 3.68-11.4c1.47-3.36 1.47-6.68 1.48-9.9v-1.07a35.12 35.12 0 0 1 1.11-10.14 22.47 22.47 0 0 1 2.32-5.19c1.49-2.57 3.47-5.24 5.32-8.64a38.35 38.35 0 0 0 4.34-12.83c1-6.49 2.38-12.76 3.49-17.4.56-2.32 1.05-4.23 1.4-5.56.18-.66.32-1.18.42-1.53l.15-.52.36-1.27-.7-1.12a44.55 44.55 0 0 1-2.82-5.53 27.91 27.91 0 0 1-2.53-10.33 12.06 12.06 0 0 1 .19-2.21 73.63 73.63 0 0 1 4.65-14.59 46.86 46.86 0 0 1 3.23-6.23 15.43 15.43 0 0 1 1.43-1.94 3.63 3.63 0 0 1 .78-.71 7.38 7.38 0 0 0 2.62-2.54 29.36 29.36 0 0 0 2.87-6.2c1.27-3.58 2.39-7.74 3.32-11.45s1.68-7 2.11-8.43a21.41 21.41 0 0 0 .62-4.09c.17-2.27.23-4.91.34-7.59a73.48 73.48 0 0 1 .61-7.67l1.37-9.1-6.4 6.61c-4.15 4.28-9 9.09-13.56 13.27s-9 7.74-12 9.4h.08-.08c-5.94 3.34-14.38 7.84-21.87 12.39a117.66 117.66 0 0 0-10.14 6.77 40.66 40.66 0 0 0-3.83 3.28 15.62 15.62 0 0 0-2.7 3.38 49.61 49.61 0 0 1-7.52 10.16c-3.16 3.25-6.81 6-10.3 7.23-3.8 1.39-10.34 2.9-16.23 4.3-3 .71-5.77 1.39-8.09 2.06-1.16.34-2.21.67-3.12 1a10.32 10.32 0 0 0-2.49 1.27 8 8 0 0 1-2.44.59c-2 .27-4.57.37-7.09.69a21.86 21.86 0 0 0-3.73.76 8.36 8.36 0 0 0-3.48 2 48 48 0 0 1-7.14 6.09 23.56 23.56 0 0 1-11.21 4.27c-6.76.51-15.52 1.37-23.34 1.37a64.32 64.32 0 0 1-9.62-.63 38.69 38.69 0 0 0-5.52-.3c-8 0-21.19 1.06-34.14 2.27s-25.57 2.59-32.11 3.24c-1.53.16-3.27.23-5.11.23a60.12 60.12 0 0 1-15.68-2 17 17 0 0 1-5.05-2.21 3.77 3.77 0 0 1-1-.95.79.79 0 0 1-.16-.45 1.54 1.54 0 0 1 .19-.65 8 8 0 0 1 2-2.33 30.71 30.71 0 0 1 4.89-3.39l-.11.06.11-.06c11.53-6.69 18.9-10.36 24.38-12.3a36.93 36.93 0 0 1 13.78-2.26 82.12 82.12 0 0 1 13.53 1.47 82.92 82.92 0 0 0 13.39 1.54c4.34 0 11.8-.57 18.3-1.14s11.91-1.13 11.92-1.13l1-.11.74-.74a56.21 56.21 0 0 1 5.21-4.43 40.06 40.06 0 0 1 10.81-6.06 16 16 0 0 1 5.09-.77 36.06 36.06 0 0 1 9.15 1.49c1.46.39 2.84.79 4.16 1.11a16.89 16.89 0 0 0 3.86.58 33.85 33.85 0 0 0 10.7-1.85 24.8 24.8 0 0 0 6.15-3.11 18.08 18.08 0 0 0 5.12-5.45 23.39 23.39 0 0 1 7.51-7.93c3.2-2.11 7.43-3.9 13.28-5.72 5.52-1.71 8.84-1.36 13.21-1.46a31.13 31.13 0 0 0 7.25-.92 38.7 38.7 0 0 0 9.25-3.85c3.1-1.74 6.63-4.75 10.59-8.53 11.79-11.33 26.87-29.7 34-38.62l2.08-2.59-2.77-1.78q-7-4.35-13.67-9.2l-2.38-1.7-1.73 2.38c-2.4 3.31-7.73 10.47-13.74 17.36a123.53 123.53 0 0 1-9.21 9.61 36 36 0 0 1-8.15 6 6.78 6.78 0 0 1-2.61.37 61.63 61.63 0 0 1-11.5-1.75c-2.08-.45-4.1-.91-5.93-1.26a27.46 27.46 0 0 0-4.88-.62c-1.18 0-3.44-.09-6.12-.19s-5.83-.19-8.92-.19a78.92 78.92 0 0 0-8.75.39 22.64 22.64 0 0 0-3.58.67 7.14 7.14 0 0 0-3.13 1.67 7.79 7.79 0 0 1-2.32 1 49.05 49.05 0 0 1-8.28 1.52 92 92 0 0 1-9.91.55c-1.76 0-3.42-.06-4.85-.18-3.61-.27-8-2.45-11.34-4.67-1.67-1.1-3.09-2.19-4.09-3-.49-.4-.88-.73-1.14-1l-.29-.26-.07-.06-.85-.78h-1.7c-2.56 0-13.7-.18-25.3-1.48a45.31 45.31 0 0 0-5-.29 48.54 48.54 0 0 0-13.56 2.11c-3.71 1-6.76 1.91-10.16 1.9a40 40 0 0 1-10-1.46 39.43 39.43 0 0 0-9.35-1.64 15.92 15.92 0 0 0-2 .12 55.3 55.3 0 0 1-7.52.51c-5.87 0-15.11-.85-31.91-4.21l.32.06-.32-.06a20.36 20.36 0 0 1-5.8-1.82 2.36 2.36 0 0 1-.65-.48l-.37.28.43-.15-.06-.13-.37.28.43-.15-.85.3h.9l-.05-.3-.85.3h.21l.68.17v-.17h-.7l.68.17-.24-.06.23.08-.24-.06.23.08.19-.29a8.1 8.1 0 0 1 1.68-1.47 36.4 36.4 0 0 1 6.08-3.24 101 101 0 0 1 11.88-4.22c1.92-.56 3.71-1 5.22-1.36a29.72 29.72 0 0 1 3.44-.61c4-.37 8.52-.55 12.52-1a35.18 35.18 0 0 0 5.61-1.07 10.73 10.73 0 0 0 4.62-2.48 18 18 0 0 1 6.08-3.54 39.79 39.79 0 0 1 10.78-2.34h.69a20.13 20.13 0 0 1 6.46 1.4 120.79 120.79 0 0 1 12.13 5.55c4.16 2.05 8.17 4 11.9 5h.1-.09a65.22 65.22 0 0 0 9.13 1.37c10.3 1 22.95 1 23 1h1.11l.83-.73-.84-1 .82 1-.84-1 .82 1a17.7 17.7 0 0 1 3.86-2.28 25.78 25.78 0 0 1 10.67-2.23 20.46 20.46 0 0 1 11 3.39c1.46.9 2.75 1.86 3.94 2.69.6.42 1.17.81 1.77 1.16a7.77 7.77 0 0 0 2 .88 14.38 14.38 0 0 0 1.55.27c2.07.28 5.6.56 9.74.79s8.81.39 13 .39c2.16 0 4.2 0 6-.15a32.45 32.45 0 0 0 4.66-.53 24 24 0 0 0 9.69-5.11 82.23 82.23 0 0 0 12.89-13.81c3.86-5 7.14-10 9.34-13.53l1.22-2-1.61-1.66a105.83 105.83 0 0 1-17.19-22.77 60.79 60.79 0 0 1-7.52-24.67l-.3-4.15-3.82 1.67.43 1-.43-1 .43 1-.43-1c-.09 0-12.83 5.51-37.79 5.52v2.95l.13-2.94h-.12c-2-.1-20.17-1.32-37.49-8.31-8.66-3.48-17.07-8.4-23.21-15.14a38 38 0 0 1-10.12-26.55v-.68a45.08 45.08 0 0 1 2.62-14 60.77 60.77 0 0 1 15.79-24.18l3.75-3.6-5-1.37a58.36 58.36 0 0 0-15.4-2.11 59.5 59.5 0 0 0-28.8 7.78 104.25 104.25 0 0 0-9.18 5.75c-1.22.84-2.28 1.59-3.16 2.17a17 17 0 0 1-1.94 1.17 11.39 11.39 0 0 1-4.7 1.2 4 4 0 0 1-2.67-.8 2.12 2.12 0 0 1-.71-1.7 5.53 5.53 0 0 1 .84-2.69 33.58 33.58 0 0 1 9.91-10.25c6.59-4.68 15.2-8.49 23.73-11.09s17-4 23.15-4a39.52 39.52 0 0 1 22.74 7.59l1.53 1.1 1.64-.93 1.7-1 3.41-1.9-2.76-2.76c-7.54-7.53-14.95-12.66-22.16-15.9a50.35 50.35 0 0 0-20.82-4.56c-12.62 0-23.69 4.76-32.76 9.71-4.54 2.48-8.59 5-12.07 7.08a41.14 41.14 0 0 1-8.37 4.16 15.53 15.53 0 0 1-4.08.72 3.28 3.28 0 0 1-1-.12h-.1l-.19.25.29-.12-.11-.13-.19.25.29-.12a1 1 0 0 1 0-.32 6.52 6.52 0 0 1 .5-2.11c.14-.36.28-.66.38-.87l.12-.23-.25-.14.25.14-.25-.14.25.14-2.57-1.44 2.26 1.89a88.51 88.51 0 0 1 17.35-14.78c10.83-7.17 26.15-14.17 44.64-14.16a60.44 60.44 0 0 1 34.11 10.22 68.14 68.14 0 0 1 17.25 16.68l1.3 1.81 2.1-.77a176.65 176.65 0 0 1 34.28-8.46l-.44-2.91v2.95c15.27 0 26.31 3.12 34.42 7.64a44.63 44.63 0 0 1 13.94 12.06 57.94 57.94 0 0 1 9.29 19.57c.81 2.84 1.35 5.26 1.88 7.13a14.56 14.56 0 0 0 .92 2.56 4.86 4.86 0 0 0 1 1.33 3.66 3.66 0 0 0 1 .69 3.43 3.43 0 0 0 1.45.33l.59-.05a87.66 87.66 0 0 1 15.23-1.27c23.2 0 47.79 8.05 66.49 16.19 9.35 4.06 17.24 8.13 22.77 11.18 2.77 1.52 4.95 2.79 6.43 3.67l1.69 1 .43.26.13.08 2.71 1.72 1.48-2.85.77-1.46A924.65 924.65 0 0 1 504.62 204c26.42-39 61.3-83.7 98.59-113.72a575.57 575.57 0 0 1 87.88-58.15A317.58 317.58 0 0 1 733.62 13c13.08-4.59 24.76-7.16 33.9-7.15a34.8 34.8 0 0 1 9.77 1.24 16.48 16.48 0 0 1 9.36 6.38c2.13 3.08 3.4 7.37 3.4 13.26a65.8 65.8 0 0 1-2.5 16.57c-10.58 40-12.21 64.83-12.21 76.36a67.27 67.27 0 0 0 .32 7.63l.5 3.94 3.62-1.63h.06a139.39 139.39 0 0 1 15.8-5.6c8.91-2.62 20.53-5.14 31.89-5.14 10.27 0 20.23 2.06 28 7.63a33.9 33.9 0 0 1 10 11.34 52.37 52.37 0 0 1 5.71 18.6z" fill="#fff"/>
  <g clip-path="url(#a)">
    <path d="M469.36 295.15s71.59-127.43 123.77-174.77C651.83 67.14 786.95-29 767.95 57.27c-20.21 91.69-3.3 94.66-3.3 94.66s102.08-46.65 91.91 6.58c-8.22 43.08-22.43 42.55-23 72.16-.82 39.79 21.47 83.31-66.41 80.4-198.2-6.58-246.2 43.07-248.66 37.32-6.56-15.32-49.13-53.24-49.13-53.24" fill="#b2b2b2"/>
  </g>
  <g clip-path="url(#b)" fill-rule="evenodd">
    <path d="M485.22 315.06s64.84-106.35 78-131.86 25.52-34.85 25.52-34.85-16.47 17.65-16.47 45.83c0 10.7 27.7-16.24 39.78-35.67 14-22.5 38.67-72.7 55.43-82 0 0-38.68 56.52-36.21 74.64s73-59 91.92-103.73c0 0-8.52 48.56-58.19 101 0 0 32.28-11.18 52.43-23.86 0 0-11.63 17.57-74.64 46.37-35.5 16.23-31.94 16.34-54.07 31.56-26.33 18.1-24.68 13.17-40.62 39-13.94 22.6 107.23-79.56 215.06-110.3l1.7 20.8s-133.35 31.64-271.1 168.55l-8.54-5.49"/>
    <path d="M504.13 332.14s79.93-69.56 127.55-90.92c0 0 39.35-53.1 12.2-3.66 0 0 39.22-8 52.68-22.81s49.95-44.72 63.1-48.83c0 0-29.9 27.44-35.66 42.25s75.44-18.92 112.77-57.9c0 0-27.16 39.8-47.2 50.49s10.41 10.16 31.28-3.3c0 0-9.06 25.52-61.19 24.69s-124.3 30.21-154.2 46.66c0 0 73.63 18.84 99.32 3.29a151.66 151.66 0 0 0 34-28.26l-16.46 28.26s29.91 17.29 73-27.44c0 0-11.5 18.39-19.2 26.62s34-4.12 39.8-25.8c0 0 9.34 20-20.59 32.38s-82.85 11.54-150.08 12.35c-58.21.72-37.25-12.78-80.39 12.63-44.56 26.26-52.8 41.21-52.8 41.21l-7.93-11.91"/>
  </g>
  <path d="M489.4 423.84s-18.92 33.74-9 66.12 13.17 46.37 10.7 76.29-.27 76.27 14 100.43 32.37 73.51 24.14 85.32 113.59-55.94 113.59-181.35-108.36-171.78-119.34-171-34 24.14-34 24.14"/>
  <g clip-path="url(#c)" fill="#fdb813">
    <path d="M481.17 438.65s31.55 14 77.1-32.37-38.14-16.45-38.14-16.45l-35.68 20.57-3.28 28.26m-8.52 39.78s53.78 9.34 109.49-49.66l17.55 14.81s-25.5 62.28-120.16 59.82l-6.88-25m13.46 55.73s84.22 4.12 137.46-61.46l12.63 27.45s-74.62 78.75-151.73 50.49l1.64-16.48m.84 57.86s95.47 16 158.3-55.39l4.13 34S584.06 637 486.95 609.6V592m4.92 55.74s62.3 23.05 148.44-20.85l-10.14 34.84s-49.67 25.51-132.53 9.06l-5.76-23.05m31.38 61.36s43.62 18.93 69.41 0l-30.44 30.74-35.66 18.38-3.31-49.12"/>
  </g>
  <path d="M245.46 243.44c0-4.33 5-7.82 11.26-7.82s11.26 3.5 11.26 7.82-5 7.82-11.26 7.82-11.26-3.5-11.26-7.82M78.43 821.64v4.9c-5.61.17-9.62.65-12 1.42q-6.35 2.21-6.35 8a17.86 17.86 0 0 0 .69 5c.55 1.64 1.32 3.75 2.33 6.34l40.85 99.5 30.1-74.66-13.39-31.92q-3.74-8.77-11.18-11.74-4.44-1.82-13.4-1.95v-4.9h75.68v4.9c-7.09.08-12 .57-14.64 1.42-4.24 1.47-6.36 4.48-6.36 9a14.09 14.09 0 0 0 .55 4.13c.37 1.13 1.28 3.48 2.76 7.1l40.88 99.25 35.34-89.76a73.17 73.17 0 0 0 4.14-13.57 28 28 0 0 0 .69-5.42q0-7.35-7.46-10.2-4.13-1.7-12.42-1.95v-4.9h56.11v4.9c-5.07.69-8.93 1.78-11.6 3.23-4.8 2.5-8.38 6.81-10.77 12.91l-30.11 78.67-11.73 30.36-17 48.06h-4.28l-11.47-30.61-33.69-81.38-43.5 112h-4.25l-20.29-55-24.31-61.85q-15.07-38.26-21-46.91t-18.23-9.43v-4.9h69.32" fill="#fff"/>
  <g clip-path="url(#a)" fill="#fff">
    <path d="M372.2 971.86c11.23 12.3 29.94 18.48 46.6 18.48a35.74 35.74 0 0 0 23.34-8q9.95-8 10-22.34 0-12.93-10-22.47-6.5-6.08-27.34-18.23l-24.16-14.07a85.94 85.94 0 0 1-17.41-13.05q-12-12.52-12-27.64 0-20 14.23-33.33t37.69-13.31q9.66 0 23.19 4.53 13.69 4.41 15.62 4.4 5.23 0 7.18-2.33a15.73 15.73 0 0 0 3.17-6.6h5.8l6.21 56.33h-6.77q-6.9-25.46-22.24-35.52-15.17-10.06-30.1-10.07a33.21 33.21 0 0 0-20.3 6.45q-8.56 6.34-8.56 17.7a24.85 24.85 0 0 0 6.6 17.39q6.63 7.38 20.57 15.37l24.86 14.36q23.34 13.43 32.86 24.65a41 41 0 0 1 9.4 26.88q0 20.79-16.84 34.74t-42.82 14a89.07 89.07 0 0 1-27.47-4.63q-14.24-4.68-16.29-4.67c-3.32 0-11.49-26-5-19m259.63-28.45q7.18 17.84 16.84 28.42 16.84 18.45 41.84 18.48a35.74 35.74 0 0 0 23.33-8c6.63-5.33 9.95-12.79 9.95-22.33q0-12.94-9.95-22.48-6.49-6.08-27.35-18.23l-24.16-14.08a86.78 86.78 0 0 1-17.4-13.05q-12-12.52-12-27.64 0-20 14.21-33.33t37.7-13.31q9.65 0 23.2 4.53t15.6 4.4c3.49 0 5.9-.78 7.19-2.33a15.61 15.61 0 0 0 3.17-6.6h5.8l6.22 56.33h-6.76q-6.91-25.46-22.23-35.52t-30.1-10.08a33.22 33.22 0 0 0-20.31 6.45q-8.55 6.34-8.56 17.7a24.81 24.81 0 0 0 6.63 17.43q6.61 7.39 20.57 15.38l24.85 14.35q23.34 13.43 32.88 24.65a41 41 0 0 1 9.39 26.88q0 20.79-16.87 34.74-16.7 14-42.79 14a89 89 0 0 1-27.48-4.63c-9.5-3.11-14.91-4.67-16.31-4.67q-5 0-6.76 2.85a18.16 18.16 0 0 0-2.21 6.07h-6.23l-8.41-56.32h6.49"/>
  </g>
  <path d="M204.45 996.66v-4.78q10.9-1.16 16.29-7.75t18.78-35.77l59-129.83h5.52l70.43 150q7 15 11.18 18.62c2.85 2.32 7.59 3.9 14.23 4.77v4.78h-72v-4.78c8.29-.68 13.64-1.51 16-2.45s3.59-3.49 3.59-7.36a30.82 30.82 0 0 0-1.38-6.85 72.08 72.08 0 0 0-3.86-10.33l-11.75-25.46h-74q-11.08 26-13.26 31.78a28.4 28.4 0 0 0-2.07 9q0 6.72 5.8 9.31 3.59 1.55 13.54 2.32v4.78h-56.04m122.07-67.94l-32.72-72.86-32.32 72.86h65zm151.16 63.16q16.16-1.41 20.16-5.94c2.67-3.1 4-10.13 4-21.05V850.3c0-9.2-1.52-15.29-4.56-18.21s-9.48-4.77-19.61-5.56v-4.9h74.58q35.88 0 55 13t19 34.36q0 27-21.12 39.15t-52.88 12.18c-3 0-7-.05-11.75-.13s-8.19-.27-10.49-.27V968q0 15 4.83 18.86t22 5v4.78h-79.16v-4.78m95.42-155.52q-12-4.89-30.38-4.92c-5.8 0-9.39.58-10.76 1.7s-1.94 3.41-1.94 7.09v69c5.06.42 8.37.68 10 .77s3.06.13 4.55.13q19.48 0 30.65-5.17 20.3-9.43 20.3-35.26 0-24.3-22.37-33.33" fill="#fff" fill-rule="evenodd"/>
</svg>
