<svg viewBox="0 0 879.95 1000">
  <defs>
    <clipPath id="a" transform="translate(-59.96)">
      <path fill="none" d="M60.09 0H939.9v1000H60.09z"/>
    </clipPath>
    <clipPath id="b" transform="translate(-59.96)">
      <path d="M816.27 19.87c-36.12 0-117 59.87-158.92 97.91C605 165.27 533.2 293.12 533.2 293.12s42.69 38 49.28 53.4c1.22 2.87 13.71-8 50.27-18.78 37.11-11 99-22 199.1-18.65 88.17 2.93 65.78-40.73 66.61-80.64.62-29.72 14.87-29.18 23.12-72.4 10.2-53.4-92.2-6.6-92.2-6.6s-17-3 3.31-95c5.47-24.86-1.82-34.61-16.39-34.61" fill="none"/>
    </clipPath>
    <clipPath id="c" transform="translate(-59.96)">
      <path d="M587.43 398c-11 .83-34.14 24.22-34.14 24.22s-19 33.85-9.07 66.32 13.2 46.52 10.72 76.52-.28 76.52 14 100.74 32.48 73.75 24.22 85.6S707.1 695.27 707.1 569.47C707.15 444.78 600.35 398 587.75 398h-.31" fill="none"/>
    </clipPath>
  </defs>
  <g clip-path="url(#a)">
    <path d="M6.65 418.67c17.39-110.06 206.39-171.6 422.13-137.42s376.43 151.09 359 261.16S581.35 714 365.65 679.83s-376.42-151.08-359-261.16" fill="#fdb813"/>
    <path d="M6.65 418.67l5.29.84c3.37-21.21 13.41-40.57 29.32-57.9 23.84-26 61-47.21 107.41-61.81s102.07-22.63 162.75-22.63a746.93 746.93 0 0 1 116.52 9.37c101.78 16.11 191.19 50.83 254.81 94.26 31.82 21.71 57.16 45.58 74.45 70.23s26.5 50 26.5 74.9a99.71 99.71 0 0 1-1.23 15.65c-3.37 21.21-13.41 40.57-29.32 57.9-23.84 26-61 47.21-107.4 61.81s-102.07 22.63-162.71 22.63a746.81 746.81 0 0 1-116.52-9.37c-101.79-16.12-191.2-50.83-254.82-94.27-31.81-21.71-57.16-45.58-74.44-70.23s-26.5-50-26.5-74.9a99.91 99.91 0 0 1 1.23-15.63l-5.29-.84-5.29-.84a110.51 110.51 0 0 0-1.37 17.3c0 27.61 10.21 55.06 28.44 81.05 27.38 39 72.82 75 130.7 104.41s128.28 52.25 205.66 64.51a757.51 757.51 0 0 0 118.2 9.52c82.17 0 155.5-14.42 210.51-40.4 27.5-13 50.44-28.91 67.53-47.51s28.29-40 32-63.47a110.78 110.78 0 0 0 1.36-17.32c0-27.6-10.21-55.06-28.45-81.05-27.38-39-72.82-75-130.71-104.41S506.99 288.21 429.61 276a757.56 757.56 0 0 0-118.19-9.51c-82.17 0-155.5 14.42-210.51 40.4-27.5 13-50.44 28.91-67.53 47.51s-28.29 40-32 63.48l.1-.62-.1.62z"/>
    <path d="M456.73 281.56s68.25-131.29 148.91-196.25 212.4-130 189.64-44c-15.14 57.2-11.84 83.09-11.84 83.09s86.76-38.91 95.79 29.18c6.23 46.93-30 41.56-20.09 106.23 5.65 37-14.23 68.27-49 68.27-173.67 0-225.42 21.74-276.06 37.43 0 0 .83 2.76 3.31 15.14 0 0 134.59 24.22 134.59 192.13S511.5 776.44 511.5 776.44s10.72-23.4-3.31-61.66-41.25-82.81-35-118.08c13.5-75.7-35-82.3-.83-174.49 0 0-48.72 2.35-68.27-5.78-42.37-17.61-100.45-55.05-103.75-99.92 0 0-13.21 5.78-39.08 5.78 0 0-74-3.3-74-53.12 0 0-3.3-56.7 89.72-70.73 63.32 0 60 52.2 64.14 51.47 51.47-9.08 115.6 31.66 115.6 31.66"/>
    <path d="M473.24 293.12s71.8-127.84 124.15-175.33C656.28 64.39 791.77-32 772.71 54.49c-20.27 92-3.32 95-3.32 95s102.4-46.81 92.21 6.6c-8.24 43.21-22.49 42.68-23.12 72.4-.81 39.86 21.56 83.51-66.6 80.59-198.73-6.6-246.89 43.21-249.37 37.44-6.58-15.36-49.28-53.4-49.28-53.4" fill="#b2b2b2"/>
  </g>
  <g clip-path="url(#b)" fill-rule="evenodd">
    <path d="M489.13 313.09s65-106.68 78.24-132.28 25.59-35 25.59-35-16.52 17.71-16.52 46c0 10.73 27.81-16.29 39.91-35.79 14-22.57 38.8-72.93 55.61-82.3 0 0-38.81 56.71-36.33 74.87s73.22-59.18 92.21-104c0 0-8.55 48.7-58.36 101.28 0 0 32.37-11.22 52.58-23.94 0 0-11.65 17.62-74.88 46.51-35.61 16.28-32 16.4-54.23 31.65-26.42 18.16-24.76 13.22-40.74 39.09-14 22.68 107.57-79.82 215.74-110.65l1.71 20.87s-133.79 31.85-272 169.2l-8.57-5.5"/>
    <path d="M508.11 330.22S588.3 260.44 636.04 239c0 0 39.48-53.26 12.24-3.67 0 0 39.36-8 52.85-22.87s50.1-44.86 63.3-49c0 0-30 27.52-35.77 42.38s75.69-19 113.12-58.07c0 0-27.23 39.91-47.33 50.64s10.45 10.19 31.37-3.3c0 0-9.09 25.59-61.39 24.76S639.77 250.2 609.77 266.7c0 0 73.86 18.9 99.63 3.3a151.82 151.82 0 0 0 34.13-28.35L727.04 270s30 17.33 73.21-27.54c0 0-11.55 18.45-19.27 26.71s34.06-4.17 39.88-25.87c0 0 9.37 20.1-20.63 32.47s-83.12 11.56-150.56 12.38c-58.4.72-37.37-12.82-80.64 12.67-44.7 26.33-53 41.34-53 41.34l-8-11.94"/>
  </g>
  <path d="M493.33 422.21s-19 33.85-9.08 66.32 13.21 46.52 10.73 76.52-.28 76.52 14 100.74 32.47 73.75 24.22 85.6 113.94-56.13 113.94-181.93S538.49 397.16 527.48 398s-34.14 24.22-34.14 24.22"/>
  <g clip-path="url(#c)" fill="#fdb813">
    <path d="M485.04 437.07s31.65 14 77.33-32.47-38.25-16.52-38.25-16.52l-35.78 20.64-3.3 28.35m-8.5 39.93s53.94 9.36 109.83-49.81L603.99 442s-25.59 62.48-120.55 60l-6.9-25m13.5 55.86s84.48 4.14 137.88-61.66l12.67 27.53s-74.86 79-152.2 50.65l1.65-16.52m.82 58.08s95.78 16 158.81-55.61l4.13 34.13s-65.51 66.61-162.94 39.08v-17.6m4.95 55.87s62.49 23.12 148.91-20.92l-10.19 34.95s-49.82 25.59-132.95 9.09l-5.78-23.12m31.49 61.54s43.76 19 69.63 0l-30.54 30.83-35.77 18.45-3.32-49.28"/>
  </g>
  <path d="M248.64 241.24c0-4.33 5.05-7.85 11.29-7.85s11.29 3.52 11.29 7.85-5.06 7.83-11.29 7.83-11.29-3.5-11.29-7.83" fill="#fff"/>
  <path d="M244.96 211.55s-17.6-32.71-56.84-32.71S123.65 209 123.65 209s-6.19 11.08 7.5 7.17c15.79-4.51 53.38-46.86 98.16 3.59l15.65-8.16"/>
  <path d="M227.49 219.54s-11.41-11.85-29-11.85-50.08 10.24-59.57 26.85c-3.91 6.84 2 12.38 11.08 8.14 6.89-3.21 31.41-28.68 69.34-9.78l8.16-13.37m101.49 141.55s-18.77 33-33 36c-6.78 1.43-30.76 0-33.76-.75s-9-8.25-19.51-8.25-16.5 5.25-16.5 5.25-22.51 0-31.51-2.25-23.26-12.74-32.26-12-15.75 3.75-18.74 6.75-12.77 3-21 3.75-48.74 13.5-22.5 18.74 34.51 4.51 40.51 3.76 12 3 21 3 15-5.25 28.51-3.76 26.26 1.51 26.26 1.51 9.75 9 18.74 9.76 24.76-.75 27.76-3.75 23.26-1.5 28.51-1.5 20.95 5.49 26.25 3c12.76-6 33.75-36 33.75-36l-22.49-23.26"/>
  <path d="M368.04 390.5s-34.52 44.24-48 51.76-17.24 2.26-29.25 6-18 7.49-22.52 15-15 9-19.5 9-14.26-5.26-23.26-2.26-17.24 11.25-17.24 11.25-21.76 2.25-30 2.25-17.27-3-27-3-16.5 1.51-39.76 15 6.76 18.75 21.76 17.25 61.5-6.76 71.26-5.26 24 0 33.75-.75 17.27-8.25 20.26-11.24 13.5-1.5 16.5-3.74 21-5.26 29.26-8.25 15.77-12 19.51-18.76 25.51-18 37.51-24.75 37.49-35.26 37.49-35.26l-30.77-14.24"/>
  <path d="M458.26 413.33s-41.45 10.07-48.66 23c-3.43 6.15-8.44 29.42-8.43 32.46s6.6 10.59 3.72 20.63a26.2 26.2 0 0 1-10.31 14.52s-6.17 21.54-6.16 30.67 7.65 25.28 4.35 33.71-8.45 14.18-12.57 16.33-6.79 11.49-9.88 19.2-28.21 43.4-26.79 17 4.51-34.08 7-39.63 0-12.19 2.47-20.8 9.89-13.11 11.94-26.37a236 236 0 0 1 5.55-25.46s-7.24-11.48-5.59-20.27 7.61-23.5 11.73-25.65 8-21.88 9.47-26.91-.3-21.35 3.9-25.81c10.04-10.75 48.84-23.69 48.84-23.69l19.42 27.07M81.04 820.92v4.92c-5.64.18-9.65.65-12.06 1.44-4.24 1.46-6.37 4.15-6.37 8a18.59 18.59 0 0 0 .68 5c.56 1.64 1.34 3.75 2.36 6.34l41 99.77 30.19-74.9-13.43-32c-2.49-5.86-6.23-9.8-11.22-11.79-3-1.21-7.43-1.85-13.44-1.95v-4.92h75.92v4.92q-10.63.25-14.63 1.53-6.37 2.18-6.38 9.06a14 14 0 0 0 .56 4.15c.37 1.13 1.29 3.49 2.77 7.13l41 99.51 35.46-90.05a73.52 73.52 0 0 0 4.15-13.61 29.69 29.69 0 0 0 .7-5.44q0-7.39-7.49-10.23-4.15-1.68-12.46-1.95v-4.92h56.24v4.92c-5.09.69-9 1.78-11.64 3.24q-7.21 3.77-10.81 13l-30.2 78.92-11.78 30.45-17 48.21h-4.3l-11.5-30.71-33.79-81.63L99.92 999.6h-4.29l-20.36-55.2-24.38-62.07q-15.1-38.35-21.06-47-5.8-8.84-18.28-9.47v-4.92h69.49m294.72 150.68c11.26 12.35 30 18.52 46.76 18.52a35.85 35.85 0 0 0 23.41-8q10-8 10-22.42 0-13-10-22.54-6.5-6.1-27.43-18.28l-24.24-14.12a85.3 85.3 0 0 1-17.46-13.09q-12.06-12.57-12.06-27.72 0-20.08 14.27-33.43t37.82-13.35q9.7 0 23.27 4.55t15.66 4.4c3.5 0 5.89-.77 7.19-2.33a15.81 15.81 0 0 0 3.19-6.62h5.82l6.22 56.49h-6.78q-6.91-25.53-22.3-35.63t-30.2-10.11a33.22 33.22 0 0 0-20.35 6.48q-8.6 6.36-8.59 17.76a24.94 24.94 0 0 0 6.64 17.49q6.65 7.41 20.65 15.43l24.93 14.38q23.41 13.48 33 24.74a41 41 0 0 1 9.42 27q0 20.85-16.9 34.86t-42.95 14a89.3 89.3 0 0 1-27.56-4.67q-14.27-4.67-16.34-4.67c-3.33 0-11.53-26.13-5.06-19m260.44-28.64q7.2 17.88 16.89 28.51 16.9 18.51 42 18.52a35.81 35.81 0 0 0 23.41-8q10-8 10-22.42 0-13-10-22.54-6.49-6.12-27.49-18.3l-24.2-14.12a85.13 85.13 0 0 1-17.46-13.08q-12-12.57-12-27.73 0-20.08 14.26-33.43t37.81-13.35q9.72 0 23.28 4.55c9.15 2.94 14.37 4.4 15.66 4.4 3.5 0 5.9-.77 7.19-2.33a15.52 15.52 0 0 0 3.2-6.62h5.81l6.24 56.49h-6.79q-7-25.53-22.34-35.65t-30.2-10.11a33.26 33.26 0 0 0-20.36 6.47q-8.59 6.36-8.59 17.76a25 25 0 0 0 6.64 17.49q6.66 7.4 20.66 15.43l24.93 14.38q23.41 13.5 33 24.74a41 41 0 0 1 9.42 27q0 20.85-16.91 34.86-16.75 14-42.93 14a89.35 89.35 0 0 1-27.57-4.67q-14.27-4.67-16.34-4.67c-3.32 0-5.59 1-6.79 2.85a18.08 18.08 0 0 0-2.21 6.09h-6.24l-8.44-56.5h6.51"/>
  <path d="M207.48 996.49v-4.79q10.95-1.17 16.34-7.79 5.55-6.6 18.85-35.88l59.15-130.23h5.54l70.68 150.44q7.06 15 11.22 18.66t14.26 4.8v4.79h-72.19v-4.79q12.46-1 16.07-2.47c2.39-1 3.59-3.5 3.59-7.39a30.38 30.38 0 0 0-1.39-6.87 72 72 0 0 0-3.87-10.38l-11.77-25.52h-74.25q-11.09 26.06-13.3 31.88a28.3 28.3 0 0 0-2.08 9.08q0 6.73 5.82 9.32c2.4 1 6.93 1.81 13.58 2.34v4.79h-56.25m122.46-68.15l-32.83-73.08-32.42 73.08h65.25zm151.63 63.37c10.81-.95 17.54-2.94 20.22-6s4-10.16 4-21.13V849.69q0-13.87-4.55-18.27t-19.67-5.58v-4.91h74.8q36 0 55.13 13.08t19.11 34.46q0 27.09-21.2 39.27t-53 12.18c-3 0-7 0-11.77-.14s-8.22-.26-10.53-.26v48.21q0 15 4.84 18.92 5 3.9 22 5.06v4.79h-79.38v-4.8m95.72-156q-12-4.93-30.47-4.94c-5.82 0-9.42.59-10.82 1.69s-1.92 3.42-1.92 7.13v69.19c5.07.43 8.39.7 10 .78s3.09.13 4.57.13q19.55 0 30.75-5.19 20.37-9.45 20.35-35.36 0-24.36-22.43-33.43" fill-rule="evenodd"/>
</svg>
